<mxfile host="Electron" agent="Mozilla/5.0 (Windows NT 10.0; Win64; x64) AppleWebKit/537.36 (KHTML, like Gecko) draw.io/26.2.2 Chrome/134.0.6998.178 Electron/35.1.2 Safari/537.36" version="26.2.2" pages="4">
  <diagram id="xQn5e15F_qsdIi_OyV2i" name="Main">
    <mxGraphModel dx="1024" dy="584" grid="1" gridSize="10" guides="1" tooltips="1" connect="1" arrows="1" fold="1" page="1" pageScale="1" pageWidth="827" pageHeight="1169" math="0" shadow="0">
      <root>
        <mxCell id="eKocktQbFLpbEESG2wqH-0" />
        <mxCell id="eKocktQbFLpbEESG2wqH-1" parent="eKocktQbFLpbEESG2wqH-0" />
        <mxCell id="NA2X8bcyl6Ta-OqD3019-13" value="" style="whiteSpace=wrap;html=1;aspect=fixed;" parent="eKocktQbFLpbEESG2wqH-1" vertex="1">
          <mxGeometry x="590" y="180" width="340" height="340" as="geometry" />
        </mxCell>
        <mxCell id="y5j9szhdOVdpunXOWs7a-0" value="" style="ellipse;shape=cloud;whiteSpace=wrap;html=1;" parent="eKocktQbFLpbEESG2wqH-1" vertex="1">
          <mxGeometry x="120" y="135" width="420" height="430" as="geometry" />
        </mxCell>
        <mxCell id="NA2X8bcyl6Ta-OqD3019-6" value="" style="rounded=0;whiteSpace=wrap;html=1;" parent="eKocktQbFLpbEESG2wqH-1" vertex="1">
          <mxGeometry x="330" y="270" width="120" height="190" as="geometry" />
        </mxCell>
        <mxCell id="y5j9szhdOVdpunXOWs7a-9" style="edgeStyle=orthogonalEdgeStyle;rounded=0;orthogonalLoop=1;jettySize=auto;html=1;entryX=0;entryY=0.25;entryDx=0;entryDy=0;" parent="eKocktQbFLpbEESG2wqH-1" source="a4DkyfCDJCM1RwOwumjv-1" target="NA2X8bcyl6Ta-OqD3019-3" edge="1">
          <mxGeometry relative="1" as="geometry">
            <mxPoint x="350" y="302.5" as="targetPoint" />
            <Array as="points">
              <mxPoint x="300" y="300" />
              <mxPoint x="396" y="300" />
            </Array>
          </mxGeometry>
        </mxCell>
        <mxCell id="a4DkyfCDJCM1RwOwumjv-1" value="App" style="verticalLabelPosition=bottom;html=1;verticalAlign=top;align=center;strokeColor=none;fillColor=#00BEF2;shape=mxgraph.azure.mobile;pointerEvents=1;" parent="eKocktQbFLpbEESG2wqH-1" vertex="1">
          <mxGeometry x="295" y="210" width="35" height="50" as="geometry" />
        </mxCell>
        <mxCell id="y5j9szhdOVdpunXOWs7a-1" value="Site&lt;br&gt;" style="text;html=1;strokeColor=none;fillColor=none;align=center;verticalAlign=middle;whiteSpace=wrap;rounded=0;" parent="eKocktQbFLpbEESG2wqH-1" vertex="1">
          <mxGeometry x="110" y="310" width="40" height="20" as="geometry" />
        </mxCell>
        <mxCell id="y5j9szhdOVdpunXOWs7a-5" value="" style="shape=image;verticalLabelPosition=bottom;labelBackgroundColor=#ffffff;verticalAlign=top;aspect=fixed;imageAspect=0;image=data:image/png,iVBORw0KGgoAAAANSUhEUgAAAOEAAADhCAMAAAAJbSJIAAABCFBMVEX///82RUgdkbQbgaU3sdkioMi92dcjgZ03qc4xQUQ3QEA2QkQgNDc2QUIrPEA2R0rt7+80xusjosGQlpdXYmU0qsgjob9bZ2k3PDw0udw2T1QudIUmODxocnUtPkE1ZXHV2Ng0sdI1gZXT7Ow2WGEvbX01jaU2LyoyXWcidJEse495goStsbJBT1I1l7AqhZs4NzS+wsPl5+ecoqPQ09Oqr7CEjI0WLTHGycpye302aXovXW0qcYg2IRI1jqs1mrs2KB6kuLjF5OdceoC21dUAfKMAJCkkmL4qZ32KxNRVqcLc9vaz3OOcsLBJWVxzlZxxtclrhIaHucSCo6ZMl7FRa3FTeoRni5FZYbpdAAAVoUlEQVR4nO2dCVvbuLrHUaEFeU2TkMUoxoCThqx1VgIcOO30DMx0JudM5557v/83uZIs27ItOwtZoI//Tx+gQcj6aX31avHBQaZMmTJlypQpU6ZMmTJlypQp0yoa/6qINJ3sO2EbUwcBkbTCvhO2MRHCSlTyT0Zo9KKy5Z+M8OPFRfWiWmVfqhcfz386wvPz6j9KjUrVOLv4x2nL+AkJb+vVT6WGXLXPLj6dXtoZ4dtSRvj2lRG+fWWEb18Z4dtXRvj25Vne/2SW9z9PL38yy3tMCE9Pq72Li161hL9XT0tvg7BQXE5zAIzTQHn6tbkmYS63aYwUtTW4lIhTRo1qXT9NWR9smiNZbRPIUlSYZsnP1iJsIzh1Nk6S+DRTtltR6bLdYOp7PxiyHgtnr0U4VHBuKcPNs4iFCc9PS/l8KV/C/9zvp4Z6/rFKfTHVjxfse1M2LvwgLNxa7XCEcG0AAO3K00oI80arUSmd2yW535dK9jkltM9OPxFfTOWy9Pmifk4Jz8/znxotOW/XS596Z8Z6hEUI9AddBqi9BRyBQoSg31c5ws9kzJPChJ8Z4ed1CTsKkB6OToydIS4m7EcJwYsIu1BuHh0dndgqQDsZTHdNOFJA5fGIISrjrTCFFSdsbpWQ9N1HVKSiTkdbgYo+cadl2AXS8RFDlAEE27dudkxoIVA5YYRHDxWgbb+32TFhB3mVlOheAsrNdrgC7ZhwYsq3AeGRLcPudrgC7ZiwDP1mSPRYAUpnO2C+dkuYm0N3rPB0rgK4JTJPOybUgRQiPMGFuOVpxm4JBxqQT45ChSjD8pbQmCihftb4TAilfr/iERrM8v58Wfp0UW9SwuZ5CVveUt5Y1/IeIKCHCfGIAbc7HaaE/V6pVWr085e9Xivfb+QJYa9UbVyUetVG/qJR7fWqmPC038+3Sr1LHISGX4NQiRKeGABtrppOiuWYugATliIy5PNqVLZsRMPlmzLoxqMsJs/84mWI+xpzczPFmsAng6fbcmwXiegzWbjbBIB4lFotMQU5E6iPYcJjCRbprwbWjeM4N9bgBYZcDQJZ4E2K+WlUsddJ6LuJhZOBOUsm1EElQoiHxO6o0y7qSFEQwl+0brlwsyZlDcr2WVRAti+j0mUjFs4AeiycIeuxcLacQngwh3j6GybEFcFEJgz2WeFagOBsrVlHDapnxCdDdJonvhYsWa1/jDS5j4bcPM0zeeFt1fDC+d/PVYMLQn88ratphDgJrTDhiU6oZFWSdN0wDDxgSiqBVuZrdEA4+npe7/elfPO2JOGB7dQ+I4RVu1GSL86aVaPX06vnZ4Twwq731N6ZnddbDbVUP88Twnq9Wik19GqzdVGh6xaYsN4s4SjVPB5J5MalvoCwYMp3MUJV0u/uj989Pb1///7p6d1x3VZxA4BKceVypIRqv/+ZJAcP3ZVTwyU0+qUKHvOqcq9XqTbrlNCo9+ioLlFroEkJYyszhNDOAxZlpdFSFxA6CBiR4UJVbx8IG6+na4MwopSYkgllntCOEUoeoc0I1aUIK0sSDsxoV3Ny/F6oYxtX1eRe+dUSHhShehsiPBIDvn9/rwJkvUHCMQLqUoBPqcPOKybMTUFohpgE+N6WAVrZYH0NhAcTDagniwHvJYBWX9p4FYTYNA1a4kkS4LEEXGPuDRIeFBDw7JpkQDz1X2dS9ToIydIMm+inVNH1nHCvhHBiAvD5MRnw6Y4ArjVpfA2EuXFXw/Ow25NEwGMdV1FzPTfq/gkHBR1BPON6SCzBY2KuaV1rLUCXUOr3P+Vt6nD57NuldI3QrkqN3ueqzdmldeO0Qn04LuH5LdlPIxFCdz8NJSy5pm7TzbRkwlxnruDyU6V6Uht8uJWpyb32pH+GCU/Per16/rKfr/caZ/lWg86e+qWLy2qvUb08Pb2sNnp09tTql+qlRit/1uidlfqXdPbU61VbpyUSpNq66PUJYamPg/R6ZzjK0hmOMoFwcFMoKrj4gCTfngSAT0/e93fH93eAzL2hUl56SmFFVSZlWKKL8eQL/akky/WYT8ZQm3k3iOeayZds2YiFO5cNsqTvRUl/qMuwxj905AwntbmmaBhPrRitE74XNXTDxsLTQndWCLVpbfkpUw6iiMg8Wo9qC5+FHqwgzSTuIFmqSPXH8Eh/TPwgsiy7U3sTKd3hKoPggHMM7FOyrKoVybCPg1mTN9LfYevazQbF7BbbzopjvIU8PxF1Le1HumHYd7eth7Ar3xv4JKBNOuPxuLOeh81SgP7uydXJ/nQUk2+rYdPFfMka8I0CDBaV4DH7U2CMquBlzmDiEvHi2jcVp2D0a0lg+qIlizGS7ddHyI3vBoCr+mHeACFvn714Ef81EvImmr3GyqFl8f8bai8k3Hz/9D5chKJltfRV/YHJI764DO2HxWGOjppLhYoBkiKcxxEm6XPLG0XjsqCDQJzwoZWSgpBObKlyuUwotbEs4NNduBXGijBXVgTUnGoQKGW//xWMFie3lcr9cnyXZD2t0lxQUxvEXK40H9NDuTG+f2dIuu/g1kG8CMfIBEqa4T0klwJApc3CjLBN88QTPt6SVEv24vQ81nWJGl2qWk9hfLArruVZsRsLG+3TPbGwJaP1xMbCSEeaG89p+pM3uefa7NYDE80LBJLYpT7hyUPdYOapLNnHKek5ebg1OENWle8ehKEfW4Yke6HwxNVuPaZlxi3LM4BD3r970sNj4cCZ6cidKUBd7KHJDTXTTxXUEJpPhhBIx+/ePRxf15tA4q1vWZKM+kMsQSePD/e2LEXtdPyJ3QpTPjZwgqPBVBzr7aUg2ofLphp5PD3HcDOi08fOsKYjFKQeoGJsmMw5M+IeCAma5G/YqrUMYlKlSkU27PPb29v67e1509ArlYowpJv6imo0z0nQOxuHlMThcKw4WhVPJ3BQHPa2aet4WigObbp3hyCkRad5EM8TraB8bwrF6a9T0b0jULBEH1Gw6WBBQC7wEiGl9GgJsCa8KiW4M+VXWBuOyMRjYI1Go5i7wnNayHfXTMf703VMzzJAhYREc+4PDJbSr9K+VZPvDj2925cO4xKNFGvpBgF974QCwDsZKItKZzkNFCDtmVDAd3i9wWMIGlCf94ooAtxcHT2gu/L22RCFfIdkbdfaFCG5+Wh/hGLAZ2mTR2VwQ1Sv94Qo5ju8loG5xtpuosiIuB/CBEDSCDe6YRbPNozDPSAm8dFGuNFt3WRXwKrV9PG3P/747XE7gHebP69W46vpUoi/X119+XJ19fsW+Egvs/I+rkXC83yJe8Ti5D1efVGU2dXV1dqlmAx4r25wJPSlg9UK8bevePLy1/erq982zUe60ZQJ/NrCfY26SiH+8QWPoXBW+/LHhvkI4AaHek4oVIgLESkhnoKuQ5jGd3iIo93OIfxIIS5C/O0D3b4Pv65cS9P5rnVcgts5w5WD4UJcgIh7Gg0h9GXVniadjwJu7dDvMDQmLkT8/fuHP//88H210WIB3+GhvNVLFOaQN2xSEA/vydfVR/yFfHhGuNVj2yNsf4fqqQjx+PjOkKS7lUpuSb7De9KLbvVc+gQP+6F6yiGSrTrX901blmQgr0G4mO/wWV13H97ywvVUf6a6v/dcb617rOc7XddlSZJlaCJk328eD9uiEoBbP3ZvacA/8OQ7LdkhJZmcwUHG/N8rj4BL8R0aKjB1a8uA7CJnqJkmd8LM1DSyU8f4b+2vL9++fv9+9f0/G8c7vAd4ulTexZ1JbYStzclff/31iyf885/fvn348PUKw7n6umE81gR3dElLUQP6t68fwvp6FdZShbg03uE1rqFwu50op9wcW2NfPsQUIlxciMvj0dng+lth19BAx23vzzhiCDLVGF2FDhegTTZrz3Z5bdkAQaD9LULkqmuCsbYaHC1AWQbm1q9LiCLieor+LUZ0Ob/G6+nqbLQAyWZ0pbbLAnQRuybQfvmWwvjhw49/rccU4iMVVNN3XIBUubkGTCMd8fcXI95hOwJO2zsvQFc1PC7ChMbI9D8vQ6R8aG7th++AHDrCjfG/qcX4sD7i9Z1E+XZ3ZaBADjQB1NOK8du6iNc22eiA9F2N8UnKlRXcD/xXMPr7iGtV1GeD1k9tuKcGyGts4mJEaZ3qyojXd2S7FUTdfZcfU66tQMKYXI7/WQXx+pnujtKU8l7bX1g3RYVMp34RmnFEP1bAc4sPtXdwu9wqcgApR637d0JlXaox3t/pMsHTlHnnFTS/qJwi2UymoXkC5I/DVMbrO4MdVULzlc7y7FI3M3IWiiQRz4YFxfh7AuP1M3HMkb1bJlKKBWvfHGkaDLvkUBk0kT7/5e8vUcxYVb2+f7YN3d3gh+smmnVea+lxsoZdXJKQ3AqDWe3//b+///7x49u3b5T2248Hl+sZFxt1Z8nuxkeEzPLwlXUtKRqMa5iSXoIDZeqhCuT55fwjdBpS9OKkY+070asqZ40nZUg3e4oO9RHXHPHM6cX20HnJRU771sAZF2pdc8pvV51iwXm5PRw7ozeMFtVgYLGNq4Od3hCfKVOmTJkybUtOrTizthf9aNIu7HfI7EyxTa1sbQrgTDU8Mdkr4pzYmdt7pU+RRL/GrVybU44a0i88Fp4SPb25cvWr4zaZhF0Qbi36pZKQEb4w+oxw+8oIXxp9Rrh9/XyEuQEWZ0SlEkYDp4l4biwrav2tRDgYOY4zepEB6bTnOoQmBN1igZ1pTyS0xrUuwGGh3q1xZ8OFynVqXUguJkOmXg4tUggIO/P5RJBrTq2r0UvXtW5t4TJOzinUivN5O5wb1mwaXG1OXO7U5E8gdLpT5HlGiWUOxskPtWpTFDhRIZrWrBTCtoLjM6MpLijcnQI4itTZTmdOSMj+ScSlatCectcSUGnEIBYSOnMl6vdFIGH5djBTohFDxd9LEiOs0bsrInuCxyaKRGEqXDaFNdaD/ORM+g6MXqpAA8ytgzghXQKOSxHuA3XMKB+N2LsdKEpYc5MR2pFoFaN8lFE8IbHI2m0QyL8LrK0I4iCPRuNulNDqijKDRAfjSy2ThIi94+YRQgYIptzNFh1hfvLZxKmDQoG9XMiVg0zCldfkXzTgPpIjHHEPJGG5wDB2M1UtiNjUsPzAYsIyA+TfcFGYco/jo8DB5tFawwUGdOdDLhwxZla6tcmkXdMjbScgHPlphopWnE0msyLi6r0lBoSKPisMh4VJmV0x4l21HSL00mEWg5QP/UqgKfP2cDyclIPnmZHDegU/sIn7XFD03CMzLx1IH3vd6yjc8fiEA+B1oNOaw/6e3JzqhevyuTrxIlaKfs8xGGqKaU49nwFP6ANykThezKbirxXnOl2vHmmhqfMwCDxzcsGCyZh9Ds1QbziYce3bJ5wzbi2888zRzfgjHT/icM/oTCZ+g+UIiwLAnBcFCg+RTpc9j9+C6udGZOPtwLtaaB41Fjpc62SEQ/ZR7DWnOa9CBv18TmeX/nRTrJCAUAR4UHNBoB67U4flPwycWDk2PkMY2ZbTNgX1y9VN0OZcQi9LRceNJ94jvQ9YbqQCeoQzv4qGgrMEQCCIouCmOxgzJqxTjJ7O8IpQeMu+j8gIC24k4pf5tCNDmZcblihwhLDsDRMw5Fgsw+S0MULfiTVgz9OigVmiE065jxFP6CYHAF0Y1vU7+oXI6vgCRyGL0jcAQ4AjJTltXqvw/ZysCOO3mXXTZ0csF93f3yiRphYWy0V0w/0lTMiNCKFXVcI12m1AotsRc/4AZ3p/4YJosQtNvVQlbfxg2egSTtwnJt5L4abItZRce3bhobMQYfSotplUhAOvSw+OBrNxOn4nrVuXUl6UMOfK2C2W5GsbLCWIjD1x0RsmecLojResyoDYH428IZ8zooa0UM34ESK3vaacIXb/khJ6qUmeJ7nZQQO4WbfwFlyOMHbYniU65g/veKaZxg1wM5NrIbxmNE0p1y651dQl5IpILLea0mUcN3kLr+kICOO3CbBER2dlvmmG+AMZrNnHe90a/cU0JQkBodtmBRXBl4tFuzO3zS68sconhGYscUVho/BNrfChNlp9RK9dddGVlCQEtdRtZmnLUO7gQhuH23kvfJdNUIbxkG7vGJ6v5DzTJ3K2O0cDi+oX6zxSkmDuhFBUMxgh380PPHs02nXkukktqLxcLaXNndXSlM4jXkuXLkOBIViMleEIxjtRFk8iIetpkhMyChof1yQT1A4aH+tpFl3WHNRSJYbYjvbz/mzfBFY0nkTCwqKEuCmlVTPnZl/KEOeOFtQydGiF1RYt7nKjRQzRrfNB/fWnf1oxNmAlE7rDVtzW8cV3aOznxI2vbkMFdJZiLTIlYoSxeyHYQOXlqO9LEr0RL5mQJSrRemS/d3t9t/dIbogT3o4E3B8uRxhDZDMLZuf6o4To+cmEB+4TEs8Tu+MlcD20bBKd1EEyG5fVzHbQCS9LGEXk7OCB7+ATX5CRQshmT6I55oHXmrwRgiUn6TYqbzZn0f8tmIgICSOIFvKyP+hEE6ykFEIWiym8wH3AHBFeXWPZIb5IxZvTe0/xnBipAwYj1KEQ0XNiDH1TGyR0AimEzPoTNl/PkvYLLTdNrilO1FEzXsWLEXiReMSRN29nvzQT40oj9NwYWswpn/MMiMARUfAwYoNXx/OKBQ/pskJMGxR9P40YcRZy26KUVyGnEPr+M7Mbcfp5rlHe3Oh6nxXDuel77zm3jBP0fqHMs4a+W5bztfmePR4xxy8goDYXRXtZq42oyDIKKuUgt29qXt0P3TXpu7yhOfFZ3HehxevvzPtUA8GiIY4YIT8Y5y8NSpGLw/+QG6Vy4yJCZnhqkU6Y89s5RGA2dhxnPAtWqCAMFcDYf6SJ5pMODjwsm37giB/VjxhoWndWGI+HNeiuA3oeMd7nHSBy5RM46gGYtwvDQrsI3ceFLq1JJzywuFMg9P1J3P3sscYdLCTQu9tDF4ZH7yEZcBHTMyV+WOHKTFCtOURu9YqszAQrQSEv3gJCjCha5KPRFGO9F4cYUbz/sfSEiMVrTwEi99RCwvNCVsoiwoPBXLQISQ7+CwJ3You6VKZoMM4JVzcDY5PtTfQ6Sa+ihmZ/HSR6nqnxrWchIZlDxNY9IeqK+/lBObwO6fIl3EMiiBgHtvyUkZiC+cONO0EKz29z7RgjROVw5XK9GKkvnhlMIB8PNJV58sFqp6zw9/VDhJJfWReJmLzqndsjQdcCONNuROONvsfJavNx4LQVo/WFxrNoJ26uM4NTxX1T27Q7SZ+8WoWionhvtyunH3MNRxw+VZmbT5Up3wNbXQVN43mL4zCDtMWzc0D+bJk7lAc3TqfTWfKUmeXgwI5jLRN2cNPpjIURWzeR7HGSDicOnA55i1xCbjqdl739KVOmTJkyZcqUKVOmTJkyZcr0mvX/zqwQsSgArU0AAAAASUVORK5CYII=;" parent="eKocktQbFLpbEESG2wqH-1" vertex="1">
          <mxGeometry x="357.5" y="390" width="65" height="65" as="geometry" />
        </mxCell>
        <mxCell id="y5j9szhdOVdpunXOWs7a-7" value="Edge" style="text;html=1;strokeColor=none;fillColor=none;align=center;verticalAlign=middle;whiteSpace=wrap;rounded=0;" parent="eKocktQbFLpbEESG2wqH-1" vertex="1">
          <mxGeometry x="379.7" y="250" width="100" height="20" as="geometry" />
        </mxCell>
        <mxCell id="y5j9szhdOVdpunXOWs7a-8" value="" style="html=1;verticalLabelPosition=bottom;align=center;labelBackgroundColor=#ffffff;verticalAlign=top;strokeWidth=2;strokeColor=#0080F0;shadow=0;dashed=0;shape=mxgraph.ios7.icons.wifi;pointerEvents=1" parent="eKocktQbFLpbEESG2wqH-1" vertex="1">
          <mxGeometry x="365.3" y="250" width="29.7" height="21" as="geometry" />
        </mxCell>
        <mxCell id="1rvkgEzVbFj8J9Qa-uRR-0" value="" style="shape=image;verticalLabelPosition=bottom;labelBackgroundColor=#ffffff;verticalAlign=top;aspect=fixed;imageAspect=0;image=data:image/png,iVBORw0KGgoAAAANSUhEUgAAAOEAAADhCAMAAAAJbSJIAAAAhFBMVEX///8zMzM1NTX8/PwxMTEuLi4qKiomJiYrKyshISEeHh4bGxv09PT5+fkiIiLHx8epqant7e1eXl5/f3/m5uYXFxdZWVnNzc27u7twcHCMjIw6OjqgoKDT09Pa2toNDQ2FhYVGRkazs7OYmJgAAAB5eXllZWVNTU1cXFxvb29HR0ebm5sSOxEhAAALGUlEQVR4nO1cC3eiOhBOAoS3ikK14gN1tdu7////3ZlJQNzSh3sbvcedb3v2VChJJpn3DArBYDAYDAaDwWAwGAwGg8FgMBgMBoPBYDAYDAaDwWAwGAwGg8FgMBgMBoPBYDAYDAaDwWAwGIz/FTwPfnJPwI+T4XP4oTmcDP+1NVgqXQ1vxr4jgUIUG9hnzxGJNHC+KZwM/jVkB6XqhcM99sSiVuqQOZvgM8xS5ct47opNYdh5LH2VzpwM//ns+bJSylf65EpSYNSThhlUtcxvr25gwlUMs0sVTR1OM41gBl/Fq3so1EUi4QilSpYOJ1kmCthUyWThcJJ3sA6RPqn0U+FQ0xRPWkmkMVw7m+QdZE8B8A8QGBbCobUQRahpnuDptgo1F6cQGFTKYFdasy/WzXRVfIPOAapW02YtrLEvdwFwivTDE8x6I3hopiogD6DnwmrSsR8HyfQ7NjqbJkHsj4Udea5pJlUtaOabADYWzQRqmT3NioYLLIdU6eEbhj+kMJKqyMzivz1pG5DF8nYEimfcV9BwB6PEgUBcgfLD4zeMfwxpLDUngmCCQ4ICIfXz7VzU8Yh4NPqZGedbFArsFmx8+B3exwy0NAwWqcwMLrKfEfHpaPwNo38J2U6iGZZJicIPjJSB64Eaz0825C574mqR8cyD+OwmQSWmwFnKaJRclHCIYJnk7lb6dJKiYAT6l7CkHBL4CJwVgl3OaZXe1Yovt0TCcws4RBjPRyEwU/zSAYp9OnFCTx90LsUOmUgG09zOP44V+Vbp3p5dMS8wfL1q5JyeMs/vU/IHVTy2e5hPAxRFtSu6VTgDjH4ISfDT1ssogGl99I9XVvstpa4nV3oBnjeptVxazbxCnx74ctfGhuuUVFt4uIWy8aIAt1MfDT0CVZ2UtR9OjRciGpSa6lqtMK5Qshs7xjT0axg1QetDNB/Re1NB5Jo+HH9SGctQ0gUwFBFtb/BSkHPjLVPgWT96vXjMuxji7VUhXiMQNJUujZ4qXogtZdQGn6WxINVEOD5FDzwO8qJGM2F396RR88nUOiETjSuRwaknhx4pnmyzXx5fT6/H5X6TkWrpLTU/BSjKSk+si5TSqBB8Wk6ZjchLnGbO2XQeK5pqYxe43lIMFS7N583W+FiXMRXcWjf/pGkc6kCHcZr+A47npaRinITYbszfL0OKm7Zr87y3oY1V8dwxfSgQSKCe2eXlz5FPHrjRcsBdZBiDlwvTlY+n2ih8+oemRk/HF9o2ewnotuF21F9Ikh8927/yZhpJRPF3SyJMjFy4HduYaUMEy2RixOqQkMMaqLK/jvKYRhItCpkZ+1uUHsve33ilCsj9TA5GRCcJybemM0WbtEUuDnZuU28QVJDtC2qzk7l4DlHq5NT4b+uRJWDT7TTsw+IHcpy8BHL2j8WZVcGXsVswWhtfbUqeU/hsnAdP1AHZSJe5PVxuo3Fx4cGuqqxRA8pqb7K3zxiuBv1AB89V0ya8AWaxOvtmQzIkQj+bTPC+wqH9ug0pwA7DNunGbcYmr2n3o41d1j5EK6UCE+fMt+Q+QoSRnylsRr5xY9/QB0ONmjOFOUQVeLhqOzcxWYAEy3Bv/2QTESfUbgPhdWIcNqtHvBOpj3hlLMJrgEuSL2UvFX+IBw+wJTNuI0p8pHzBa0HwaizJKialdLJDZcZ1S9xmbFYJrjdsTUEBRgoVD4UUAhU60FvtxTl1szDWUloqlez/ShbPZtHoiX1FxxTY8ci1kKNWtyyRYfxk5ZRCCn3rqjVKe9J3GJriIcxC0nZPljpcZPmD/Esy5r6vk2D3sgsSDW6spKOFX36U3X543hOmDjHM9MxspKf3djYQAhsIuwOZO7B27a425ITboMbTPqnCVm5QX0C8jvSB8oWlqeO4LIqiHB+VJvElGsNjV70CuSZl7GvzeZKSu920s+NmocF0SOHGGOX2lLInk60xcocGC27vOr/KxlW4ZND0SWM8WfyvBO8crxH1JkYy97Idne7WhE2lydDYRCKcsHEnNg4pHIckOq0Ybmrjc1Okj2KCUrMU5zPEpDyJG+w++q1GDeL/Y2RQI5bRtDtDcNZQsknQMbo3/nfdkrQkoQ5dJjMmI1xVaL1jMcdgHDw42nBQdUhKOD/z3FqT/ScDP7aXPUvK2LgAeFuvz3syN7ZlmhFbgKeGqYNO7EPclZHLSB9mxAx7u4mrEKUmNpqgpGSUfCnORrzRrdpM3u47RQ8EfTaKIOmkZCPj0O1j/BC22nNMlQTtstiGxS5S5gYzTWHFmBY3pwRcODvn+HN0nonCqBkYrIkshcGuNeLw7AytvhqZVOKYAoyOJDJHVM5zhl1EwUGrzKhs0hJMnjLp1ZbCTaUMK/oDyVxMK1sPVVWb7iLpT/LkW5Kw+GNvFzR7tHNIocQZ/W7Ld6gI/NrwZUObX43PtOxbPmzt228k0nEhD6f788Ux1QvQQiDPotsLZ2zv5jvcsUA6o88TWI6B2K9dLoVExGPAmc+UM92eowrQizagSIbiAYxT7CGOlueLmy3lSp9JMSGfY6DV3oUYEos07qILj7J8Ucs0XkzGwn6kcq2sepHvMTRHqIKhigOwaWDv94sBWSV7heUnMhdx+/RTRFlLd8FFXiFJXVk7J5FpCcbUOzDc2fP3XrU1Fe9ErZiGJIOhX89rzom1o5/m0xPl87tBpxHerBxFFx7tb5/CzCym3W6aPenl0k5WlcqXwTKxV7zY+134gFcpeok6xqBtaxnDUuguuf/gZyj+Ajn8oi7t0OnSwdzKoC7FdCTuog2R3upSMj4OMzXWHrbndLaHorWH25579gf2UGCEYu2hGLKH4EP47uxh69PU1/o08iqfBl3Ru/k0nV9q1jvkl/ZSYdf7pZjMa/1SxIBfKt36pRRbyHdii8DGFr00WxdbpF+MLVoLYnXTnrKzF7EF8bw72PiwS5y8iQ8pn/tZfGgyAsPx4XpEGedzfChvGx++H+MLG+Or0bIXsQ/H+JRafTfGVzbGFzbGpwy6wQ1i/M/zND1N28vTBKATv5CnwSYIX/6ep5G3zNPYXJv/Qa5NDufaVC/XtjgqLIcO59rkfXNttlVoO5wvPVKBIpgO5kvlRb5UvpMvnVKdtC2hYb7UVzfNl36Q8xYm5y3bnLc9yK/mvM057ivD1Ha8e+S8P65bYKUaPoPBOBcuvli3wAfQVGDOGyvkA3ULbDmRzusWn9aeENSm0YnWF2tPnmm4QLxTe1r7WEN1XHv6uH4I8RJYh9r/D/VD7DGJXofrh7+oV0E3TsuHH9aAAevYkFL/UQ24NoTHhg2HasAoEa47vnt1fCLitzr+kuRURvUf1PFrcutlsjQnelHH925Vxxef92KQIfjTXgy8d+9ejHM/jfemnwY/Yj8NumPp1f00aa+fRrzppxG366f5uCcK/BDt19QT1Vv/F3qiPNMT5WvrVt+rJwoH/6yvrUnJpl3d10b5grS5d18bjv9pb2IMp7G9VuUttnDycSPu3Jto7NvH/aVe3khdr67toPVWtZaNfWXU9Jf6d+gvtVruox5hPIFyXoor26Bz+5RpybhnjzDiwz5v0+Z99bvB+M6vffiufd4GLnr1jbhd9upTKqPr1Vc37NV/+75F9ljvW3iP/87MX/De08O/u/be+4enR3n/kPDo75CKv+A94Md/l/vx38d//O9UIDz092IQHv+7TR7/+2mssXcmIt7dv2PIe/zviWIwGAwGg8FgMBgMBoPBYDAYDAaDwWAwGAwGg8FgMBgMBoPBYDAYDAaDwWAwGAwGg8FgMBgMxhD+BbrZq2FcncqKAAAAAElFTkSuQmCC;" parent="eKocktQbFLpbEESG2wqH-1" vertex="1">
          <mxGeometry x="190" y="297.25" width="30" height="30" as="geometry" />
        </mxCell>
        <mxCell id="1rvkgEzVbFj8J9Qa-uRR-2" value="" style="shape=image;verticalLabelPosition=bottom;labelBackgroundColor=#ffffff;verticalAlign=top;aspect=fixed;imageAspect=0;image=data:image/png,iVBORw0KGgoAAAANSUhEUgAAAOEAAADhCAMAAAAJbSJIAAAAhFBMVEX///8zMzM1NTX8/PwxMTEuLi4qKiomJiYrKyshISEeHh4bGxv09PT5+fkiIiLHx8epqant7e1eXl5/f3/m5uYXFxdZWVnNzc27u7twcHCMjIw6OjqgoKDT09Pa2toNDQ2FhYVGRkazs7OYmJgAAAB5eXllZWVNTU1cXFxvb29HR0ebm5sSOxEhAAALGUlEQVR4nO1cC3eiOhBOAoS3ikK14gN1tdu7////3ZlJQNzSh3sbvcedb3v2VChJJpn3DArBYDAYDAaDwWAwGAwGg8FgMBgMBoPBYDAYDAaDwWAwGAwGg8FgMBgMBoPBYDAYDAaDwWAwGIz/FTwPfnJPwI+T4XP4oTmcDP+1NVgqXQ1vxr4jgUIUG9hnzxGJNHC+KZwM/jVkB6XqhcM99sSiVuqQOZvgM8xS5ct47opNYdh5LH2VzpwM//ns+bJSylf65EpSYNSThhlUtcxvr25gwlUMs0sVTR1OM41gBl/Fq3so1EUi4QilSpYOJ1kmCthUyWThcJJ3sA6RPqn0U+FQ0xRPWkmkMVw7m+QdZE8B8A8QGBbCobUQRahpnuDptgo1F6cQGFTKYFdasy/WzXRVfIPOAapW02YtrLEvdwFwivTDE8x6I3hopiogD6DnwmrSsR8HyfQ7NjqbJkHsj4Udea5pJlUtaOabADYWzQRqmT3NioYLLIdU6eEbhj+kMJKqyMzivz1pG5DF8nYEimfcV9BwB6PEgUBcgfLD4zeMfwxpLDUngmCCQ4ICIfXz7VzU8Yh4NPqZGedbFArsFmx8+B3exwy0NAwWqcwMLrKfEfHpaPwNo38J2U6iGZZJicIPjJSB64Eaz0825C574mqR8cyD+OwmQSWmwFnKaJRclHCIYJnk7lb6dJKiYAT6l7CkHBL4CJwVgl3OaZXe1Yovt0TCcws4RBjPRyEwU/zSAYp9OnFCTx90LsUOmUgG09zOP44V+Vbp3p5dMS8wfL1q5JyeMs/vU/IHVTy2e5hPAxRFtSu6VTgDjH4ISfDT1ssogGl99I9XVvstpa4nV3oBnjeptVxazbxCnx74ctfGhuuUVFt4uIWy8aIAt1MfDT0CVZ2UtR9OjRciGpSa6lqtMK5Qshs7xjT0axg1QetDNB/Re1NB5Jo+HH9SGctQ0gUwFBFtb/BSkHPjLVPgWT96vXjMuxji7VUhXiMQNJUujZ4qXogtZdQGn6WxINVEOD5FDzwO8qJGM2F396RR88nUOiETjSuRwaknhx4pnmyzXx5fT6/H5X6TkWrpLTU/BSjKSk+si5TSqBB8Wk6ZjchLnGbO2XQeK5pqYxe43lIMFS7N583W+FiXMRXcWjf/pGkc6kCHcZr+A47npaRinITYbszfL0OKm7Zr87y3oY1V8dwxfSgQSKCe2eXlz5FPHrjRcsBdZBiDlwvTlY+n2ih8+oemRk/HF9o2ewnotuF21F9Ikh8927/yZhpJRPF3SyJMjFy4HduYaUMEy2RixOqQkMMaqLK/jvKYRhItCpkZ+1uUHsve33ilCsj9TA5GRCcJybemM0WbtEUuDnZuU28QVJDtC2qzk7l4DlHq5NT4b+uRJWDT7TTsw+IHcpy8BHL2j8WZVcGXsVswWhtfbUqeU/hsnAdP1AHZSJe5PVxuo3Fx4cGuqqxRA8pqb7K3zxiuBv1AB89V0ya8AWaxOvtmQzIkQj+bTPC+wqH9ug0pwA7DNunGbcYmr2n3o41d1j5EK6UCE+fMt+Q+QoSRnylsRr5xY9/QB0ONmjOFOUQVeLhqOzcxWYAEy3Bv/2QTESfUbgPhdWIcNqtHvBOpj3hlLMJrgEuSL2UvFX+IBw+wJTNuI0p8pHzBa0HwaizJKialdLJDZcZ1S9xmbFYJrjdsTUEBRgoVD4UUAhU60FvtxTl1szDWUloqlez/ShbPZtHoiX1FxxTY8ci1kKNWtyyRYfxk5ZRCCn3rqjVKe9J3GJriIcxC0nZPljpcZPmD/Esy5r6vk2D3sgsSDW6spKOFX36U3X543hOmDjHM9MxspKf3djYQAhsIuwOZO7B27a425ITboMbTPqnCVm5QX0C8jvSB8oWlqeO4LIqiHB+VJvElGsNjV70CuSZl7GvzeZKSu920s+NmocF0SOHGGOX2lLInk60xcocGC27vOr/KxlW4ZND0SWM8WfyvBO8crxH1JkYy97Idne7WhE2lydDYRCKcsHEnNg4pHIckOq0Ybmrjc1Okj2KCUrMU5zPEpDyJG+w++q1GDeL/Y2RQI5bRtDtDcNZQsknQMbo3/nfdkrQkoQ5dJjMmI1xVaL1jMcdgHDw42nBQdUhKOD/z3FqT/ScDP7aXPUvK2LgAeFuvz3syN7ZlmhFbgKeGqYNO7EPclZHLSB9mxAx7u4mrEKUmNpqgpGSUfCnORrzRrdpM3u47RQ8EfTaKIOmkZCPj0O1j/BC22nNMlQTtstiGxS5S5gYzTWHFmBY3pwRcODvn+HN0nonCqBkYrIkshcGuNeLw7AytvhqZVOKYAoyOJDJHVM5zhl1EwUGrzKhs0hJMnjLp1ZbCTaUMK/oDyVxMK1sPVVWb7iLpT/LkW5Kw+GNvFzR7tHNIocQZ/W7Ld6gI/NrwZUObX43PtOxbPmzt228k0nEhD6f788Ux1QvQQiDPotsLZ2zv5jvcsUA6o88TWI6B2K9dLoVExGPAmc+UM92eowrQizagSIbiAYxT7CGOlueLmy3lSp9JMSGfY6DV3oUYEos07qILj7J8Ucs0XkzGwn6kcq2sepHvMTRHqIKhigOwaWDv94sBWSV7heUnMhdx+/RTRFlLd8FFXiFJXVk7J5FpCcbUOzDc2fP3XrU1Fe9ErZiGJIOhX89rzom1o5/m0xPl87tBpxHerBxFFx7tb5/CzCym3W6aPenl0k5WlcqXwTKxV7zY+134gFcpeok6xqBtaxnDUuguuf/gZyj+Ajn8oi7t0OnSwdzKoC7FdCTuog2R3upSMj4OMzXWHrbndLaHorWH25579gf2UGCEYu2hGLKH4EP47uxh69PU1/o08iqfBl3Ru/k0nV9q1jvkl/ZSYdf7pZjMa/1SxIBfKt36pRRbyHdii8DGFr00WxdbpF+MLVoLYnXTnrKzF7EF8bw72PiwS5y8iQ8pn/tZfGgyAsPx4XpEGedzfChvGx++H+MLG+Or0bIXsQ/H+JRafTfGVzbGFzbGpwy6wQ1i/M/zND1N28vTBKATv5CnwSYIX/6ep5G3zNPYXJv/Qa5NDufaVC/XtjgqLIcO59rkfXNttlVoO5wvPVKBIpgO5kvlRb5UvpMvnVKdtC2hYb7UVzfNl36Q8xYm5y3bnLc9yK/mvM057ivD1Ha8e+S8P65bYKUaPoPBOBcuvli3wAfQVGDOGyvkA3ULbDmRzusWn9aeENSm0YnWF2tPnmm4QLxTe1r7WEN1XHv6uH4I8RJYh9r/D/VD7DGJXofrh7+oV0E3TsuHH9aAAevYkFL/UQ24NoTHhg2HasAoEa47vnt1fCLitzr+kuRURvUf1PFrcutlsjQnelHH925Vxxef92KQIfjTXgy8d+9ejHM/jfemnwY/Yj8NumPp1f00aa+fRrzppxG366f5uCcK/BDt19QT1Vv/F3qiPNMT5WvrVt+rJwoH/6yvrUnJpl3d10b5grS5d18bjv9pb2IMp7G9VuUttnDycSPu3Jto7NvH/aVe3khdr67toPVWtZaNfWXU9Jf6d+gvtVruox5hPIFyXoor26Bz+5RpybhnjzDiwz5v0+Z99bvB+M6vffiufd4GLnr1jbhd9upTKqPr1Vc37NV/+75F9ljvW3iP/87MX/De08O/u/be+4enR3n/kPDo75CKv+A94Md/l/vx38d//O9UIDz092IQHv+7TR7/+2mssXcmIt7dv2PIe/zviWIwGAwGg8FgMBgMBoPBYDAYDAaDwWAwGAwGg8FgMBgMBoPBYDAYDAaDwWAwGAwGg8FgMBgMxhD+BbrZq2FcncqKAAAAAElFTkSuQmCC;" parent="eKocktQbFLpbEESG2wqH-1" vertex="1">
          <mxGeometry x="200" y="360" width="30" height="30" as="geometry" />
        </mxCell>
        <mxCell id="NA2X8bcyl6Ta-OqD3019-2" value="db" style="strokeWidth=2;html=1;shape=mxgraph.flowchart.database;whiteSpace=wrap;" parent="eKocktQbFLpbEESG2wqH-1" vertex="1">
          <mxGeometry x="365.29999999999995" y="360" width="20.3" height="30" as="geometry" />
        </mxCell>
        <mxCell id="NA2X8bcyl6Ta-OqD3019-17" value="http" style="edgeStyle=orthogonalEdgeStyle;rounded=0;orthogonalLoop=1;jettySize=auto;html=1;entryX=0;entryY=1;entryDx=0;entryDy=0;" parent="eKocktQbFLpbEESG2wqH-1" source="NA2X8bcyl6Ta-OqD3019-3" target="NA2X8bcyl6Ta-OqD3019-16" edge="1">
          <mxGeometry relative="1" as="geometry" />
        </mxCell>
        <mxCell id="NA2X8bcyl6Ta-OqD3019-3" value="" style="aspect=fixed;perimeter=ellipsePerimeter;html=1;align=center;shadow=0;dashed=0;fontColor=#4277BB;labelBackgroundColor=#ffffff;fontSize=12;spacingTop=3;image;image=img/lib/ibm/applications/application_logic.svg;" parent="eKocktQbFLpbEESG2wqH-1" vertex="1">
          <mxGeometry x="395" y="310" width="25.5" height="25.5" as="geometry" />
        </mxCell>
        <mxCell id="NA2X8bcyl6Ta-OqD3019-4" value="" style="endArrow=classic;startArrow=classic;html=1;exitX=1;exitY=0.75;exitDx=0;exitDy=0;entryX=0;entryY=0.25;entryDx=0;entryDy=0;" parent="eKocktQbFLpbEESG2wqH-1" source="1rvkgEzVbFj8J9Qa-uRR-0" target="NA2X8bcyl6Ta-OqD3019-3" edge="1">
          <mxGeometry width="50" height="50" relative="1" as="geometry">
            <mxPoint x="510" y="330" as="sourcePoint" />
            <mxPoint x="560" y="280" as="targetPoint" />
          </mxGeometry>
        </mxCell>
        <mxCell id="NA2X8bcyl6Ta-OqD3019-5" value="" style="endArrow=classic;startArrow=classic;html=1;exitX=1;exitY=0.5;exitDx=0;exitDy=0;" parent="eKocktQbFLpbEESG2wqH-1" source="1rvkgEzVbFj8J9Qa-uRR-2" edge="1">
          <mxGeometry width="50" height="50" relative="1" as="geometry">
            <mxPoint x="510" y="330" as="sourcePoint" />
            <mxPoint x="390" y="332" as="targetPoint" />
          </mxGeometry>
        </mxCell>
        <mxCell id="NA2X8bcyl6Ta-OqD3019-7" value="1" style="text;html=1;strokeColor=none;fillColor=none;align=center;verticalAlign=middle;whiteSpace=wrap;rounded=0;" parent="eKocktQbFLpbEESG2wqH-1" vertex="1">
          <mxGeometry x="270" y="330" width="40" height="20" as="geometry" />
        </mxCell>
        <mxCell id="NA2X8bcyl6Ta-OqD3019-0" value="mqtt/http" style="text;html=1;strokeColor=none;fillColor=none;align=center;verticalAlign=middle;whiteSpace=wrap;rounded=0;" parent="eKocktQbFLpbEESG2wqH-1" vertex="1">
          <mxGeometry x="260" y="360" width="40" height="20" as="geometry" />
        </mxCell>
        <mxCell id="NA2X8bcyl6Ta-OqD3019-9" value="http" style="text;html=1;strokeColor=none;fillColor=none;align=center;verticalAlign=middle;whiteSpace=wrap;rounded=0;" parent="eKocktQbFLpbEESG2wqH-1" vertex="1">
          <mxGeometry x="260" y="270" width="40" height="20" as="geometry" />
        </mxCell>
        <mxCell id="NA2X8bcyl6Ta-OqD3019-10" value="" style="endArrow=classic;startArrow=classic;html=1;entryX=0.25;entryY=1;entryDx=0;entryDy=0;" parent="eKocktQbFLpbEESG2wqH-1" target="NA2X8bcyl6Ta-OqD3019-3" edge="1">
          <mxGeometry width="50" height="50" relative="1" as="geometry">
            <mxPoint x="380" y="360" as="sourcePoint" />
            <mxPoint x="570" y="180" as="targetPoint" />
          </mxGeometry>
        </mxCell>
        <mxCell id="NA2X8bcyl6Ta-OqD3019-14" value="Cloud" style="text;html=1;strokeColor=none;fillColor=none;align=center;verticalAlign=middle;whiteSpace=wrap;rounded=0;" parent="eKocktQbFLpbEESG2wqH-1" vertex="1">
          <mxGeometry x="590" y="150" width="40" height="20" as="geometry" />
        </mxCell>
        <mxCell id="NA2X8bcyl6Ta-OqD3019-15" value="" style="shape=image;verticalLabelPosition=bottom;labelBackgroundColor=#ffffff;verticalAlign=top;aspect=fixed;imageAspect=0;image=data:image/png,iVBORw0KGgoAAAANSUhEUgAAAOAAAADhCAMAAADmr0l2AAAAkFBMVEX39vlWZvL5+Pn//fn7+vlTY/L8+/lGWfJwfPP//vlQYfJUZPJMXvJJW/JNX/JFWPKOl/TU1vft7fng4fipr/WepfW1uvZ8h/NpdvO+wvZzf/Pw8PmWnvTJzPdfbvL08/mkqvXo6PiDjfRgb/Kxtva6vvaKk/TFyPeAivTP0vfi4/ja3PjT1febovV3g/M7UPGJu+q0AAANIUlEQVR4nO1daZuiOhPFSgiSBRQ3bHdb21anu///v3tZEgQkonNfwZ4n59t4HSeHpKpOLeFaloGBgYGBgYGBgYGBgYGBgYGBgYGBgYGBgYGBgYGBgYGBgYGBgYGBgYGBgcGdAEwIhrZX8TRgct59jcYDhNteyTMABE/fHU4p99+O/x7FiN54KVgnge2Eh3+LIhBrR7mkF4OJ5RSTf8UYAa3WXp5eSrGzg3+CIqBgJLwSvYQi94Yr9NspAtrMhXfNTlLko+BXUwT31HOohl5C0RPzza+liNF5K27RS0BF7/QrKWLUn9zcvQtFZ3v+dVEDo+ObY99DL6X43f9VFDE5hPfTi2E73cWvoRhrMlERF+oohgfyCygWNNljiOTN/tXlTarJ/oZdSpG/trwBNLvWZI9SfF15o9VkRQZeTehg3mvKm5ua7AIa7rai9hm8nrwBd3Bbk0nY34S4u3ojjeTNwH0dirEmu0+0iEEUCFDnDjN9IXlzvybrdPgs2hY0uUsDUGfy5wUoYvKIJksJvt35/VjetBz7wV08pMnEJiLovt8dSWwRHtp0NwCfzkNhTxyxBRZ94O8w59tqjSHgbn1gKIDvI4KbujhRBA2hLYZo/qgq84bEgvNjBDteD7XDD07+g/w63ppYuP8gwY4/aGcLyejO4HAB/YoIHh8lSOekHYLhw7qaRzsI/Uc3nr23QhBWzqP8OstVdNjI9tGd94M2zuiDR41RT/gfsbvAB98Rnv3A9otFG+GeDO+OEYwKHvZ2i/Mm3YnZaTGcUHF3PKTrNs7onZIyKWD3DoFLMFYBDQATZP35YuK+n7DfWggUAFeHzK5KZiO1NbVQRVs3IokX3xVCj11XBfiqeSOEQdnHeG/DXnlLmOgeXX3TGrvnSVns2fZw3C09KdFvniDel2QM/XCJu3kvLM1jB/e2fwC3/174IRrOEEHfxQfl7Zr3MqhXfsqx3sCr8PIxc+aQWxhg+QdcOLEYDXObSN9jbV1WO3TbvBGSctKTELRg1lEP36bHrOwAGMHpcEgY4v12d4ZcLosGS/VU7OUs+ZWSXmWdxo8oBGUTpPOEDj7ZKUMvDJRzBzSbbqnwU8mF944naO94KfJikJUougxw/HV3XjoezqlphnhxFebFV3IG8WYZB0j+mQUF99zjPAp6dJQSPPAkNHZ2K0UR0MiJ3WcY8QN0mlylYXzatBGS9XVI8JaHeMVgfThcbGUmDmjw6aQhPU6W8s+G050yS8sd+h77iJ4Jnn1VKIDm9XZlYYU53ROKC/izzUhuDra+sooUT33hReMx/t5X3gONTxA9E3SgVQKJhQ17GVhV6yxb7OKdA5APHJ2Xl/XKc5b3IMwfKY+a6Bwy8qv1m2hYb+vTcvGZq6GgcT6M89SLwinvn8R3TqWQkS5DaVpv47G2WsE/XPUtmBfWG5ec4k+LRRna2WQMibYm7DWst5E+p2PZgiHoFqiIfkowyD8c5myz00e+tI/NfnM1S3kO8FK3kohHpqsg8o25LUmlQNF+bTG9FD7hpE0xGW1Ub8NGn83b3ZzDKzgZR24tsIyg6Ab5o4fW2hxTnJskmMRqDZxz3h1g6GWbqDxh1n1h/rBYt4YV0xkhHzfpZciX1gTpZ2os2TFFBy6/7M1SNqp27y3P2WbLrxNtb41+NBkJXX1BzUmPEh5mSpMEb4lpMVuaEeqyZPt6Wa4BOBU5N+r6rNPgDsJM7+2+kweN9z/bLCeCNCFiTC4RdSMVROnikmvA5OdP+h/JSGeFYtOcEeI/Wm8nZErEGH+7+L3I13Dqf0l/QoY+FZNZtiN4FlK7m57sogrIo0m9rS+oMZboGDwVce4aXDisRp+XrJyMe/uLd4nSj8hIfekltd3DJvU2+tRVw+g8OaGpjdqdQbYmIPluLc71Nck5SSCpbLFoNRILmwv1WFu1TSWjasswcax1fego56KcVMPqWzp81pQRwkBvgondZUeYOdOax+5OVZiU1msRnUiSUrYB4KnOiUoVk7jJFP7wJkM0zPZLndGrapaCzJcbAClXTDLQxFHCKnfKnLm+yQ7uV85nLtP1a41QRqAG4C61emqfmGCh6Mc/Lw8eSIQLX1yYepI9JG0MYl5DvWwI9CaYJESlmrDIjhY+ryP0lSmRdTGbUumiNultSG9XFNQU0nyBFHMCeyKPFswY9zxOVf6HJoWjruQ0aEN9Q3qb6HOa1NWTgptgYqQUzFvyOe1KEYcL2WKWtGNdWt+U3tZPKjGarDynA5gn7J4s0pCRPLlcaRK8ZrkBTNqTBHVxgnUaIQigT7uXOEeQUS7CdR+UF0UfcmMvnQaCz8NQ8DSDUHFC3/t3GtHbN+ZccgQZFd52unHJxfNl/j9vS0DcYLr14lpvPUFZlnsybhTUZI8EfTrOcvQHSm3PLHo4xbmXuDHzZ7R0HGli+noP/Woi1GcnreoRp5FsN4627qrtCauf1MmIq4MGmLibnUw3sLZ334zedm/Ms/qpHsbVPV186vmU+vPqIrVqHxZ0UPn3GyitwUb/77Of26EY0KbXq5s4h+BdX1prQG/rC2qM2ofKjCansCCv1KB6o8Ht+ZzajF0flSb0dsWEGvW4EA4Pt+fypY5kXgQHQRUTIKdjgBGpOM/kPJ5/d8NlpzwqnYmiJyItieU3jn/sDovjYEXyZy+hRmbn6eh7KZzute3ArOsI0fn+2vcTmgUhHf9lhLC1KQ1sMv70HQSrbIK872KMiwu08Op8WG+XXMRnLV/Nz5D2IZgdqQGxnIym54rTDeCWpo2cp09WXk170rly3XBpupNJdGS9i7uvsJ2CYI1oOh2S/cwlxJB90eGk+dgzQXYlFyfXHkXrYDFUVfuyGPCvvWtSeMsvXW4ybA4fw6OVlqhgVprloE+f/r3qm7GuCzG7XWRSnviRTVwoTGOxrB+TzcpEXynGcyc1U9z/4dQT/OMY7SN256XH+fzR0avxmI63PZ2mE58nxkKlmyPD/BZmNVuwDgd1/Io1bJUrobQcEg9hjBb93pXsdZ5+RK8vPdDI3jJXIAU/5Fpkke+THghWHeGEimxeMTA5bgerXPrEK+5wi2cTrBuipCOpmA+XvJx+yROK4oxQ7NSAQq58LPbph/ruknwQzz+iw5oVqB5Zzlh9OaaUFnOYKuDmRoapLJjBrc5x8sWn1+8hqBkp99ZyrSultLL2uqx4yvJ+9OeMjSrTEH0qJp/V8+cqyfD2qDbjcrF4IGvyqmSdTZiqwTN1HpnzRyUSNZPctAGpZuHytGp5EWqMhByTmhKjqi34SYvLVHP7/lQu+yoqlGE30Z6AoOZWgKNmdtAh7ntmxbJ+5nYcmfUkZ5b5e8kPn2suKvjnRuqGuZVqoJ4zOkbxQ1WKyKVhwULZsI4YMUftH1jairl8LuOGavdofJvhxVLIaSkmcighFzeyqIBCz87G8dyaCyO811iD0O3ddnZipJaCra08sDi/PYxJYbbvZp1st8Z7ZfXiBgB1jiYzK0u92ICMC8tXwcTKFo0ONfGHNjlvCEHNjQ7/UDQXsEr1h/LMBFrU8HOacTAKtY7GL7Z2ycjPJw/MdiYFSVK7f86+qeagWlGNo+k4u/xNf9iMtx1f8Li7xIXf+dzlU3NAu5pfa9DBZAxrHE3H6eHcoYpSRhz0D+PhcHzob0o3J3Cvhl+TDuay4hpH0/HC0tuoosQ4LkeUymiABmHdPTbWxgVCCOpux9liWH9FHFbr2jtofr9RB6OAz7V3Vf368Suo/5XGFEwZtY5GdtV1swPJ57Cpu6vO27pmHiuaGuNJBp8gOKOKXhNGQZ/csYN22N5LkICENeYTbRJA7+c9bvQmV0Bj4LhufRpPfB7PstVc5ma0sQmuKobBzXccxZoaLNuLW/XO23y8OJ82wWlwnK4/7bhQxX6iXBgvbh70hlIkHfCtS/F2nBWRtbSxpEjvRBCCqzvYLJ5uuvn6ldYcjMItRxM/fJjdfE1XnPrqZ2BbUTBXDLWKhscVxJoqXDL6QvY6hm0omDK0ioa9x2EA387SmRdLAd09GtaKgrliqEmdRBzkr+9ql78VixTQFGOcdhRMGdWpE3uPF3fVjCojvRWKKkNF6w5GAe0qig1po6v2jSVpLd4tt41jtKhgyqiq0bAwygdx/Tt1xNTFpOpSFg3bdzAKgCsUDR+67qxb/7IKvu5PqzyR/QoORgGCiukk/v7N73kZhyeqIklLKZIOlYqGPfQW3CJexsEo1KdOD6G1N3Hp4X48+I61W7BfyMEoVDqavwTzXsnBKFQ6mr/DizkYhZup0yN4OQejUKloHofXfoqkw//F0byig1H4vziaRrtIj6K2vV2PF0mRdPjPjuZlHYwCGv8nhuJ1HYwCGv09Q+b02nnR5kNAi46g9l+ACjp9sRekVwPjw/y7+zDeegfrF+xfgmSk/GH8y/9fOwMDAwMDAwMDAwMDAwMDAwMDAwMDAwMDAwMDAwMDAwMDAwMDAwMDAwMDg7/E/wDIJ8YVWPleEwAAAABJRU5ErkJggg==;" parent="eKocktQbFLpbEESG2wqH-1" vertex="1">
          <mxGeometry x="600.13" y="190" width="59.73" height="60" as="geometry" />
        </mxCell>
        <mxCell id="NA2X8bcyl6Ta-OqD3019-32" style="edgeStyle=orthogonalEdgeStyle;rounded=0;orthogonalLoop=1;jettySize=auto;html=1;entryX=0.145;entryY=1;entryDx=0;entryDy=-4.35;entryPerimeter=0;" parent="eKocktQbFLpbEESG2wqH-1" source="NA2X8bcyl6Ta-OqD3019-16" target="NA2X8bcyl6Ta-OqD3019-23" edge="1">
          <mxGeometry relative="1" as="geometry" />
        </mxCell>
        <mxCell id="NA2X8bcyl6Ta-OqD3019-34" value="Pub" style="edgeLabel;html=1;align=center;verticalAlign=middle;resizable=0;points=[];" parent="NA2X8bcyl6Ta-OqD3019-32" vertex="1" connectable="0">
          <mxGeometry x="-0.5554" relative="1" as="geometry">
            <mxPoint as="offset" />
          </mxGeometry>
        </mxCell>
        <mxCell id="NA2X8bcyl6Ta-OqD3019-16" value="" style="aspect=fixed;perimeter=ellipsePerimeter;html=1;align=center;shadow=0;dashed=0;fontColor=#4277BB;labelBackgroundColor=#ffffff;fontSize=12;spacingTop=3;image;image=img/lib/ibm/applications/application_logic.svg;" parent="eKocktQbFLpbEESG2wqH-1" vertex="1">
          <mxGeometry x="644.5" y="291.75" width="35.5" height="35.5" as="geometry" />
        </mxCell>
        <mxCell id="NA2X8bcyl6Ta-OqD3019-21" value="Rest Microservice" style="text;html=1;strokeColor=none;fillColor=none;align=center;verticalAlign=middle;whiteSpace=wrap;rounded=0;" parent="eKocktQbFLpbEESG2wqH-1" vertex="1">
          <mxGeometry x="616.11" y="260" width="87.25" height="20" as="geometry" />
        </mxCell>
        <mxCell id="NA2X8bcyl6Ta-OqD3019-23" value="" style="shape=cylinder3;whiteSpace=wrap;html=1;boundedLbl=1;backgroundOutline=1;size=15;rotation=90;" parent="eKocktQbFLpbEESG2wqH-1" vertex="1">
          <mxGeometry x="685" y="275" width="30" height="260" as="geometry" />
        </mxCell>
        <mxCell id="NA2X8bcyl6Ta-OqD3019-24" value="" style="shape=message;html=1;whiteSpace=wrap;html=1;outlineConnect=0;" parent="eKocktQbFLpbEESG2wqH-1" vertex="1">
          <mxGeometry x="590" y="395" width="20" height="20" as="geometry" />
        </mxCell>
        <mxCell id="NA2X8bcyl6Ta-OqD3019-26" value="" style="shape=message;html=1;whiteSpace=wrap;html=1;outlineConnect=0;" parent="eKocktQbFLpbEESG2wqH-1" vertex="1">
          <mxGeometry x="620" y="395" width="20" height="20" as="geometry" />
        </mxCell>
        <mxCell id="NA2X8bcyl6Ta-OqD3019-27" value="" style="shape=message;html=1;whiteSpace=wrap;html=1;outlineConnect=0;" parent="eKocktQbFLpbEESG2wqH-1" vertex="1">
          <mxGeometry x="720" y="395" width="20" height="20" as="geometry" />
        </mxCell>
        <mxCell id="NA2X8bcyl6Ta-OqD3019-28" value="" style="shape=message;html=1;whiteSpace=wrap;html=1;outlineConnect=0;" parent="eKocktQbFLpbEESG2wqH-1" vertex="1">
          <mxGeometry x="649.73" y="395" width="20" height="20" as="geometry" />
        </mxCell>
        <mxCell id="NA2X8bcyl6Ta-OqD3019-29" value="" style="shape=message;html=1;whiteSpace=wrap;html=1;outlineConnect=0;" parent="eKocktQbFLpbEESG2wqH-1" vertex="1">
          <mxGeometry x="685" y="395" width="20" height="20" as="geometry" />
        </mxCell>
        <mxCell id="NA2X8bcyl6Ta-OqD3019-43" style="edgeStyle=orthogonalEdgeStyle;rounded=0;orthogonalLoop=1;jettySize=auto;html=1;" parent="eKocktQbFLpbEESG2wqH-1" source="NA2X8bcyl6Ta-OqD3019-36" target="NA2X8bcyl6Ta-OqD3019-42" edge="1">
          <mxGeometry relative="1" as="geometry">
            <Array as="points">
              <mxPoint x="760" y="230" />
            </Array>
          </mxGeometry>
        </mxCell>
        <mxCell id="NA2X8bcyl6Ta-OqD3019-36" value="Event Based MS" style="aspect=fixed;perimeter=ellipsePerimeter;html=1;align=center;shadow=0;dashed=0;fontColor=#4277BB;labelBackgroundColor=#ffffff;fontSize=12;spacingTop=3;image;image=img/lib/ibm/applications/application_logic.svg;" parent="eKocktQbFLpbEESG2wqH-1" vertex="1">
          <mxGeometry x="747.75" y="290" width="35.5" height="35.5" as="geometry" />
        </mxCell>
        <mxCell id="NA2X8bcyl6Ta-OqD3019-38" value="sub" style="endArrow=classic;html=1;entryX=0.25;entryY=1;entryDx=0;entryDy=0;exitX=0;exitY=0;exitDx=0;exitDy=72.5;exitPerimeter=0;" parent="eKocktQbFLpbEESG2wqH-1" source="NA2X8bcyl6Ta-OqD3019-23" target="NA2X8bcyl6Ta-OqD3019-36" edge="1">
          <mxGeometry width="50" height="50" relative="1" as="geometry">
            <mxPoint x="758" y="400" as="sourcePoint" />
            <mxPoint x="800" y="410" as="targetPoint" />
          </mxGeometry>
        </mxCell>
        <mxCell id="NA2X8bcyl6Ta-OqD3019-39" value="" style="shape=message;html=1;whiteSpace=wrap;html=1;outlineConnect=0;" parent="eKocktQbFLpbEESG2wqH-1" vertex="1">
          <mxGeometry x="747.75" y="395" width="20" height="20" as="geometry" />
        </mxCell>
        <mxCell id="NA2X8bcyl6Ta-OqD3019-40" value="" style="shape=message;html=1;whiteSpace=wrap;html=1;outlineConnect=0;" parent="eKocktQbFLpbEESG2wqH-1" vertex="1">
          <mxGeometry x="775.5" y="395" width="20" height="20" as="geometry" />
        </mxCell>
        <mxCell id="NA2X8bcyl6Ta-OqD3019-42" value="datalake" style="shape=cylinder3;whiteSpace=wrap;html=1;boundedLbl=1;backgroundOutline=1;size=15;" parent="eKocktQbFLpbEESG2wqH-1" vertex="1">
          <mxGeometry x="827" y="200" width="60" height="80" as="geometry" />
        </mxCell>
        <mxCell id="NA2X8bcyl6Ta-OqD3019-44" value="Message Broker" style="text;html=1;strokeColor=none;fillColor=none;align=center;verticalAlign=middle;whiteSpace=wrap;rounded=0;" parent="eKocktQbFLpbEESG2wqH-1" vertex="1">
          <mxGeometry x="837" y="395" width="40" height="20" as="geometry" />
        </mxCell>
        <mxCell id="NA2X8bcyl6Ta-OqD3019-45" value="" style="endArrow=classic;startArrow=classic;html=1;exitX=0.75;exitY=1;exitDx=0;exitDy=0;" parent="eKocktQbFLpbEESG2wqH-1" source="NA2X8bcyl6Ta-OqD3019-3" edge="1">
          <mxGeometry width="50" height="50" relative="1" as="geometry">
            <mxPoint x="480" y="450" as="sourcePoint" />
            <mxPoint x="560" y="410" as="targetPoint" />
            <Array as="points">
              <mxPoint x="413" y="360" />
              <mxPoint x="530" y="360" />
              <mxPoint x="530" y="410" />
            </Array>
          </mxGeometry>
        </mxCell>
        <mxCell id="NA2X8bcyl6Ta-OqD3019-50" value="Pub/Sub" style="edgeLabel;html=1;align=center;verticalAlign=middle;resizable=0;points=[];" parent="NA2X8bcyl6Ta-OqD3019-45" vertex="1" connectable="0">
          <mxGeometry x="0.177" relative="1" as="geometry">
            <mxPoint x="1" as="offset" />
          </mxGeometry>
        </mxCell>
        <mxCell id="NA2X8bcyl6Ta-OqD3019-48" style="edgeStyle=orthogonalEdgeStyle;rounded=0;orthogonalLoop=1;jettySize=auto;html=1;entryX=0;entryY=0.5;entryDx=0;entryDy=0;" parent="eKocktQbFLpbEESG2wqH-1" source="a4DkyfCDJCM1RwOwumjv-1" target="NA2X8bcyl6Ta-OqD3019-16" edge="1">
          <mxGeometry relative="1" as="geometry">
            <mxPoint x="330" y="249.9411764705883" as="sourcePoint" />
            <mxPoint x="510" y="239.9411764705883" as="targetPoint" />
            <Array as="points">
              <mxPoint x="550" y="235" />
              <mxPoint x="550" y="309" />
            </Array>
          </mxGeometry>
        </mxCell>
        <mxCell id="NA2X8bcyl6Ta-OqD3019-49" value="http" style="edgeLabel;html=1;align=center;verticalAlign=middle;resizable=0;points=[];" parent="NA2X8bcyl6Ta-OqD3019-48" vertex="1" connectable="0">
          <mxGeometry x="-0.0016" y="1" relative="1" as="geometry">
            <mxPoint as="offset" />
          </mxGeometry>
        </mxCell>
      </root>
    </mxGraphModel>
  </diagram>
  <diagram id="42aZc2k9dJAsJWOlO9AR" name="Edge">
    <mxGraphModel dx="1024" dy="1753" grid="1" gridSize="10" guides="1" tooltips="1" connect="1" arrows="1" fold="1" page="1" pageScale="1" pageWidth="827" pageHeight="1169" math="0" shadow="0">
      <root>
        <mxCell id="ZeIRM3MsorT5oSY9BgfP-0" />
        <mxCell id="ZeIRM3MsorT5oSY9BgfP-1" parent="ZeIRM3MsorT5oSY9BgfP-0" />
        <mxCell id="FdOgPAeaq4_ZjdSYPGXj-2" value="" style="rounded=0;whiteSpace=wrap;html=1;" vertex="1" parent="ZeIRM3MsorT5oSY9BgfP-1">
          <mxGeometry x="90" y="140" width="660" height="220" as="geometry" />
        </mxCell>
        <mxCell id="FTRFFoOGFY6cm967lcTG-7" value="" style="rounded=0;whiteSpace=wrap;html=1;strokeColor=#d6b656;fillColor=#fff2cc;" vertex="1" parent="ZeIRM3MsorT5oSY9BgfP-1">
          <mxGeometry x="462.5" y="170" width="267.5" height="170" as="geometry" />
        </mxCell>
        <mxCell id="FdOgPAeaq4_ZjdSYPGXj-0" value="" style="shape=image;verticalLabelPosition=bottom;labelBackgroundColor=#ffffff;verticalAlign=top;aspect=fixed;imageAspect=0;image=data:image/png,iVBORw0KGgoAAAANSUhEUgAAAOEAAADhCAMAAAAJbSJIAAAAhFBMVEX///8zMzM1NTX8/PwxMTEuLi4qKiomJiYrKyshISEeHh4bGxv09PT5+fkiIiLHx8epqant7e1eXl5/f3/m5uYXFxdZWVnNzc27u7twcHCMjIw6OjqgoKDT09Pa2toNDQ2FhYVGRkazs7OYmJgAAAB5eXllZWVNTU1cXFxvb29HR0ebm5sSOxEhAAALGUlEQVR4nO1cC3eiOhBOAoS3ikK14gN1tdu7////3ZlJQNzSh3sbvcedb3v2VChJJpn3DArBYDAYDAaDwWAwGAwGg8FgMBgMBoPBYDAYDAaDwWAwGAwGg8FgMBgMBoPBYDAYDAaDwWAwGIz/FTwPfnJPwI+T4XP4oTmcDP+1NVgqXQ1vxr4jgUIUG9hnzxGJNHC+KZwM/jVkB6XqhcM99sSiVuqQOZvgM8xS5ct47opNYdh5LH2VzpwM//ns+bJSylf65EpSYNSThhlUtcxvr25gwlUMs0sVTR1OM41gBl/Fq3so1EUi4QilSpYOJ1kmCthUyWThcJJ3sA6RPqn0U+FQ0xRPWkmkMVw7m+QdZE8B8A8QGBbCobUQRahpnuDptgo1F6cQGFTKYFdasy/WzXRVfIPOAapW02YtrLEvdwFwivTDE8x6I3hopiogD6DnwmrSsR8HyfQ7NjqbJkHsj4Udea5pJlUtaOabADYWzQRqmT3NioYLLIdU6eEbhj+kMJKqyMzivz1pG5DF8nYEimfcV9BwB6PEgUBcgfLD4zeMfwxpLDUngmCCQ4ICIfXz7VzU8Yh4NPqZGedbFArsFmx8+B3exwy0NAwWqcwMLrKfEfHpaPwNo38J2U6iGZZJicIPjJSB64Eaz0825C574mqR8cyD+OwmQSWmwFnKaJRclHCIYJnk7lb6dJKiYAT6l7CkHBL4CJwVgl3OaZXe1Yovt0TCcws4RBjPRyEwU/zSAYp9OnFCTx90LsUOmUgG09zOP44V+Vbp3p5dMS8wfL1q5JyeMs/vU/IHVTy2e5hPAxRFtSu6VTgDjH4ISfDT1ssogGl99I9XVvstpa4nV3oBnjeptVxazbxCnx74ctfGhuuUVFt4uIWy8aIAt1MfDT0CVZ2UtR9OjRciGpSa6lqtMK5Qshs7xjT0axg1QetDNB/Re1NB5Jo+HH9SGctQ0gUwFBFtb/BSkHPjLVPgWT96vXjMuxji7VUhXiMQNJUujZ4qXogtZdQGn6WxINVEOD5FDzwO8qJGM2F396RR88nUOiETjSuRwaknhx4pnmyzXx5fT6/H5X6TkWrpLTU/BSjKSk+si5TSqBB8Wk6ZjchLnGbO2XQeK5pqYxe43lIMFS7N583W+FiXMRXcWjf/pGkc6kCHcZr+A47npaRinITYbszfL0OKm7Zr87y3oY1V8dwxfSgQSKCe2eXlz5FPHrjRcsBdZBiDlwvTlY+n2ih8+oemRk/HF9o2ewnotuF21F9Ikh8927/yZhpJRPF3SyJMjFy4HduYaUMEy2RixOqQkMMaqLK/jvKYRhItCpkZ+1uUHsve33ilCsj9TA5GRCcJybemM0WbtEUuDnZuU28QVJDtC2qzk7l4DlHq5NT4b+uRJWDT7TTsw+IHcpy8BHL2j8WZVcGXsVswWhtfbUqeU/hsnAdP1AHZSJe5PVxuo3Fx4cGuqqxRA8pqb7K3zxiuBv1AB89V0ya8AWaxOvtmQzIkQj+bTPC+wqH9ug0pwA7DNunGbcYmr2n3o41d1j5EK6UCE+fMt+Q+QoSRnylsRr5xY9/QB0ONmjOFOUQVeLhqOzcxWYAEy3Bv/2QTESfUbgPhdWIcNqtHvBOpj3hlLMJrgEuSL2UvFX+IBw+wJTNuI0p8pHzBa0HwaizJKialdLJDZcZ1S9xmbFYJrjdsTUEBRgoVD4UUAhU60FvtxTl1szDWUloqlez/ShbPZtHoiX1FxxTY8ci1kKNWtyyRYfxk5ZRCCn3rqjVKe9J3GJriIcxC0nZPljpcZPmD/Esy5r6vk2D3sgsSDW6spKOFX36U3X543hOmDjHM9MxspKf3djYQAhsIuwOZO7B27a425ITboMbTPqnCVm5QX0C8jvSB8oWlqeO4LIqiHB+VJvElGsNjV70CuSZl7GvzeZKSu920s+NmocF0SOHGGOX2lLInk60xcocGC27vOr/KxlW4ZND0SWM8WfyvBO8crxH1JkYy97Idne7WhE2lydDYRCKcsHEnNg4pHIckOq0Ybmrjc1Okj2KCUrMU5zPEpDyJG+w++q1GDeL/Y2RQI5bRtDtDcNZQsknQMbo3/nfdkrQkoQ5dJjMmI1xVaL1jMcdgHDw42nBQdUhKOD/z3FqT/ScDP7aXPUvK2LgAeFuvz3syN7ZlmhFbgKeGqYNO7EPclZHLSB9mxAx7u4mrEKUmNpqgpGSUfCnORrzRrdpM3u47RQ8EfTaKIOmkZCPj0O1j/BC22nNMlQTtstiGxS5S5gYzTWHFmBY3pwRcODvn+HN0nonCqBkYrIkshcGuNeLw7AytvhqZVOKYAoyOJDJHVM5zhl1EwUGrzKhs0hJMnjLp1ZbCTaUMK/oDyVxMK1sPVVWb7iLpT/LkW5Kw+GNvFzR7tHNIocQZ/W7Ld6gI/NrwZUObX43PtOxbPmzt228k0nEhD6f788Ux1QvQQiDPotsLZ2zv5jvcsUA6o88TWI6B2K9dLoVExGPAmc+UM92eowrQizagSIbiAYxT7CGOlueLmy3lSp9JMSGfY6DV3oUYEos07qILj7J8Ucs0XkzGwn6kcq2sepHvMTRHqIKhigOwaWDv94sBWSV7heUnMhdx+/RTRFlLd8FFXiFJXVk7J5FpCcbUOzDc2fP3XrU1Fe9ErZiGJIOhX89rzom1o5/m0xPl87tBpxHerBxFFx7tb5/CzCym3W6aPenl0k5WlcqXwTKxV7zY+134gFcpeok6xqBtaxnDUuguuf/gZyj+Ajn8oi7t0OnSwdzKoC7FdCTuog2R3upSMj4OMzXWHrbndLaHorWH25579gf2UGCEYu2hGLKH4EP47uxh69PU1/o08iqfBl3Ru/k0nV9q1jvkl/ZSYdf7pZjMa/1SxIBfKt36pRRbyHdii8DGFr00WxdbpF+MLVoLYnXTnrKzF7EF8bw72PiwS5y8iQ8pn/tZfGgyAsPx4XpEGedzfChvGx++H+MLG+Or0bIXsQ/H+JRafTfGVzbGFzbGpwy6wQ1i/M/zND1N28vTBKATv5CnwSYIX/6ep5G3zNPYXJv/Qa5NDufaVC/XtjgqLIcO59rkfXNttlVoO5wvPVKBIpgO5kvlRb5UvpMvnVKdtC2hYb7UVzfNl36Q8xYm5y3bnLc9yK/mvM057ivD1Ha8e+S8P65bYKUaPoPBOBcuvli3wAfQVGDOGyvkA3ULbDmRzusWn9aeENSm0YnWF2tPnmm4QLxTe1r7WEN1XHv6uH4I8RJYh9r/D/VD7DGJXofrh7+oV0E3TsuHH9aAAevYkFL/UQ24NoTHhg2HasAoEa47vnt1fCLitzr+kuRURvUf1PFrcutlsjQnelHH925Vxxef92KQIfjTXgy8d+9ejHM/jfemnwY/Yj8NumPp1f00aa+fRrzppxG366f5uCcK/BDt19QT1Vv/F3qiPNMT5WvrVt+rJwoH/6yvrUnJpl3d10b5grS5d18bjv9pb2IMp7G9VuUttnDycSPu3Jto7NvH/aVe3khdr67toPVWtZaNfWXU9Jf6d+gvtVruox5hPIFyXoor26Bz+5RpybhnjzDiwz5v0+Z99bvB+M6vffiufd4GLnr1jbhd9upTKqPr1Vc37NV/+75F9ljvW3iP/87MX/De08O/u/be+4enR3n/kPDo75CKv+A94Md/l/vx38d//O9UIDz092IQHv+7TR7/+2mssXcmIt7dv2PIe/zviWIwGAwGg8FgMBgMBoPBYDAYDAaDwWAwGAwGg8FgMBgMBoPBYDAYDAaDwWAwGAwGg8FgMBgMxhD+BbrZq2FcncqKAAAAAElFTkSuQmCC;" vertex="1" parent="ZeIRM3MsorT5oSY9BgfP-1">
          <mxGeometry x="130" y="200" width="30" height="30" as="geometry" />
        </mxCell>
        <mxCell id="FdOgPAeaq4_ZjdSYPGXj-1" value="" style="shape=image;verticalLabelPosition=bottom;labelBackgroundColor=#ffffff;verticalAlign=top;aspect=fixed;imageAspect=0;image=data:image/png,iVBORw0KGgoAAAANSUhEUgAAAOEAAADhCAMAAAAJbSJIAAAAhFBMVEX///8zMzM1NTX8/PwxMTEuLi4qKiomJiYrKyshISEeHh4bGxv09PT5+fkiIiLHx8epqant7e1eXl5/f3/m5uYXFxdZWVnNzc27u7twcHCMjIw6OjqgoKDT09Pa2toNDQ2FhYVGRkazs7OYmJgAAAB5eXllZWVNTU1cXFxvb29HR0ebm5sSOxEhAAALGUlEQVR4nO1cC3eiOhBOAoS3ikK14gN1tdu7////3ZlJQNzSh3sbvcedb3v2VChJJpn3DArBYDAYDAaDwWAwGAwGg8FgMBgMBoPBYDAYDAaDwWAwGAwGg8FgMBgMBoPBYDAYDAaDwWAwGIz/FTwPfnJPwI+T4XP4oTmcDP+1NVgqXQ1vxr4jgUIUG9hnzxGJNHC+KZwM/jVkB6XqhcM99sSiVuqQOZvgM8xS5ct47opNYdh5LH2VzpwM//ns+bJSylf65EpSYNSThhlUtcxvr25gwlUMs0sVTR1OM41gBl/Fq3so1EUi4QilSpYOJ1kmCthUyWThcJJ3sA6RPqn0U+FQ0xRPWkmkMVw7m+QdZE8B8A8QGBbCobUQRahpnuDptgo1F6cQGFTKYFdasy/WzXRVfIPOAapW02YtrLEvdwFwivTDE8x6I3hopiogD6DnwmrSsR8HyfQ7NjqbJkHsj4Udea5pJlUtaOabADYWzQRqmT3NioYLLIdU6eEbhj+kMJKqyMzivz1pG5DF8nYEimfcV9BwB6PEgUBcgfLD4zeMfwxpLDUngmCCQ4ICIfXz7VzU8Yh4NPqZGedbFArsFmx8+B3exwy0NAwWqcwMLrKfEfHpaPwNo38J2U6iGZZJicIPjJSB64Eaz0825C574mqR8cyD+OwmQSWmwFnKaJRclHCIYJnk7lb6dJKiYAT6l7CkHBL4CJwVgl3OaZXe1Yovt0TCcws4RBjPRyEwU/zSAYp9OnFCTx90LsUOmUgG09zOP44V+Vbp3p5dMS8wfL1q5JyeMs/vU/IHVTy2e5hPAxRFtSu6VTgDjH4ISfDT1ssogGl99I9XVvstpa4nV3oBnjeptVxazbxCnx74ctfGhuuUVFt4uIWy8aIAt1MfDT0CVZ2UtR9OjRciGpSa6lqtMK5Qshs7xjT0axg1QetDNB/Re1NB5Jo+HH9SGctQ0gUwFBFtb/BSkHPjLVPgWT96vXjMuxji7VUhXiMQNJUujZ4qXogtZdQGn6WxINVEOD5FDzwO8qJGM2F396RR88nUOiETjSuRwaknhx4pnmyzXx5fT6/H5X6TkWrpLTU/BSjKSk+si5TSqBB8Wk6ZjchLnGbO2XQeK5pqYxe43lIMFS7N583W+FiXMRXcWjf/pGkc6kCHcZr+A47npaRinITYbszfL0OKm7Zr87y3oY1V8dwxfSgQSKCe2eXlz5FPHrjRcsBdZBiDlwvTlY+n2ih8+oemRk/HF9o2ewnotuF21F9Ikh8927/yZhpJRPF3SyJMjFy4HduYaUMEy2RixOqQkMMaqLK/jvKYRhItCpkZ+1uUHsve33ilCsj9TA5GRCcJybemM0WbtEUuDnZuU28QVJDtC2qzk7l4DlHq5NT4b+uRJWDT7TTsw+IHcpy8BHL2j8WZVcGXsVswWhtfbUqeU/hsnAdP1AHZSJe5PVxuo3Fx4cGuqqxRA8pqb7K3zxiuBv1AB89V0ya8AWaxOvtmQzIkQj+bTPC+wqH9ug0pwA7DNunGbcYmr2n3o41d1j5EK6UCE+fMt+Q+QoSRnylsRr5xY9/QB0ONmjOFOUQVeLhqOzcxWYAEy3Bv/2QTESfUbgPhdWIcNqtHvBOpj3hlLMJrgEuSL2UvFX+IBw+wJTNuI0p8pHzBa0HwaizJKialdLJDZcZ1S9xmbFYJrjdsTUEBRgoVD4UUAhU60FvtxTl1szDWUloqlez/ShbPZtHoiX1FxxTY8ci1kKNWtyyRYfxk5ZRCCn3rqjVKe9J3GJriIcxC0nZPljpcZPmD/Esy5r6vk2D3sgsSDW6spKOFX36U3X543hOmDjHM9MxspKf3djYQAhsIuwOZO7B27a425ITboMbTPqnCVm5QX0C8jvSB8oWlqeO4LIqiHB+VJvElGsNjV70CuSZl7GvzeZKSu920s+NmocF0SOHGGOX2lLInk60xcocGC27vOr/KxlW4ZND0SWM8WfyvBO8crxH1JkYy97Idne7WhE2lydDYRCKcsHEnNg4pHIckOq0Ybmrjc1Okj2KCUrMU5zPEpDyJG+w++q1GDeL/Y2RQI5bRtDtDcNZQsknQMbo3/nfdkrQkoQ5dJjMmI1xVaL1jMcdgHDw42nBQdUhKOD/z3FqT/ScDP7aXPUvK2LgAeFuvz3syN7ZlmhFbgKeGqYNO7EPclZHLSB9mxAx7u4mrEKUmNpqgpGSUfCnORrzRrdpM3u47RQ8EfTaKIOmkZCPj0O1j/BC22nNMlQTtstiGxS5S5gYzTWHFmBY3pwRcODvn+HN0nonCqBkYrIkshcGuNeLw7AytvhqZVOKYAoyOJDJHVM5zhl1EwUGrzKhs0hJMnjLp1ZbCTaUMK/oDyVxMK1sPVVWb7iLpT/LkW5Kw+GNvFzR7tHNIocQZ/W7Ld6gI/NrwZUObX43PtOxbPmzt228k0nEhD6f788Ux1QvQQiDPotsLZ2zv5jvcsUA6o88TWI6B2K9dLoVExGPAmc+UM92eowrQizagSIbiAYxT7CGOlueLmy3lSp9JMSGfY6DV3oUYEos07qILj7J8Ucs0XkzGwn6kcq2sepHvMTRHqIKhigOwaWDv94sBWSV7heUnMhdx+/RTRFlLd8FFXiFJXVk7J5FpCcbUOzDc2fP3XrU1Fe9ErZiGJIOhX89rzom1o5/m0xPl87tBpxHerBxFFx7tb5/CzCym3W6aPenl0k5WlcqXwTKxV7zY+134gFcpeok6xqBtaxnDUuguuf/gZyj+Ajn8oi7t0OnSwdzKoC7FdCTuog2R3upSMj4OMzXWHrbndLaHorWH25579gf2UGCEYu2hGLKH4EP47uxh69PU1/o08iqfBl3Ru/k0nV9q1jvkl/ZSYdf7pZjMa/1SxIBfKt36pRRbyHdii8DGFr00WxdbpF+MLVoLYnXTnrKzF7EF8bw72PiwS5y8iQ8pn/tZfGgyAsPx4XpEGedzfChvGx++H+MLG+Or0bIXsQ/H+JRafTfGVzbGFzbGpwy6wQ1i/M/zND1N28vTBKATv5CnwSYIX/6ep5G3zNPYXJv/Qa5NDufaVC/XtjgqLIcO59rkfXNttlVoO5wvPVKBIpgO5kvlRb5UvpMvnVKdtC2hYb7UVzfNl36Q8xYm5y3bnLc9yK/mvM057ivD1Ha8e+S8P65bYKUaPoPBOBcuvli3wAfQVGDOGyvkA3ULbDmRzusWn9aeENSm0YnWF2tPnmm4QLxTe1r7WEN1XHv6uH4I8RJYh9r/D/VD7DGJXofrh7+oV0E3TsuHH9aAAevYkFL/UQ24NoTHhg2HasAoEa47vnt1fCLitzr+kuRURvUf1PFrcutlsjQnelHH925Vxxef92KQIfjTXgy8d+9ejHM/jfemnwY/Yj8NumPp1f00aa+fRrzppxG366f5uCcK/BDt19QT1Vv/F3qiPNMT5WvrVt+rJwoH/6yvrUnJpl3d10b5grS5d18bjv9pb2IMp7G9VuUttnDycSPu3Jto7NvH/aVe3khdr67toPVWtZaNfWXU9Jf6d+gvtVruox5hPIFyXoor26Bz+5RpybhnjzDiwz5v0+Z99bvB+M6vffiufd4GLnr1jbhd9upTKqPr1Vc37NV/+75F9ljvW3iP/87MX/De08O/u/be+4enR3n/kPDo75CKv+A94Md/l/vx38d//O9UIDz092IQHv+7TR7/+2mssXcmIt7dv2PIe/zviWIwGAwGg8FgMBgMBoPBYDAYDAaDwWAwGAwGg8FgMBgMBoPBYDAYDAaDwWAwGAwGg8FgMBgMxhD+BbrZq2FcncqKAAAAAElFTkSuQmCC;" vertex="1" parent="ZeIRM3MsorT5oSY9BgfP-1">
          <mxGeometry x="130" y="230" width="30" height="30" as="geometry" />
        </mxCell>
        <mxCell id="FdOgPAeaq4_ZjdSYPGXj-3" value="" style="shape=image;verticalLabelPosition=bottom;labelBackgroundColor=#ffffff;verticalAlign=top;aspect=fixed;imageAspect=0;image=data:image/png,iVBORw0KGgoAAAANSUhEUgAAAOEAAADhCAMAAAAJbSJIAAAAhFBMVEX///8zMzM1NTX8/PwxMTEuLi4qKiomJiYrKyshISEeHh4bGxv09PT5+fkiIiLHx8epqant7e1eXl5/f3/m5uYXFxdZWVnNzc27u7twcHCMjIw6OjqgoKDT09Pa2toNDQ2FhYVGRkazs7OYmJgAAAB5eXllZWVNTU1cXFxvb29HR0ebm5sSOxEhAAALGUlEQVR4nO1cC3eiOhBOAoS3ikK14gN1tdu7////3ZlJQNzSh3sbvcedb3v2VChJJpn3DArBYDAYDAaDwWAwGAwGg8FgMBgMBoPBYDAYDAaDwWAwGAwGg8FgMBgMBoPBYDAYDAaDwWAwGIz/FTwPfnJPwI+T4XP4oTmcDP+1NVgqXQ1vxr4jgUIUG9hnzxGJNHC+KZwM/jVkB6XqhcM99sSiVuqQOZvgM8xS5ct47opNYdh5LH2VzpwM//ns+bJSylf65EpSYNSThhlUtcxvr25gwlUMs0sVTR1OM41gBl/Fq3so1EUi4QilSpYOJ1kmCthUyWThcJJ3sA6RPqn0U+FQ0xRPWkmkMVw7m+QdZE8B8A8QGBbCobUQRahpnuDptgo1F6cQGFTKYFdasy/WzXRVfIPOAapW02YtrLEvdwFwivTDE8x6I3hopiogD6DnwmrSsR8HyfQ7NjqbJkHsj4Udea5pJlUtaOabADYWzQRqmT3NioYLLIdU6eEbhj+kMJKqyMzivz1pG5DF8nYEimfcV9BwB6PEgUBcgfLD4zeMfwxpLDUngmCCQ4ICIfXz7VzU8Yh4NPqZGedbFArsFmx8+B3exwy0NAwWqcwMLrKfEfHpaPwNo38J2U6iGZZJicIPjJSB64Eaz0825C574mqR8cyD+OwmQSWmwFnKaJRclHCIYJnk7lb6dJKiYAT6l7CkHBL4CJwVgl3OaZXe1Yovt0TCcws4RBjPRyEwU/zSAYp9OnFCTx90LsUOmUgG09zOP44V+Vbp3p5dMS8wfL1q5JyeMs/vU/IHVTy2e5hPAxRFtSu6VTgDjH4ISfDT1ssogGl99I9XVvstpa4nV3oBnjeptVxazbxCnx74ctfGhuuUVFt4uIWy8aIAt1MfDT0CVZ2UtR9OjRciGpSa6lqtMK5Qshs7xjT0axg1QetDNB/Re1NB5Jo+HH9SGctQ0gUwFBFtb/BSkHPjLVPgWT96vXjMuxji7VUhXiMQNJUujZ4qXogtZdQGn6WxINVEOD5FDzwO8qJGM2F396RR88nUOiETjSuRwaknhx4pnmyzXx5fT6/H5X6TkWrpLTU/BSjKSk+si5TSqBB8Wk6ZjchLnGbO2XQeK5pqYxe43lIMFS7N583W+FiXMRXcWjf/pGkc6kCHcZr+A47npaRinITYbszfL0OKm7Zr87y3oY1V8dwxfSgQSKCe2eXlz5FPHrjRcsBdZBiDlwvTlY+n2ih8+oemRk/HF9o2ewnotuF21F9Ikh8927/yZhpJRPF3SyJMjFy4HduYaUMEy2RixOqQkMMaqLK/jvKYRhItCpkZ+1uUHsve33ilCsj9TA5GRCcJybemM0WbtEUuDnZuU28QVJDtC2qzk7l4DlHq5NT4b+uRJWDT7TTsw+IHcpy8BHL2j8WZVcGXsVswWhtfbUqeU/hsnAdP1AHZSJe5PVxuo3Fx4cGuqqxRA8pqb7K3zxiuBv1AB89V0ya8AWaxOvtmQzIkQj+bTPC+wqH9ug0pwA7DNunGbcYmr2n3o41d1j5EK6UCE+fMt+Q+QoSRnylsRr5xY9/QB0ONmjOFOUQVeLhqOzcxWYAEy3Bv/2QTESfUbgPhdWIcNqtHvBOpj3hlLMJrgEuSL2UvFX+IBw+wJTNuI0p8pHzBa0HwaizJKialdLJDZcZ1S9xmbFYJrjdsTUEBRgoVD4UUAhU60FvtxTl1szDWUloqlez/ShbPZtHoiX1FxxTY8ci1kKNWtyyRYfxk5ZRCCn3rqjVKe9J3GJriIcxC0nZPljpcZPmD/Esy5r6vk2D3sgsSDW6spKOFX36U3X543hOmDjHM9MxspKf3djYQAhsIuwOZO7B27a425ITboMbTPqnCVm5QX0C8jvSB8oWlqeO4LIqiHB+VJvElGsNjV70CuSZl7GvzeZKSu920s+NmocF0SOHGGOX2lLInk60xcocGC27vOr/KxlW4ZND0SWM8WfyvBO8crxH1JkYy97Idne7WhE2lydDYRCKcsHEnNg4pHIckOq0Ybmrjc1Okj2KCUrMU5zPEpDyJG+w++q1GDeL/Y2RQI5bRtDtDcNZQsknQMbo3/nfdkrQkoQ5dJjMmI1xVaL1jMcdgHDw42nBQdUhKOD/z3FqT/ScDP7aXPUvK2LgAeFuvz3syN7ZlmhFbgKeGqYNO7EPclZHLSB9mxAx7u4mrEKUmNpqgpGSUfCnORrzRrdpM3u47RQ8EfTaKIOmkZCPj0O1j/BC22nNMlQTtstiGxS5S5gYzTWHFmBY3pwRcODvn+HN0nonCqBkYrIkshcGuNeLw7AytvhqZVOKYAoyOJDJHVM5zhl1EwUGrzKhs0hJMnjLp1ZbCTaUMK/oDyVxMK1sPVVWb7iLpT/LkW5Kw+GNvFzR7tHNIocQZ/W7Ld6gI/NrwZUObX43PtOxbPmzt228k0nEhD6f788Ux1QvQQiDPotsLZ2zv5jvcsUA6o88TWI6B2K9dLoVExGPAmc+UM92eowrQizagSIbiAYxT7CGOlueLmy3lSp9JMSGfY6DV3oUYEos07qILj7J8Ucs0XkzGwn6kcq2sepHvMTRHqIKhigOwaWDv94sBWSV7heUnMhdx+/RTRFlLd8FFXiFJXVk7J5FpCcbUOzDc2fP3XrU1Fe9ErZiGJIOhX89rzom1o5/m0xPl87tBpxHerBxFFx7tb5/CzCym3W6aPenl0k5WlcqXwTKxV7zY+134gFcpeok6xqBtaxnDUuguuf/gZyj+Ajn8oi7t0OnSwdzKoC7FdCTuog2R3upSMj4OMzXWHrbndLaHorWH25579gf2UGCEYu2hGLKH4EP47uxh69PU1/o08iqfBl3Ru/k0nV9q1jvkl/ZSYdf7pZjMa/1SxIBfKt36pRRbyHdii8DGFr00WxdbpF+MLVoLYnXTnrKzF7EF8bw72PiwS5y8iQ8pn/tZfGgyAsPx4XpEGedzfChvGx++H+MLG+Or0bIXsQ/H+JRafTfGVzbGFzbGpwy6wQ1i/M/zND1N28vTBKATv5CnwSYIX/6ep5G3zNPYXJv/Qa5NDufaVC/XtjgqLIcO59rkfXNttlVoO5wvPVKBIpgO5kvlRb5UvpMvnVKdtC2hYb7UVzfNl36Q8xYm5y3bnLc9yK/mvM057ivD1Ha8e+S8P65bYKUaPoPBOBcuvli3wAfQVGDOGyvkA3ULbDmRzusWn9aeENSm0YnWF2tPnmm4QLxTe1r7WEN1XHv6uH4I8RJYh9r/D/VD7DGJXofrh7+oV0E3TsuHH9aAAevYkFL/UQ24NoTHhg2HasAoEa47vnt1fCLitzr+kuRURvUf1PFrcutlsjQnelHH925Vxxef92KQIfjTXgy8d+9ejHM/jfemnwY/Yj8NumPp1f00aa+fRrzppxG366f5uCcK/BDt19QT1Vv/F3qiPNMT5WvrVt+rJwoH/6yvrUnJpl3d10b5grS5d18bjv9pb2IMp7G9VuUttnDycSPu3Jto7NvH/aVe3khdr67toPVWtZaNfWXU9Jf6d+gvtVruox5hPIFyXoor26Bz+5RpybhnjzDiwz5v0+Z99bvB+M6vffiufd4GLnr1jbhd9upTKqPr1Vc37NV/+75F9ljvW3iP/87MX/De08O/u/be+4enR3n/kPDo75CKv+A94Md/l/vx38d//O9UIDz092IQHv+7TR7/+2mssXcmIt7dv2PIe/zviWIwGAwGg8FgMBgMBoPBYDAYDAaDwWAwGAwGg8FgMBgMBoPBYDAYDAaDwWAwGAwGg8FgMBgMxhD+BbrZq2FcncqKAAAAAElFTkSuQmCC;fontStyle=1" vertex="1" parent="ZeIRM3MsorT5oSY9BgfP-1">
          <mxGeometry x="130" y="170" width="30" height="30" as="geometry" />
        </mxCell>
        <mxCell id="FdOgPAeaq4_ZjdSYPGXj-4" value="" style="shape=image;verticalLabelPosition=bottom;labelBackgroundColor=#ffffff;verticalAlign=top;aspect=fixed;imageAspect=0;image=data:image/png,iVBORw0KGgoAAAANSUhEUgAAAOEAAADhCAMAAAAJbSJIAAAAhFBMVEX///8zMzM1NTX8/PwxMTEuLi4qKiomJiYrKyshISEeHh4bGxv09PT5+fkiIiLHx8epqant7e1eXl5/f3/m5uYXFxdZWVnNzc27u7twcHCMjIw6OjqgoKDT09Pa2toNDQ2FhYVGRkazs7OYmJgAAAB5eXllZWVNTU1cXFxvb29HR0ebm5sSOxEhAAALGUlEQVR4nO1cC3eiOhBOAoS3ikK14gN1tdu7////3ZlJQNzSh3sbvcedb3v2VChJJpn3DArBYDAYDAaDwWAwGAwGg8FgMBgMBoPBYDAYDAaDwWAwGAwGg8FgMBgMBoPBYDAYDAaDwWAwGIz/FTwPfnJPwI+T4XP4oTmcDP+1NVgqXQ1vxr4jgUIUG9hnzxGJNHC+KZwM/jVkB6XqhcM99sSiVuqQOZvgM8xS5ct47opNYdh5LH2VzpwM//ns+bJSylf65EpSYNSThhlUtcxvr25gwlUMs0sVTR1OM41gBl/Fq3so1EUi4QilSpYOJ1kmCthUyWThcJJ3sA6RPqn0U+FQ0xRPWkmkMVw7m+QdZE8B8A8QGBbCobUQRahpnuDptgo1F6cQGFTKYFdasy/WzXRVfIPOAapW02YtrLEvdwFwivTDE8x6I3hopiogD6DnwmrSsR8HyfQ7NjqbJkHsj4Udea5pJlUtaOabADYWzQRqmT3NioYLLIdU6eEbhj+kMJKqyMzivz1pG5DF8nYEimfcV9BwB6PEgUBcgfLD4zeMfwxpLDUngmCCQ4ICIfXz7VzU8Yh4NPqZGedbFArsFmx8+B3exwy0NAwWqcwMLrKfEfHpaPwNo38J2U6iGZZJicIPjJSB64Eaz0825C574mqR8cyD+OwmQSWmwFnKaJRclHCIYJnk7lb6dJKiYAT6l7CkHBL4CJwVgl3OaZXe1Yovt0TCcws4RBjPRyEwU/zSAYp9OnFCTx90LsUOmUgG09zOP44V+Vbp3p5dMS8wfL1q5JyeMs/vU/IHVTy2e5hPAxRFtSu6VTgDjH4ISfDT1ssogGl99I9XVvstpa4nV3oBnjeptVxazbxCnx74ctfGhuuUVFt4uIWy8aIAt1MfDT0CVZ2UtR9OjRciGpSa6lqtMK5Qshs7xjT0axg1QetDNB/Re1NB5Jo+HH9SGctQ0gUwFBFtb/BSkHPjLVPgWT96vXjMuxji7VUhXiMQNJUujZ4qXogtZdQGn6WxINVEOD5FDzwO8qJGM2F396RR88nUOiETjSuRwaknhx4pnmyzXx5fT6/H5X6TkWrpLTU/BSjKSk+si5TSqBB8Wk6ZjchLnGbO2XQeK5pqYxe43lIMFS7N583W+FiXMRXcWjf/pGkc6kCHcZr+A47npaRinITYbszfL0OKm7Zr87y3oY1V8dwxfSgQSKCe2eXlz5FPHrjRcsBdZBiDlwvTlY+n2ih8+oemRk/HF9o2ewnotuF21F9Ikh8927/yZhpJRPF3SyJMjFy4HduYaUMEy2RixOqQkMMaqLK/jvKYRhItCpkZ+1uUHsve33ilCsj9TA5GRCcJybemM0WbtEUuDnZuU28QVJDtC2qzk7l4DlHq5NT4b+uRJWDT7TTsw+IHcpy8BHL2j8WZVcGXsVswWhtfbUqeU/hsnAdP1AHZSJe5PVxuo3Fx4cGuqqxRA8pqb7K3zxiuBv1AB89V0ya8AWaxOvtmQzIkQj+bTPC+wqH9ug0pwA7DNunGbcYmr2n3o41d1j5EK6UCE+fMt+Q+QoSRnylsRr5xY9/QB0ONmjOFOUQVeLhqOzcxWYAEy3Bv/2QTESfUbgPhdWIcNqtHvBOpj3hlLMJrgEuSL2UvFX+IBw+wJTNuI0p8pHzBa0HwaizJKialdLJDZcZ1S9xmbFYJrjdsTUEBRgoVD4UUAhU60FvtxTl1szDWUloqlez/ShbPZtHoiX1FxxTY8ci1kKNWtyyRYfxk5ZRCCn3rqjVKe9J3GJriIcxC0nZPljpcZPmD/Esy5r6vk2D3sgsSDW6spKOFX36U3X543hOmDjHM9MxspKf3djYQAhsIuwOZO7B27a425ITboMbTPqnCVm5QX0C8jvSB8oWlqeO4LIqiHB+VJvElGsNjV70CuSZl7GvzeZKSu920s+NmocF0SOHGGOX2lLInk60xcocGC27vOr/KxlW4ZND0SWM8WfyvBO8crxH1JkYy97Idne7WhE2lydDYRCKcsHEnNg4pHIckOq0Ybmrjc1Okj2KCUrMU5zPEpDyJG+w++q1GDeL/Y2RQI5bRtDtDcNZQsknQMbo3/nfdkrQkoQ5dJjMmI1xVaL1jMcdgHDw42nBQdUhKOD/z3FqT/ScDP7aXPUvK2LgAeFuvz3syN7ZlmhFbgKeGqYNO7EPclZHLSB9mxAx7u4mrEKUmNpqgpGSUfCnORrzRrdpM3u47RQ8EfTaKIOmkZCPj0O1j/BC22nNMlQTtstiGxS5S5gYzTWHFmBY3pwRcODvn+HN0nonCqBkYrIkshcGuNeLw7AytvhqZVOKYAoyOJDJHVM5zhl1EwUGrzKhs0hJMnjLp1ZbCTaUMK/oDyVxMK1sPVVWb7iLpT/LkW5Kw+GNvFzR7tHNIocQZ/W7Ld6gI/NrwZUObX43PtOxbPmzt228k0nEhD6f788Ux1QvQQiDPotsLZ2zv5jvcsUA6o88TWI6B2K9dLoVExGPAmc+UM92eowrQizagSIbiAYxT7CGOlueLmy3lSp9JMSGfY6DV3oUYEos07qILj7J8Ucs0XkzGwn6kcq2sepHvMTRHqIKhigOwaWDv94sBWSV7heUnMhdx+/RTRFlLd8FFXiFJXVk7J5FpCcbUOzDc2fP3XrU1Fe9ErZiGJIOhX89rzom1o5/m0xPl87tBpxHerBxFFx7tb5/CzCym3W6aPenl0k5WlcqXwTKxV7zY+134gFcpeok6xqBtaxnDUuguuf/gZyj+Ajn8oi7t0OnSwdzKoC7FdCTuog2R3upSMj4OMzXWHrbndLaHorWH25579gf2UGCEYu2hGLKH4EP47uxh69PU1/o08iqfBl3Ru/k0nV9q1jvkl/ZSYdf7pZjMa/1SxIBfKt36pRRbyHdii8DGFr00WxdbpF+MLVoLYnXTnrKzF7EF8bw72PiwS5y8iQ8pn/tZfGgyAsPx4XpEGedzfChvGx++H+MLG+Or0bIXsQ/H+JRafTfGVzbGFzbGpwy6wQ1i/M/zND1N28vTBKATv5CnwSYIX/6ep5G3zNPYXJv/Qa5NDufaVC/XtjgqLIcO59rkfXNttlVoO5wvPVKBIpgO5kvlRb5UvpMvnVKdtC2hYb7UVzfNl36Q8xYm5y3bnLc9yK/mvM057ivD1Ha8e+S8P65bYKUaPoPBOBcuvli3wAfQVGDOGyvkA3ULbDmRzusWn9aeENSm0YnWF2tPnmm4QLxTe1r7WEN1XHv6uH4I8RJYh9r/D/VD7DGJXofrh7+oV0E3TsuHH9aAAevYkFL/UQ24NoTHhg2HasAoEa47vnt1fCLitzr+kuRURvUf1PFrcutlsjQnelHH925Vxxef92KQIfjTXgy8d+9ejHM/jfemnwY/Yj8NumPp1f00aa+fRrzppxG366f5uCcK/BDt19QT1Vv/F3qiPNMT5WvrVt+rJwoH/6yvrUnJpl3d10b5grS5d18bjv9pb2IMp7G9VuUttnDycSPu3Jto7NvH/aVe3khdr67toPVWtZaNfWXU9Jf6d+gvtVruox5hPIFyXoor26Bz+5RpybhnjzDiwz5v0+Z99bvB+M6vffiufd4GLnr1jbhd9upTKqPr1Vc37NV/+75F9ljvW3iP/87MX/De08O/u/be+4enR3n/kPDo75CKv+A94Md/l/vx38d//O9UIDz092IQHv+7TR7/+2mssXcmIt7dv2PIe/zviWIwGAwGg8FgMBgMBoPBYDAYDAaDwWAwGAwGg8FgMBgMBoPBYDAYDAaDwWAwGAwGg8FgMBgMxhD+BbrZq2FcncqKAAAAAElFTkSuQmCC;" vertex="1" parent="ZeIRM3MsorT5oSY9BgfP-1">
          <mxGeometry x="130" y="260" width="30" height="30" as="geometry" />
        </mxCell>
        <mxCell id="FdOgPAeaq4_ZjdSYPGXj-5" style="edgeStyle=orthogonalEdgeStyle;rounded=0;orthogonalLoop=1;jettySize=auto;html=1;exitX=0.5;exitY=1;exitDx=0;exitDy=0;" edge="1" parent="ZeIRM3MsorT5oSY9BgfP-1" source="FdOgPAeaq4_ZjdSYPGXj-1" target="FdOgPAeaq4_ZjdSYPGXj-1">
          <mxGeometry relative="1" as="geometry" />
        </mxCell>
        <mxCell id="FdOgPAeaq4_ZjdSYPGXj-6" value="Driver" style="text;html=1;fillColor=none;align=center;verticalAlign=middle;whiteSpace=wrap;rounded=0;strokeColor=#000000;rotation=0;direction=west;" vertex="1" parent="ZeIRM3MsorT5oSY9BgfP-1">
          <mxGeometry x="160" y="177.5" width="40" height="162.5" as="geometry" />
        </mxCell>
        <mxCell id="FdOgPAeaq4_ZjdSYPGXj-7" value="Java Adapter" style="text;html=1;fillColor=#fff2cc;align=center;verticalAlign=middle;whiteSpace=wrap;rounded=0;strokeColor=#d6b656;rotation=0;direction=west;" vertex="1" parent="ZeIRM3MsorT5oSY9BgfP-1">
          <mxGeometry x="210" y="177.5" width="50" height="162.5" as="geometry" />
        </mxCell>
        <mxCell id="SGRckXHp4SgFhIehkKiu-0" value="" style="shape=image;verticalLabelPosition=bottom;labelBackgroundColor=#ffffff;verticalAlign=top;aspect=fixed;imageAspect=0;image=data:image/png,iVBORw0KGgoAAAANSUhEUgAAAOEAAADhCAMAAAAJbSJIAAABCFBMVEX///82RUgdkbQbgaU3sdkioMi92dcjgZ03qc4xQUQ3QEA2QkQgNDc2QUIrPEA2R0rt7+80xusjosGQlpdXYmU0qsgjob9bZ2k3PDw0udw2T1QudIUmODxocnUtPkE1ZXHV2Ng0sdI1gZXT7Ow2WGEvbX01jaU2LyoyXWcidJEse495goStsbJBT1I1l7AqhZs4NzS+wsPl5+ecoqPQ09Oqr7CEjI0WLTHGycpye302aXovXW0qcYg2IRI1jqs1mrs2KB6kuLjF5OdceoC21dUAfKMAJCkkmL4qZ32KxNRVqcLc9vaz3OOcsLBJWVxzlZxxtclrhIaHucSCo6ZMl7FRa3FTeoRni5FZYbpdAAAVoUlEQVR4nO2dCVvbuLrHUaEFeU2TkMUoxoCThqx1VgIcOO30DMx0JudM5557v/83uZIs27ItOwtZoI//Tx+gQcj6aX31avHBQaZMmTJlypQpU6ZMmTJlypQp0yoa/6qINJ3sO2EbUwcBkbTCvhO2MRHCSlTyT0Zo9KKy5Z+M8OPFRfWiWmVfqhcfz386wvPz6j9KjUrVOLv4x2nL+AkJb+vVT6WGXLXPLj6dXtoZ4dtSRvj2lRG+fWWEb18Z4dtXRvj25Vne/2SW9z9PL38yy3tMCE9Pq72Li161hL9XT0tvg7BQXE5zAIzTQHn6tbkmYS63aYwUtTW4lIhTRo1qXT9NWR9smiNZbRPIUlSYZsnP1iJsIzh1Nk6S+DRTtltR6bLdYOp7PxiyHgtnr0U4VHBuKcPNs4iFCc9PS/l8KV/C/9zvp4Z6/rFKfTHVjxfse1M2LvwgLNxa7XCEcG0AAO3K00oI80arUSmd2yW535dK9jkltM9OPxFfTOWy9Pmifk4Jz8/znxotOW/XS596Z8Z6hEUI9AddBqi9BRyBQoSg31c5ws9kzJPChJ8Z4ed1CTsKkB6OToydIS4m7EcJwYsIu1BuHh0dndgqQDsZTHdNOFJA5fGIISrjrTCFFSdsbpWQ9N1HVKSiTkdbgYo+cadl2AXS8RFDlAEE27dudkxoIVA5YYRHDxWgbb+32TFhB3mVlOheAsrNdrgC7ZhwYsq3AeGRLcPudrgC7ZiwDP1mSPRYAUpnO2C+dkuYm0N3rPB0rgK4JTJPOybUgRQiPMGFuOVpxm4JBxqQT45ChSjD8pbQmCihftb4TAilfr/iERrM8v58Wfp0UW9SwuZ5CVveUt5Y1/IeIKCHCfGIAbc7HaaE/V6pVWr085e9Xivfb+QJYa9UbVyUetVG/qJR7fWqmPC038+3Sr1LHISGX4NQiRKeGABtrppOiuWYugATliIy5PNqVLZsRMPlmzLoxqMsJs/84mWI+xpzczPFmsAng6fbcmwXiegzWbjbBIB4lFotMQU5E6iPYcJjCRbprwbWjeM4N9bgBYZcDQJZ4E2K+WlUsddJ6LuJhZOBOUsm1EElQoiHxO6o0y7qSFEQwl+0brlwsyZlDcr2WVRAti+j0mUjFs4AeiycIeuxcLacQngwh3j6GybEFcFEJgz2WeFagOBsrVlHDapnxCdDdJonvhYsWa1/jDS5j4bcPM0zeeFt1fDC+d/PVYMLQn88ratphDgJrTDhiU6oZFWSdN0wDDxgSiqBVuZrdEA4+npe7/elfPO2JOGB7dQ+I4RVu1GSL86aVaPX06vnZ4Twwq731N6ZnddbDbVUP88Twnq9Wik19GqzdVGh6xaYsN4s4SjVPB5J5MalvoCwYMp3MUJV0u/uj989Pb1///7p6d1x3VZxA4BKceVypIRqv/+ZJAcP3ZVTwyU0+qUKHvOqcq9XqTbrlNCo9+ioLlFroEkJYyszhNDOAxZlpdFSFxA6CBiR4UJVbx8IG6+na4MwopSYkgllntCOEUoeoc0I1aUIK0sSDsxoV3Ny/F6oYxtX1eRe+dUSHhShehsiPBIDvn9/rwJkvUHCMQLqUoBPqcPOKybMTUFohpgE+N6WAVrZYH0NhAcTDagniwHvJYBWX9p4FYTYNA1a4kkS4LEEXGPuDRIeFBDw7JpkQDz1X2dS9ToIydIMm+inVNH1nHCvhHBiAvD5MRnw6Y4ArjVpfA2EuXFXw/Ow25NEwGMdV1FzPTfq/gkHBR1BPON6SCzBY2KuaV1rLUCXUOr3P+Vt6nD57NuldI3QrkqN3ueqzdmldeO0Qn04LuH5LdlPIxFCdz8NJSy5pm7TzbRkwlxnruDyU6V6Uht8uJWpyb32pH+GCU/Per16/rKfr/caZ/lWg86e+qWLy2qvUb08Pb2sNnp09tTql+qlRit/1uidlfqXdPbU61VbpyUSpNq66PUJYamPg/R6ZzjK0hmOMoFwcFMoKrj4gCTfngSAT0/e93fH93eAzL2hUl56SmFFVSZlWKKL8eQL/akky/WYT8ZQm3k3iOeayZds2YiFO5cNsqTvRUl/qMuwxj905AwntbmmaBhPrRitE74XNXTDxsLTQndWCLVpbfkpUw6iiMg8Wo9qC5+FHqwgzSTuIFmqSPXH8Eh/TPwgsiy7U3sTKd3hKoPggHMM7FOyrKoVybCPg1mTN9LfYevazQbF7BbbzopjvIU8PxF1Le1HumHYd7eth7Ar3xv4JKBNOuPxuLOeh81SgP7uydXJ/nQUk2+rYdPFfMka8I0CDBaV4DH7U2CMquBlzmDiEvHi2jcVp2D0a0lg+qIlizGS7ddHyI3vBoCr+mHeACFvn714Ef81EvImmr3GyqFl8f8bai8k3Hz/9D5chKJltfRV/YHJI764DO2HxWGOjppLhYoBkiKcxxEm6XPLG0XjsqCDQJzwoZWSgpBObKlyuUwotbEs4NNduBXGijBXVgTUnGoQKGW//xWMFie3lcr9cnyXZD2t0lxQUxvEXK40H9NDuTG+f2dIuu/g1kG8CMfIBEqa4T0klwJApc3CjLBN88QTPt6SVEv24vQ81nWJGl2qWk9hfLArruVZsRsLG+3TPbGwJaP1xMbCSEeaG89p+pM3uefa7NYDE80LBJLYpT7hyUPdYOapLNnHKek5ebg1OENWle8ehKEfW4Yke6HwxNVuPaZlxi3LM4BD3r970sNj4cCZ6cidKUBd7KHJDTXTTxXUEJpPhhBIx+/ePRxf15tA4q1vWZKM+kMsQSePD/e2LEXtdPyJ3QpTPjZwgqPBVBzr7aUg2ofLphp5PD3HcDOi08fOsKYjFKQeoGJsmMw5M+IeCAma5G/YqrUMYlKlSkU27PPb29v67e1509ArlYowpJv6imo0z0nQOxuHlMThcKw4WhVPJ3BQHPa2aet4WigObbp3hyCkRad5EM8TraB8bwrF6a9T0b0jULBEH1Gw6WBBQC7wEiGl9GgJsCa8KiW4M+VXWBuOyMRjYI1Go5i7wnNayHfXTMf703VMzzJAhYREc+4PDJbSr9K+VZPvDj2925cO4xKNFGvpBgF974QCwDsZKItKZzkNFCDtmVDAd3i9wWMIGlCf94ooAtxcHT2gu/L22RCFfIdkbdfaFCG5+Wh/hGLAZ2mTR2VwQ1Sv94Qo5ju8loG5xtpuosiIuB/CBEDSCDe6YRbPNozDPSAm8dFGuNFt3WRXwKrV9PG3P/747XE7gHebP69W46vpUoi/X119+XJ19fsW+Egvs/I+rkXC83yJe8Ti5D1efVGU2dXV1dqlmAx4r25wJPSlg9UK8bevePLy1/erq982zUe60ZQJ/NrCfY26SiH+8QWPoXBW+/LHhvkI4AaHek4oVIgLESkhnoKuQ5jGd3iIo93OIfxIIS5C/O0D3b4Pv65cS9P5rnVcgts5w5WD4UJcgIh7Gg0h9GXVniadjwJu7dDvMDQmLkT8/fuHP//88H210WIB3+GhvNVLFOaQN2xSEA/vydfVR/yFfHhGuNVj2yNsf4fqqQjx+PjOkKS7lUpuSb7De9KLbvVc+gQP+6F6yiGSrTrX901blmQgr0G4mO/wWV13H97ywvVUf6a6v/dcb617rOc7XddlSZJlaCJk328eD9uiEoBbP3ZvacA/8OQ7LdkhJZmcwUHG/N8rj4BL8R0aKjB1a8uA7CJnqJkmd8LM1DSyU8f4b+2vL9++fv9+9f0/G8c7vAd4ulTexZ1JbYStzclff/31iyf885/fvn348PUKw7n6umE81gR3dElLUQP6t68fwvp6FdZShbg03uE1rqFwu50op9wcW2NfPsQUIlxciMvj0dng+lth19BAx23vzzhiCDLVGF2FDhegTTZrz3Z5bdkAQaD9LULkqmuCsbYaHC1AWQbm1q9LiCLieor+LUZ0Ob/G6+nqbLQAyWZ0pbbLAnQRuybQfvmWwvjhw49/rccU4iMVVNN3XIBUubkGTCMd8fcXI95hOwJO2zsvQFc1PC7ChMbI9D8vQ6R8aG7th++AHDrCjfG/qcX4sD7i9Z1E+XZ3ZaBADjQB1NOK8du6iNc22eiA9F2N8UnKlRXcD/xXMPr7iGtV1GeD1k9tuKcGyGts4mJEaZ3qyojXd2S7FUTdfZcfU66tQMKYXI7/WQXx+pnujtKU8l7bX1g3RYVMp34RmnFEP1bAc4sPtXdwu9wqcgApR637d0JlXaox3t/pMsHTlHnnFTS/qJwi2UymoXkC5I/DVMbrO4MdVULzlc7y7FI3M3IWiiQRz4YFxfh7AuP1M3HMkb1bJlKKBWvfHGkaDLvkUBk0kT7/5e8vUcxYVb2+f7YN3d3gh+smmnVea+lxsoZdXJKQ3AqDWe3//b+///7x49u3b5T2248Hl+sZFxt1Z8nuxkeEzPLwlXUtKRqMa5iSXoIDZeqhCuT55fwjdBpS9OKkY+070asqZ40nZUg3e4oO9RHXHPHM6cX20HnJRU771sAZF2pdc8pvV51iwXm5PRw7ozeMFtVgYLGNq4Od3hCfKVOmTJkybUtOrTizthf9aNIu7HfI7EyxTa1sbQrgTDU8Mdkr4pzYmdt7pU+RRL/GrVybU44a0i88Fp4SPb25cvWr4zaZhF0Qbi36pZKQEb4w+oxw+8oIXxp9Rrh9/XyEuQEWZ0SlEkYDp4l4biwrav2tRDgYOY4zepEB6bTnOoQmBN1igZ1pTyS0xrUuwGGh3q1xZ8OFynVqXUguJkOmXg4tUggIO/P5RJBrTq2r0UvXtW5t4TJOzinUivN5O5wb1mwaXG1OXO7U5E8gdLpT5HlGiWUOxskPtWpTFDhRIZrWrBTCtoLjM6MpLijcnQI4itTZTmdOSMj+ScSlatCectcSUGnEIBYSOnMl6vdFIGH5djBTohFDxd9LEiOs0bsrInuCxyaKRGEqXDaFNdaD/ORM+g6MXqpAA8ytgzghXQKOSxHuA3XMKB+N2LsdKEpYc5MR2pFoFaN8lFE8IbHI2m0QyL8LrK0I4iCPRuNulNDqijKDRAfjSy2ThIi94+YRQgYIptzNFh1hfvLZxKmDQoG9XMiVg0zCldfkXzTgPpIjHHEPJGG5wDB2M1UtiNjUsPzAYsIyA+TfcFGYco/jo8DB5tFawwUGdOdDLhwxZla6tcmkXdMjbScgHPlphopWnE0msyLi6r0lBoSKPisMh4VJmV0x4l21HSL00mEWg5QP/UqgKfP2cDyclIPnmZHDegU/sIn7XFD03CMzLx1IH3vd6yjc8fiEA+B1oNOaw/6e3JzqhevyuTrxIlaKfs8xGGqKaU49nwFP6ANykThezKbirxXnOl2vHmmhqfMwCDxzcsGCyZh9Ds1QbziYce3bJ5wzbi2888zRzfgjHT/icM/oTCZ+g+UIiwLAnBcFCg+RTpc9j9+C6udGZOPtwLtaaB41Fjpc62SEQ/ZR7DWnOa9CBv18TmeX/nRTrJCAUAR4UHNBoB67U4flPwycWDk2PkMY2ZbTNgX1y9VN0OZcQi9LRceNJ94jvQ9YbqQCeoQzv4qGgrMEQCCIouCmOxgzJqxTjJ7O8IpQeMu+j8gIC24k4pf5tCNDmZcblihwhLDsDRMw5Fgsw+S0MULfiTVgz9OigVmiE065jxFP6CYHAF0Y1vU7+oXI6vgCRyGL0jcAQ4AjJTltXqvw/ZysCOO3mXXTZ0csF93f3yiRphYWy0V0w/0lTMiNCKFXVcI12m1AotsRc/4AZ3p/4YJosQtNvVQlbfxg2egSTtwnJt5L4abItZRce3bhobMQYfSotplUhAOvSw+OBrNxOn4nrVuXUl6UMOfK2C2W5GsbLCWIjD1x0RsmecLojResyoDYH428IZ8zooa0UM34ESK3vaacIXb/khJ6qUmeJ7nZQQO4WbfwFlyOMHbYniU65g/veKaZxg1wM5NrIbxmNE0p1y651dQl5IpILLea0mUcN3kLr+kICOO3CbBER2dlvmmG+AMZrNnHe90a/cU0JQkBodtmBRXBl4tFuzO3zS68sconhGYscUVho/BNrfChNlp9RK9dddGVlCQEtdRtZmnLUO7gQhuH23kvfJdNUIbxkG7vGJ6v5DzTJ3K2O0cDi+oX6zxSkmDuhFBUMxgh380PPHs02nXkukktqLxcLaXNndXSlM4jXkuXLkOBIViMleEIxjtRFk8iIetpkhMyChof1yQT1A4aH+tpFl3WHNRSJYbYjvbz/mzfBFY0nkTCwqKEuCmlVTPnZl/KEOeOFtQydGiF1RYt7nKjRQzRrfNB/fWnf1oxNmAlE7rDVtzW8cV3aOznxI2vbkMFdJZiLTIlYoSxeyHYQOXlqO9LEr0RL5mQJSrRemS/d3t9t/dIbogT3o4E3B8uRxhDZDMLZuf6o4To+cmEB+4TEs8Tu+MlcD20bBKd1EEyG5fVzHbQCS9LGEXk7OCB7+ATX5CRQshmT6I55oHXmrwRgiUn6TYqbzZn0f8tmIgICSOIFvKyP+hEE6ykFEIWiym8wH3AHBFeXWPZIb5IxZvTe0/xnBipAwYj1KEQ0XNiDH1TGyR0AimEzPoTNl/PkvYLLTdNrilO1FEzXsWLEXiReMSRN29nvzQT40oj9NwYWswpn/MMiMARUfAwYoNXx/OKBQ/pskJMGxR9P40YcRZy26KUVyGnEPr+M7Mbcfp5rlHe3Oh6nxXDuel77zm3jBP0fqHMs4a+W5bztfmePR4xxy8goDYXRXtZq42oyDIKKuUgt29qXt0P3TXpu7yhOfFZ3HehxevvzPtUA8GiIY4YIT8Y5y8NSpGLw/+QG6Vy4yJCZnhqkU6Y89s5RGA2dhxnPAtWqCAMFcDYf6SJ5pMODjwsm37giB/VjxhoWndWGI+HNeiuA3oeMd7nHSBy5RM46gGYtwvDQrsI3ceFLq1JJzywuFMg9P1J3P3sscYdLCTQu9tDF4ZH7yEZcBHTMyV+WOHKTFCtOURu9YqszAQrQSEv3gJCjCha5KPRFGO9F4cYUbz/sfSEiMVrTwEi99RCwvNCVsoiwoPBXLQISQ7+CwJ3You6VKZoMM4JVzcDY5PtTfQ6Sa+ihmZ/HSR6nqnxrWchIZlDxNY9IeqK+/lBObwO6fIl3EMiiBgHtvyUkZiC+cONO0EKz29z7RgjROVw5XK9GKkvnhlMIB8PNJV58sFqp6zw9/VDhJJfWReJmLzqndsjQdcCONNuROONvsfJavNx4LQVo/WFxrNoJ26uM4NTxX1T27Q7SZ+8WoWionhvtyunH3MNRxw+VZmbT5Up3wNbXQVN43mL4zCDtMWzc0D+bJk7lAc3TqfTWfKUmeXgwI5jLRN2cNPpjIURWzeR7HGSDicOnA55i1xCbjqdl739KVOmTJkyZcqUKVOmTJkyZcr0mvX/zqwQsSgArU0AAAAASUVORK5CYII=;" vertex="1" parent="ZeIRM3MsorT5oSY9BgfP-1">
          <mxGeometry x="490" y="265" width="50" height="50" as="geometry" />
        </mxCell>
        <mxCell id="SGRckXHp4SgFhIehkKiu-2" value="Rest" style="endArrow=classic;html=1;entryX=0;entryY=0.25;entryDx=0;entryDy=0;" edge="1" parent="ZeIRM3MsorT5oSY9BgfP-1">
          <mxGeometry x="-0.0402" y="7" width="50" height="50" relative="1" as="geometry">
            <mxPoint x="264" y="193" as="sourcePoint" />
            <mxPoint x="470" y="192.5" as="targetPoint" />
            <mxPoint as="offset" />
          </mxGeometry>
        </mxCell>
        <mxCell id="SGRckXHp4SgFhIehkKiu-5" value="" style="endArrow=classic;startArrow=classic;html=1;entryX=0;entryY=0.75;entryDx=0;entryDy=0;" edge="1" parent="ZeIRM3MsorT5oSY9BgfP-1">
          <mxGeometry width="50" height="50" relative="1" as="geometry">
            <mxPoint x="260" y="223" as="sourcePoint" />
            <mxPoint x="470" y="222.5" as="targetPoint" />
          </mxGeometry>
        </mxCell>
        <mxCell id="SGRckXHp4SgFhIehkKiu-6" value="Jms" style="edgeLabel;html=1;align=center;verticalAlign=middle;resizable=0;points=[];" vertex="1" connectable="0" parent="SGRckXHp4SgFhIehkKiu-5">
          <mxGeometry x="-0.099" y="1" relative="1" as="geometry">
            <mxPoint as="offset" />
          </mxGeometry>
        </mxCell>
        <mxCell id="SGRckXHp4SgFhIehkKiu-7" value="Polistlot/Rasberry" style="text;html=1;align=center;verticalAlign=middle;resizable=0;points=[];autosize=1;" vertex="1" parent="ZeIRM3MsorT5oSY9BgfP-1">
          <mxGeometry x="100" y="140" width="110" height="20" as="geometry" />
        </mxCell>
        <mxCell id="KL7NxwYfk8QVDAIgyPo4-6" style="edgeStyle=orthogonalEdgeStyle;rounded=0;orthogonalLoop=1;jettySize=auto;html=1;entryX=0;entryY=0.25;entryDx=0;entryDy=0;" edge="1" parent="ZeIRM3MsorT5oSY9BgfP-1" source="SGRckXHp4SgFhIehkKiu-8" target="FTRFFoOGFY6cm967lcTG-6">
          <mxGeometry relative="1" as="geometry" />
        </mxCell>
        <mxCell id="SGRckXHp4SgFhIehkKiu-8" value="" style="shape=image;verticalLabelPosition=bottom;labelBackgroundColor=#ffffff;verticalAlign=top;aspect=fixed;imageAspect=0;image=data:image/png,iVBORw0KGgoAAAANSUhEUgAAAOEAAADhCAMAAAAJbSJIAAAAhFBMVEX///8zMzM1NTX8/PwxMTEuLi4qKiomJiYrKyshISEeHh4bGxv09PT5+fkiIiLHx8epqant7e1eXl5/f3/m5uYXFxdZWVnNzc27u7twcHCMjIw6OjqgoKDT09Pa2toNDQ2FhYVGRkazs7OYmJgAAAB5eXllZWVNTU1cXFxvb29HR0ebm5sSOxEhAAALGUlEQVR4nO1cC3eiOhBOAoS3ikK14gN1tdu7////3ZlJQNzSh3sbvcedb3v2VChJJpn3DArBYDAYDAaDwWAwGAwGg8FgMBgMBoPBYDAYDAaDwWAwGAwGg8FgMBgMBoPBYDAYDAaDwWAwGIz/FTwPfnJPwI+T4XP4oTmcDP+1NVgqXQ1vxr4jgUIUG9hnzxGJNHC+KZwM/jVkB6XqhcM99sSiVuqQOZvgM8xS5ct47opNYdh5LH2VzpwM//ns+bJSylf65EpSYNSThhlUtcxvr25gwlUMs0sVTR1OM41gBl/Fq3so1EUi4QilSpYOJ1kmCthUyWThcJJ3sA6RPqn0U+FQ0xRPWkmkMVw7m+QdZE8B8A8QGBbCobUQRahpnuDptgo1F6cQGFTKYFdasy/WzXRVfIPOAapW02YtrLEvdwFwivTDE8x6I3hopiogD6DnwmrSsR8HyfQ7NjqbJkHsj4Udea5pJlUtaOabADYWzQRqmT3NioYLLIdU6eEbhj+kMJKqyMzivz1pG5DF8nYEimfcV9BwB6PEgUBcgfLD4zeMfwxpLDUngmCCQ4ICIfXz7VzU8Yh4NPqZGedbFArsFmx8+B3exwy0NAwWqcwMLrKfEfHpaPwNo38J2U6iGZZJicIPjJSB64Eaz0825C574mqR8cyD+OwmQSWmwFnKaJRclHCIYJnk7lb6dJKiYAT6l7CkHBL4CJwVgl3OaZXe1Yovt0TCcws4RBjPRyEwU/zSAYp9OnFCTx90LsUOmUgG09zOP44V+Vbp3p5dMS8wfL1q5JyeMs/vU/IHVTy2e5hPAxRFtSu6VTgDjH4ISfDT1ssogGl99I9XVvstpa4nV3oBnjeptVxazbxCnx74ctfGhuuUVFt4uIWy8aIAt1MfDT0CVZ2UtR9OjRciGpSa6lqtMK5Qshs7xjT0axg1QetDNB/Re1NB5Jo+HH9SGctQ0gUwFBFtb/BSkHPjLVPgWT96vXjMuxji7VUhXiMQNJUujZ4qXogtZdQGn6WxINVEOD5FDzwO8qJGM2F396RR88nUOiETjSuRwaknhx4pnmyzXx5fT6/H5X6TkWrpLTU/BSjKSk+si5TSqBB8Wk6ZjchLnGbO2XQeK5pqYxe43lIMFS7N583W+FiXMRXcWjf/pGkc6kCHcZr+A47npaRinITYbszfL0OKm7Zr87y3oY1V8dwxfSgQSKCe2eXlz5FPHrjRcsBdZBiDlwvTlY+n2ih8+oemRk/HF9o2ewnotuF21F9Ikh8927/yZhpJRPF3SyJMjFy4HduYaUMEy2RixOqQkMMaqLK/jvKYRhItCpkZ+1uUHsve33ilCsj9TA5GRCcJybemM0WbtEUuDnZuU28QVJDtC2qzk7l4DlHq5NT4b+uRJWDT7TTsw+IHcpy8BHL2j8WZVcGXsVswWhtfbUqeU/hsnAdP1AHZSJe5PVxuo3Fx4cGuqqxRA8pqb7K3zxiuBv1AB89V0ya8AWaxOvtmQzIkQj+bTPC+wqH9ug0pwA7DNunGbcYmr2n3o41d1j5EK6UCE+fMt+Q+QoSRnylsRr5xY9/QB0ONmjOFOUQVeLhqOzcxWYAEy3Bv/2QTESfUbgPhdWIcNqtHvBOpj3hlLMJrgEuSL2UvFX+IBw+wJTNuI0p8pHzBa0HwaizJKialdLJDZcZ1S9xmbFYJrjdsTUEBRgoVD4UUAhU60FvtxTl1szDWUloqlez/ShbPZtHoiX1FxxTY8ci1kKNWtyyRYfxk5ZRCCn3rqjVKe9J3GJriIcxC0nZPljpcZPmD/Esy5r6vk2D3sgsSDW6spKOFX36U3X543hOmDjHM9MxspKf3djYQAhsIuwOZO7B27a425ITboMbTPqnCVm5QX0C8jvSB8oWlqeO4LIqiHB+VJvElGsNjV70CuSZl7GvzeZKSu920s+NmocF0SOHGGOX2lLInk60xcocGC27vOr/KxlW4ZND0SWM8WfyvBO8crxH1JkYy97Idne7WhE2lydDYRCKcsHEnNg4pHIckOq0Ybmrjc1Okj2KCUrMU5zPEpDyJG+w++q1GDeL/Y2RQI5bRtDtDcNZQsknQMbo3/nfdkrQkoQ5dJjMmI1xVaL1jMcdgHDw42nBQdUhKOD/z3FqT/ScDP7aXPUvK2LgAeFuvz3syN7ZlmhFbgKeGqYNO7EPclZHLSB9mxAx7u4mrEKUmNpqgpGSUfCnORrzRrdpM3u47RQ8EfTaKIOmkZCPj0O1j/BC22nNMlQTtstiGxS5S5gYzTWHFmBY3pwRcODvn+HN0nonCqBkYrIkshcGuNeLw7AytvhqZVOKYAoyOJDJHVM5zhl1EwUGrzKhs0hJMnjLp1ZbCTaUMK/oDyVxMK1sPVVWb7iLpT/LkW5Kw+GNvFzR7tHNIocQZ/W7Ld6gI/NrwZUObX43PtOxbPmzt228k0nEhD6f788Ux1QvQQiDPotsLZ2zv5jvcsUA6o88TWI6B2K9dLoVExGPAmc+UM92eowrQizagSIbiAYxT7CGOlueLmy3lSp9JMSGfY6DV3oUYEos07qILj7J8Ucs0XkzGwn6kcq2sepHvMTRHqIKhigOwaWDv94sBWSV7heUnMhdx+/RTRFlLd8FFXiFJXVk7J5FpCcbUOzDc2fP3XrU1Fe9ErZiGJIOhX89rzom1o5/m0xPl87tBpxHerBxFFx7tb5/CzCym3W6aPenl0k5WlcqXwTKxV7zY+134gFcpeok6xqBtaxnDUuguuf/gZyj+Ajn8oi7t0OnSwdzKoC7FdCTuog2R3upSMj4OMzXWHrbndLaHorWH25579gf2UGCEYu2hGLKH4EP47uxh69PU1/o08iqfBl3Ru/k0nV9q1jvkl/ZSYdf7pZjMa/1SxIBfKt36pRRbyHdii8DGFr00WxdbpF+MLVoLYnXTnrKzF7EF8bw72PiwS5y8iQ8pn/tZfGgyAsPx4XpEGedzfChvGx++H+MLG+Or0bIXsQ/H+JRafTfGVzbGFzbGpwy6wQ1i/M/zND1N28vTBKATv5CnwSYIX/6ep5G3zNPYXJv/Qa5NDufaVC/XtjgqLIcO59rkfXNttlVoO5wvPVKBIpgO5kvlRb5UvpMvnVKdtC2hYb7UVzfNl36Q8xYm5y3bnLc9yK/mvM057ivD1Ha8e+S8P65bYKUaPoPBOBcuvli3wAfQVGDOGyvkA3ULbDmRzusWn9aeENSm0YnWF2tPnmm4QLxTe1r7WEN1XHv6uH4I8RJYh9r/D/VD7DGJXofrh7+oV0E3TsuHH9aAAevYkFL/UQ24NoTHhg2HasAoEa47vnt1fCLitzr+kuRURvUf1PFrcutlsjQnelHH925Vxxef92KQIfjTXgy8d+9ejHM/jfemnwY/Yj8NumPp1f00aa+fRrzppxG366f5uCcK/BDt19QT1Vv/F3qiPNMT5WvrVt+rJwoH/6yvrUnJpl3d10b5grS5d18bjv9pb2IMp7G9VuUttnDycSPu3Jto7NvH/aVe3khdr67toPVWtZaNfWXU9Jf6d+gvtVruox5hPIFyXoor26Bz+5RpybhnjzDiwz5v0+Z99bvB+M6vffiufd4GLnr1jbhd9upTKqPr1Vc37NV/+75F9ljvW3iP/87MX/De08O/u/be+4enR3n/kPDo75CKv+A94Md/l/vx38d//O9UIDz092IQHv+7TR7/+2mssXcmIt7dv2PIe/zviWIwGAwGg8FgMBgMBoPBYDAYDAaDwWAwGAwGg8FgMBgMBoPBYDAYDAaDwWAwGAwGg8FgMBgMxhD+BbrZq2FcncqKAAAAAElFTkSuQmCC;" vertex="1" parent="ZeIRM3MsorT5oSY9BgfP-1">
          <mxGeometry x="160" y="90" width="30" height="30" as="geometry" />
        </mxCell>
        <mxCell id="FTRFFoOGFY6cm967lcTG-1" style="edgeStyle=orthogonalEdgeStyle;rounded=0;orthogonalLoop=1;jettySize=auto;html=1;entryX=0.75;entryY=0;entryDx=0;entryDy=0;" edge="1" parent="ZeIRM3MsorT5oSY9BgfP-1" source="FTRFFoOGFY6cm967lcTG-0">
          <mxGeometry relative="1" as="geometry">
            <mxPoint x="518.75" y="177.5" as="targetPoint" />
          </mxGeometry>
        </mxCell>
        <mxCell id="FTRFFoOGFY6cm967lcTG-2" value="Http" style="edgeLabel;html=1;align=center;verticalAlign=middle;resizable=0;points=[];" vertex="1" connectable="0" parent="FTRFFoOGFY6cm967lcTG-1">
          <mxGeometry x="-0.2978" relative="1" as="geometry">
            <mxPoint as="offset" />
          </mxGeometry>
        </mxCell>
        <mxCell id="FTRFFoOGFY6cm967lcTG-0" value="App" style="verticalLabelPosition=bottom;html=1;verticalAlign=top;align=center;strokeColor=none;fillColor=#00BEF2;shape=mxgraph.azure.mobile;pointerEvents=1;" vertex="1" parent="ZeIRM3MsorT5oSY9BgfP-1">
          <mxGeometry x="260" y="10" width="35" height="50" as="geometry" />
        </mxCell>
        <mxCell id="KL7NxwYfk8QVDAIgyPo4-1" style="edgeStyle=orthogonalEdgeStyle;rounded=0;orthogonalLoop=1;jettySize=auto;html=1;" edge="1" parent="ZeIRM3MsorT5oSY9BgfP-1" source="FTRFFoOGFY6cm967lcTG-6" target="KL7NxwYfk8QVDAIgyPo4-0">
          <mxGeometry relative="1" as="geometry">
            <Array as="points">
              <mxPoint x="570" y="180" />
              <mxPoint x="570" y="35" />
            </Array>
          </mxGeometry>
        </mxCell>
        <mxCell id="FTRFFoOGFY6cm967lcTG-6" value="Equipment" style="aspect=fixed;perimeter=ellipsePerimeter;html=1;align=center;shadow=0;dashed=0;fontColor=#4277BB;labelBackgroundColor=#ffffff;fontSize=12;spacingTop=3;image;image=img/lib/ibm/applications/microservice.svg;strokeColor=#000000;" vertex="1" parent="ZeIRM3MsorT5oSY9BgfP-1">
          <mxGeometry x="477.5" y="177.5" width="82.2" height="60" as="geometry" />
        </mxCell>
        <mxCell id="FTRFFoOGFY6cm967lcTG-8" value="Local Storage" style="aspect=fixed;perimeter=ellipsePerimeter;html=1;align=center;shadow=0;dashed=0;spacingTop=3;image;image=img/lib/active_directory/database.svg;strokeColor=#000000;" vertex="1" parent="ZeIRM3MsorT5oSY9BgfP-1">
          <mxGeometry x="566.86" y="260" width="58.78" height="43.5" as="geometry" />
        </mxCell>
        <mxCell id="KL7NxwYfk8QVDAIgyPo4-2" style="edgeStyle=orthogonalEdgeStyle;rounded=0;orthogonalLoop=1;jettySize=auto;html=1;" edge="1" parent="ZeIRM3MsorT5oSY9BgfP-1" source="FTRFFoOGFY6cm967lcTG-9" target="KL7NxwYfk8QVDAIgyPo4-0">
          <mxGeometry relative="1" as="geometry" />
        </mxCell>
        <mxCell id="KL7NxwYfk8QVDAIgyPo4-3" style="edgeStyle=orthogonalEdgeStyle;rounded=0;orthogonalLoop=1;jettySize=auto;html=1;" edge="1" parent="ZeIRM3MsorT5oSY9BgfP-1" source="FTRFFoOGFY6cm967lcTG-9" target="KL7NxwYfk8QVDAIgyPo4-4">
          <mxGeometry relative="1" as="geometry">
            <mxPoint x="830" y="207.5" as="targetPoint" />
          </mxGeometry>
        </mxCell>
        <mxCell id="FTRFFoOGFY6cm967lcTG-9" value="DataClone&lt;br&gt;" style="aspect=fixed;perimeter=ellipsePerimeter;html=1;align=center;shadow=0;dashed=0;fontColor=#4277BB;labelBackgroundColor=#ffffff;fontSize=12;spacingTop=3;image;image=img/lib/ibm/applications/microservice.svg;strokeColor=#000000;" vertex="1" parent="ZeIRM3MsorT5oSY9BgfP-1">
          <mxGeometry x="630" y="177.5" width="82.2" height="60" as="geometry" />
        </mxCell>
        <mxCell id="KL7NxwYfk8QVDAIgyPo4-0" value="Identity Manager" style="shape=image;verticalLabelPosition=bottom;labelBackgroundColor=#ffffff;verticalAlign=top;aspect=fixed;imageAspect=0;image=data:image/png,iVBORw0KGgoAAAANSUhEUgAAASwAAACoCAMAAABt9SM9AAAA9lBMVEX39/dNTU0AuOOenp7g4ODU1NQAiqqRkZHt7e0zxumsrKz///9JSUl1dXWXl5cAueRoaGjJyclAY20/Pz8Ah6ZKX2U9PT1EVVpERETn4uDb29vAwMCpqamWj4ykn51OSklTU1OAgIDOzs5PRUAowueJzuEAg6a0tLSyq6mLi4vq6upgYGAEpcs2udgErdUFlrjG2+B3yuFkn69vm6ctbX45qcQeeI9Fb3o9W2MPgZwlj6tBh5kzZXM8nbUanL1jxuKNwM5irMGq1eCk1OHV4+aXxdFvscTI2+CEyNuQpqt8q7iDlJmDo6xVutQ8kqqQnJ+YrbJCg5SvxnAxAAAHyUlEQVR4nO2deVMbORTEx4M5xzBca8yxGDAsLDHmDAuEQDgWNgmE3e//ZdYGH0+yeiyBjEri/f6ijEOVunpeugfzJooYhmEYhmEYhmEYhmEYhmEYhmE+JIklXJ/jPViYHLfCquuDvAPJZKlgheJY8N5KFos5SxRGXB+m76zY0ipXGg7cWslAyZpYueKC6+P0l+0Ze1rlCuNBWytZLVgUK1dcDFitZM3adH+msOL6RP3kk1Vj5XIzS8FaK9m0ObGeKQUbH0Ys+6oh1p+BWisZthgbWswEGh8W7E73FwqTQVorGbd/FdaZCTE+WCyFIiuuT9YP7JVCkVJ48cFqKZTU2nZ9ONtYLYWSWKHFB8ulUGRm0PXxrPKmUljuoH5DYPEhQaVwjgCkyP1GUL8nqPiASmH5aKhD9S+lEpXdUQJQdMX1CS2CSuEc0WoorVVUek6nKRHrs+o99Rk/EIy1UCmsHHekmq2m6bHCNpVqGq8TtdT2Cyg+LICL8EQwVpzGivccpXFMrbUDrLUaiLVQKaycEmPVGqKcdSlRbrwuWOuLWq1A4kOyCIx1Tny129AkTk+ki6xy9vx6TGe88ocFEx9QKZwlxnqWJE4vRNuU59LmN4hYX4G1QogPqBTS2FCf7k1RjgRrVS6arwsXIghbOdcntcD2jPKTCmUhNjQlidMaFaJ8nra/8SHiQzLxaVLJqcJYdVFOK209S6Va+3UxPlRU8peKedeHfTPg1y97f8jT/YXLQQJ5XZjxU2rW6L9931PaYQRwJsWGFrf5DvM3RCxqrY3B3rg++GsAWn3rGGv2gmi1MZ+naq0Da90HKRbQals13Rv2yQvMX5Pv0Rl/GaJYQKvoihirSox1PS+pdam+ENevP45YdLoPEa12JK3y+VtgrdHwxELT/SuY7nuyVvn5fWCtm48i1jWIDftdxqqD4kNoYmlM99mYiKGQSowP9ELc/xBiRXdasUEZH+iFuBeUWMBYt+RugxAblFrl83uviw+uT28G0Cq66oiVGRveGB9cH98MIBaKDZdAq9fGB9fHNwJoBUvhPdIqP78BrLURulh/m8QG1YzXrYiuz28C0ArFhhRLlVERs+KDawEMQNP9Dkz3mwxjZcz4jPjgWgEDgFj3YLqj2NDi3jw+uFZAHzTdvxJjZZdCyVrmFdG1BPoArVApxLGhjXFFdC2BNshYOveSgbXQHWY4411roA3QSu9eMlALVMQUzXjXGugCtIKlsLdUdbFARYx3/BYLXYSmpVBSSxkf6j8GVETXKmgCtEKlcFRLK3VFbFyb6z6LhYyF7iXjUihZS1ERn7/+JzyxXlMKJbriw8vQT/0VC2j1qlIoWetavhCbXytzvGsddEAXIbqXnF0KJbV2xAux/WNU8cG1EDoArW7pdKdHNtBKvsPcSV6q+OBaCA3gdAexoVcplKwlVETqTy/FWlwaU7FJis4ubSvfB0xYPiD+JJqnVxMyPnyybUQt1th3Ot2JWDvLJmI9Ea3I/6hp7fdhmQkPxIrW1Gpt/SLTnVrrh4Fay786WtGolh56Kla0qbbWEs3u9B6LgbEeiFbUWJ+7tfJErDyw1gExBL0Q7/StRQbfEI1qP7u18kSsBMz4sTMyaeiF+KR7ER4SY1V7GMsTsaJtINYDmTTUWo+a1qLTnRbxWCGVN2IlU3DGzyr/COBBz1houh+ojOWLWFGkdtbYvyS7m8eHn/qxwSuxBtGMJ5PGND4sg/v3yunuk1gwPpBBYxgfhOl+0Wu6eyUWig93ZC4bzng63anmwFgeiYUq4pZ0j0W7ItJSKMSGK2Asn8RCFfGBiGVirSe1sdIakMorsWBFfATWyp7xJqXQQ7FgfADWyp7xKDag6e6bWAvAWlep2lqZFdEwNngnFooPYyg+4IpoHBv8EwtUxK0f5vEBxQYslW9iobsPxvFBmO7VnqXQS7GiCMQHNONRRQR3G1Ap9FQsVBEfwYxXxwdYCg+ztPJOLOMZ32u668YGL8UyrYjK+EC0Ev6ELCM2eCkWrIjUWtl3mM1Lobdivb0iglKYHRv8FAveYUbxQb7DDGMDLoXeimVeESVrGd5L9lwsFB+ugLXEGW96L9lzsd4UH15VCn0WC8UHrYoIp3vXh2YaDA979imaLpJVsEmyqs7xX+gCrc7aKGG6H4HVrv6vhAIbqMsnSmvtCMvGppWlsBrssjG4xq61+1C0lriGtNyyljDdp8NdY4cXJNLy0tRK3lDX2mRKY8MFWJC46b+x8OrNynH3hSjvPiwfy6UwjeeUPy2U1ZtwqWtNvhC7t2rOdcWGU7TUNQyx4Lrgc9laivccibFBXDfZIZh1wXgR9YVorf9UppnVig3hLKJGK87bC25frKXcMV2PDxrTPYTY0AItz6/Hhw7rYHn+cUzeJC9fbrLi+oQ2gY9lmCagxzKQtwCtgtir3AY+8KPc82keGu8JJTa0QBXRCoHsgu+w3T+xwokNLfjxV0b07cFqAcWGFvzIPhP4YZAm8GNGDUgm+AG2+vCjkQ3gh24bwY9z1ycZtDvjCyuuT9RPLFfE4lS4xoosV8TCeNBaRcmSRbWKocaGNvYqYmk4bGNZrYiFgGNDk2S8pHzSmjHFIH4F3YOFyXErrLo+yLuQWML1ORiGYRiGYRiGYRiGYRiGYRiGYd6b/wGr2XXlwpZxrwAAAABJRU5ErkJggg==;imageBackground=#ffffff;imageBorder=#000000;" vertex="1" parent="ZeIRM3MsorT5oSY9BgfP-1">
          <mxGeometry x="610" y="-11.379999999999999" width="165.64" height="92.76" as="geometry" />
        </mxCell>
        <mxCell id="KL7NxwYfk8QVDAIgyPo4-4" value="Text" style="text;html=1;strokeColor=none;fillColor=none;align=center;verticalAlign=middle;whiteSpace=wrap;rounded=0;" vertex="1" parent="ZeIRM3MsorT5oSY9BgfP-1">
          <mxGeometry x="820" y="197.5" width="40" height="20" as="geometry" />
        </mxCell>
        <mxCell id="KL7NxwYfk8QVDAIgyPo4-5" value="Funzionalita:&lt;br&gt;&lt;ul&gt;&lt;li&gt;Autorizzazione e Autenticazione&lt;/li&gt;&lt;ul&gt;&lt;li&gt;Supporto AUTH2&amp;nbsp;&lt;/li&gt;&lt;li&gt;Supporto SAML&lt;/li&gt;&lt;li&gt;Proprio modulo di gestione della login&lt;/li&gt;&lt;/ul&gt;&lt;li&gt;Gestione Equipment&lt;/li&gt;&lt;ul&gt;&lt;li&gt;creazione/modifica e cancellazione di equipments&lt;/li&gt;&lt;li&gt;aggiunta di sensori ad un equipment&lt;/li&gt;&lt;li&gt;gestione della autenticazione delle device 1&lt;/li&gt;&lt;/ul&gt;&lt;li&gt;Ricezione dati dai sensori&lt;/li&gt;&lt;li&gt;Visualizzazione della sensoristica&lt;/li&gt;&lt;li&gt;Data keeping&lt;/li&gt;&lt;li&gt;Dati storici aggregati&lt;/li&gt;&lt;/ul&gt;" style="text;html=1;strokeColor=none;fillColor=none;align=left;verticalAlign=middle;whiteSpace=wrap;rounded=0;" vertex="1" parent="ZeIRM3MsorT5oSY9BgfP-1">
          <mxGeometry x="110" y="500" width="350" height="20" as="geometry" />
        </mxCell>
      </root>
    </mxGraphModel>
  </diagram>
  <diagram id="QcAIyxr4e-OprOJ2OCqO" name="Pagina-4">
    <mxGraphModel dx="2278" dy="2164" grid="1" gridSize="10" guides="1" tooltips="1" connect="1" arrows="1" fold="1" page="1" pageScale="1" pageWidth="827" pageHeight="1169" math="0" shadow="0">
      <root>
        <mxCell id="hP9i1joXD9U75TtHQduj-0" />
        <mxCell id="hP9i1joXD9U75TtHQduj-1" parent="hP9i1joXD9U75TtHQduj-0" />
        <mxCell id="efUQGsohZJ-c-NTUhMi3-21" value="" style="rounded=0;whiteSpace=wrap;html=1;" vertex="1" parent="hP9i1joXD9U75TtHQduj-1">
          <mxGeometry x="280" y="-160" width="370" height="150" as="geometry" />
        </mxCell>
        <mxCell id="efUQGsohZJ-c-NTUhMi3-12" value="" style="rounded=0;whiteSpace=wrap;html=1;" vertex="1" parent="hP9i1joXD9U75TtHQduj-1">
          <mxGeometry x="567.75" y="120" width="462.25" height="380" as="geometry" />
        </mxCell>
        <mxCell id="hP9i1joXD9U75TtHQduj-3" value="" style="ellipse;shape=cloud;whiteSpace=wrap;html=1;" parent="hP9i1joXD9U75TtHQduj-1" vertex="1">
          <mxGeometry x="-3" y="130" width="456" height="510" as="geometry" />
        </mxCell>
        <mxCell id="hP9i1joXD9U75TtHQduj-4" value="" style="rounded=0;whiteSpace=wrap;html=1;" parent="hP9i1joXD9U75TtHQduj-1" vertex="1">
          <mxGeometry x="150" y="230" width="200" height="250" as="geometry" />
        </mxCell>
        <mxCell id="hP9i1joXD9U75TtHQduj-5" style="edgeStyle=orthogonalEdgeStyle;rounded=0;orthogonalLoop=1;jettySize=auto;html=1;entryX=0;entryY=0.25;entryDx=0;entryDy=0;" parent="hP9i1joXD9U75TtHQduj-1" source="hP9i1joXD9U75TtHQduj-6" target="hP9i1joXD9U75TtHQduj-15" edge="1">
          <mxGeometry relative="1" as="geometry">
            <mxPoint x="237" y="302.5" as="targetPoint" />
            <Array as="points">
              <mxPoint x="187" y="300" />
              <mxPoint x="283" y="300" />
            </Array>
          </mxGeometry>
        </mxCell>
        <mxCell id="hP9i1joXD9U75TtHQduj-51" style="edgeStyle=orthogonalEdgeStyle;rounded=0;orthogonalLoop=1;jettySize=auto;html=1;" parent="hP9i1joXD9U75TtHQduj-1" source="hP9i1joXD9U75TtHQduj-6" edge="1">
          <mxGeometry relative="1" as="geometry">
            <mxPoint x="380" y="50" as="targetPoint" />
            <Array as="points">
              <mxPoint x="240" y="205" />
              <mxPoint x="240" y="50" />
            </Array>
          </mxGeometry>
        </mxCell>
        <mxCell id="hP9i1joXD9U75TtHQduj-52" value="Aithentication/RefreshTokem" style="edgeLabel;html=1;align=center;verticalAlign=middle;resizable=0;points=[];" parent="hP9i1joXD9U75TtHQduj-51" vertex="1" connectable="0">
          <mxGeometry x="-0.0111" y="2" relative="1" as="geometry">
            <mxPoint as="offset" />
          </mxGeometry>
        </mxCell>
        <mxCell id="XhQMVAEQTmFMAy6jW7Kn-6" style="edgeStyle=orthogonalEdgeStyle;rounded=0;orthogonalLoop=1;jettySize=auto;html=1;entryX=0;entryY=0.5;entryDx=0;entryDy=0;" parent="hP9i1joXD9U75TtHQduj-1" target="XhQMVAEQTmFMAy6jW7Kn-5" edge="1">
          <mxGeometry relative="1" as="geometry">
            <Array as="points">
              <mxPoint x="70" y="174" />
              <mxPoint x="70" y="180" />
              <mxPoint x="580" y="180" />
              <mxPoint x="580" y="236" />
            </Array>
            <mxPoint x="86.83999999999999" y="173.66" as="sourcePoint" />
            <mxPoint x="599.9954407484687" y="238.0807943173813" as="targetPoint" />
          </mxGeometry>
        </mxCell>
        <mxCell id="hP9i1joXD9U75TtHQduj-6" value="App" style="verticalLabelPosition=bottom;html=1;verticalAlign=top;align=center;strokeColor=none;fillColor=#00BEF2;shape=mxgraph.azure.mobile;pointerEvents=1;" parent="hP9i1joXD9U75TtHQduj-1" vertex="1">
          <mxGeometry x="37" y="140" width="35" height="50" as="geometry" />
        </mxCell>
        <mxCell id="hP9i1joXD9U75TtHQduj-7" value="Site&lt;br&gt;" style="text;html=1;strokeColor=none;fillColor=none;align=center;verticalAlign=middle;whiteSpace=wrap;rounded=0;" parent="hP9i1joXD9U75TtHQduj-1" vertex="1">
          <mxGeometry x="-3" y="310" width="40" height="20" as="geometry" />
        </mxCell>
        <mxCell id="hP9i1joXD9U75TtHQduj-8" value="" style="shape=image;verticalLabelPosition=bottom;labelBackgroundColor=#ffffff;verticalAlign=top;aspect=fixed;imageAspect=0;image=data:image/png,iVBORw0KGgoAAAANSUhEUgAAAOEAAADhCAMAAAAJbSJIAAABCFBMVEX///82RUgdkbQbgaU3sdkioMi92dcjgZ03qc4xQUQ3QEA2QkQgNDc2QUIrPEA2R0rt7+80xusjosGQlpdXYmU0qsgjob9bZ2k3PDw0udw2T1QudIUmODxocnUtPkE1ZXHV2Ng0sdI1gZXT7Ow2WGEvbX01jaU2LyoyXWcidJEse495goStsbJBT1I1l7AqhZs4NzS+wsPl5+ecoqPQ09Oqr7CEjI0WLTHGycpye302aXovXW0qcYg2IRI1jqs1mrs2KB6kuLjF5OdceoC21dUAfKMAJCkkmL4qZ32KxNRVqcLc9vaz3OOcsLBJWVxzlZxxtclrhIaHucSCo6ZMl7FRa3FTeoRni5FZYbpdAAAVoUlEQVR4nO2dCVvbuLrHUaEFeU2TkMUoxoCThqx1VgIcOO30DMx0JudM5557v/83uZIs27ItOwtZoI//Tx+gQcj6aX31avHBQaZMmTJlypQpU6ZMmTJlypQp0yoa/6qINJ3sO2EbUwcBkbTCvhO2MRHCSlTyT0Zo9KKy5Z+M8OPFRfWiWmVfqhcfz386wvPz6j9KjUrVOLv4x2nL+AkJb+vVT6WGXLXPLj6dXtoZ4dtSRvj2lRG+fWWEb18Z4dtXRvj25Vne/2SW9z9PL38yy3tMCE9Pq72Li161hL9XT0tvg7BQXE5zAIzTQHn6tbkmYS63aYwUtTW4lIhTRo1qXT9NWR9smiNZbRPIUlSYZsnP1iJsIzh1Nk6S+DRTtltR6bLdYOp7PxiyHgtnr0U4VHBuKcPNs4iFCc9PS/l8KV/C/9zvp4Z6/rFKfTHVjxfse1M2LvwgLNxa7XCEcG0AAO3K00oI80arUSmd2yW535dK9jkltM9OPxFfTOWy9Pmifk4Jz8/znxotOW/XS596Z8Z6hEUI9AddBqi9BRyBQoSg31c5ws9kzJPChJ8Z4ed1CTsKkB6OToydIS4m7EcJwYsIu1BuHh0dndgqQDsZTHdNOFJA5fGIISrjrTCFFSdsbpWQ9N1HVKSiTkdbgYo+cadl2AXS8RFDlAEE27dudkxoIVA5YYRHDxWgbb+32TFhB3mVlOheAsrNdrgC7ZhwYsq3AeGRLcPudrgC7ZiwDP1mSPRYAUpnO2C+dkuYm0N3rPB0rgK4JTJPOybUgRQiPMGFuOVpxm4JBxqQT45ChSjD8pbQmCihftb4TAilfr/iERrM8v58Wfp0UW9SwuZ5CVveUt5Y1/IeIKCHCfGIAbc7HaaE/V6pVWr085e9Xivfb+QJYa9UbVyUetVG/qJR7fWqmPC038+3Sr1LHISGX4NQiRKeGABtrppOiuWYugATliIy5PNqVLZsRMPlmzLoxqMsJs/84mWI+xpzczPFmsAng6fbcmwXiegzWbjbBIB4lFotMQU5E6iPYcJjCRbprwbWjeM4N9bgBYZcDQJZ4E2K+WlUsddJ6LuJhZOBOUsm1EElQoiHxO6o0y7qSFEQwl+0brlwsyZlDcr2WVRAti+j0mUjFs4AeiycIeuxcLacQngwh3j6GybEFcFEJgz2WeFagOBsrVlHDapnxCdDdJonvhYsWa1/jDS5j4bcPM0zeeFt1fDC+d/PVYMLQn88ratphDgJrTDhiU6oZFWSdN0wDDxgSiqBVuZrdEA4+npe7/elfPO2JOGB7dQ+I4RVu1GSL86aVaPX06vnZ4Twwq731N6ZnddbDbVUP88Twnq9Wik19GqzdVGh6xaYsN4s4SjVPB5J5MalvoCwYMp3MUJV0u/uj989Pb1///7p6d1x3VZxA4BKceVypIRqv/+ZJAcP3ZVTwyU0+qUKHvOqcq9XqTbrlNCo9+ioLlFroEkJYyszhNDOAxZlpdFSFxA6CBiR4UJVbx8IG6+na4MwopSYkgllntCOEUoeoc0I1aUIK0sSDsxoV3Ny/F6oYxtX1eRe+dUSHhShehsiPBIDvn9/rwJkvUHCMQLqUoBPqcPOKybMTUFohpgE+N6WAVrZYH0NhAcTDagniwHvJYBWX9p4FYTYNA1a4kkS4LEEXGPuDRIeFBDw7JpkQDz1X2dS9ToIydIMm+inVNH1nHCvhHBiAvD5MRnw6Y4ArjVpfA2EuXFXw/Ow25NEwGMdV1FzPTfq/gkHBR1BPON6SCzBY2KuaV1rLUCXUOr3P+Vt6nD57NuldI3QrkqN3ueqzdmldeO0Qn04LuH5LdlPIxFCdz8NJSy5pm7TzbRkwlxnruDyU6V6Uht8uJWpyb32pH+GCU/Per16/rKfr/caZ/lWg86e+qWLy2qvUb08Pb2sNnp09tTql+qlRit/1uidlfqXdPbU61VbpyUSpNq66PUJYamPg/R6ZzjK0hmOMoFwcFMoKrj4gCTfngSAT0/e93fH93eAzL2hUl56SmFFVSZlWKKL8eQL/akky/WYT8ZQm3k3iOeayZds2YiFO5cNsqTvRUl/qMuwxj905AwntbmmaBhPrRitE74XNXTDxsLTQndWCLVpbfkpUw6iiMg8Wo9qC5+FHqwgzSTuIFmqSPXH8Eh/TPwgsiy7U3sTKd3hKoPggHMM7FOyrKoVybCPg1mTN9LfYevazQbF7BbbzopjvIU8PxF1Le1HumHYd7eth7Ar3xv4JKBNOuPxuLOeh81SgP7uydXJ/nQUk2+rYdPFfMka8I0CDBaV4DH7U2CMquBlzmDiEvHi2jcVp2D0a0lg+qIlizGS7ddHyI3vBoCr+mHeACFvn714Ef81EvImmr3GyqFl8f8bai8k3Hz/9D5chKJltfRV/YHJI764DO2HxWGOjppLhYoBkiKcxxEm6XPLG0XjsqCDQJzwoZWSgpBObKlyuUwotbEs4NNduBXGijBXVgTUnGoQKGW//xWMFie3lcr9cnyXZD2t0lxQUxvEXK40H9NDuTG+f2dIuu/g1kG8CMfIBEqa4T0klwJApc3CjLBN88QTPt6SVEv24vQ81nWJGl2qWk9hfLArruVZsRsLG+3TPbGwJaP1xMbCSEeaG89p+pM3uefa7NYDE80LBJLYpT7hyUPdYOapLNnHKek5ebg1OENWle8ehKEfW4Yke6HwxNVuPaZlxi3LM4BD3r970sNj4cCZ6cidKUBd7KHJDTXTTxXUEJpPhhBIx+/ePRxf15tA4q1vWZKM+kMsQSePD/e2LEXtdPyJ3QpTPjZwgqPBVBzr7aUg2ofLphp5PD3HcDOi08fOsKYjFKQeoGJsmMw5M+IeCAma5G/YqrUMYlKlSkU27PPb29v67e1509ArlYowpJv6imo0z0nQOxuHlMThcKw4WhVPJ3BQHPa2aet4WigObbp3hyCkRad5EM8TraB8bwrF6a9T0b0jULBEH1Gw6WBBQC7wEiGl9GgJsCa8KiW4M+VXWBuOyMRjYI1Go5i7wnNayHfXTMf703VMzzJAhYREc+4PDJbSr9K+VZPvDj2925cO4xKNFGvpBgF974QCwDsZKItKZzkNFCDtmVDAd3i9wWMIGlCf94ooAtxcHT2gu/L22RCFfIdkbdfaFCG5+Wh/hGLAZ2mTR2VwQ1Sv94Qo5ju8loG5xtpuosiIuB/CBEDSCDe6YRbPNozDPSAm8dFGuNFt3WRXwKrV9PG3P/747XE7gHebP69W46vpUoi/X119+XJ19fsW+Egvs/I+rkXC83yJe8Ti5D1efVGU2dXV1dqlmAx4r25wJPSlg9UK8bevePLy1/erq982zUe60ZQJ/NrCfY26SiH+8QWPoXBW+/LHhvkI4AaHek4oVIgLESkhnoKuQ5jGd3iIo93OIfxIIS5C/O0D3b4Pv65cS9P5rnVcgts5w5WD4UJcgIh7Gg0h9GXVniadjwJu7dDvMDQmLkT8/fuHP//88H210WIB3+GhvNVLFOaQN2xSEA/vydfVR/yFfHhGuNVj2yNsf4fqqQjx+PjOkKS7lUpuSb7De9KLbvVc+gQP+6F6yiGSrTrX901blmQgr0G4mO/wWV13H97ywvVUf6a6v/dcb617rOc7XddlSZJlaCJk328eD9uiEoBbP3ZvacA/8OQ7LdkhJZmcwUHG/N8rj4BL8R0aKjB1a8uA7CJnqJkmd8LM1DSyU8f4b+2vL9++fv9+9f0/G8c7vAd4ulTexZ1JbYStzclff/31iyf885/fvn348PUKw7n6umE81gR3dElLUQP6t68fwvp6FdZShbg03uE1rqFwu50op9wcW2NfPsQUIlxciMvj0dng+lth19BAx23vzzhiCDLVGF2FDhegTTZrz3Z5bdkAQaD9LULkqmuCsbYaHC1AWQbm1q9LiCLieor+LUZ0Ob/G6+nqbLQAyWZ0pbbLAnQRuybQfvmWwvjhw49/rccU4iMVVNN3XIBUubkGTCMd8fcXI95hOwJO2zsvQFc1PC7ChMbI9D8vQ6R8aG7th++AHDrCjfG/qcX4sD7i9Z1E+XZ3ZaBADjQB1NOK8du6iNc22eiA9F2N8UnKlRXcD/xXMPr7iGtV1GeD1k9tuKcGyGts4mJEaZ3qyojXd2S7FUTdfZcfU66tQMKYXI7/WQXx+pnujtKU8l7bX1g3RYVMp34RmnFEP1bAc4sPtXdwu9wqcgApR637d0JlXaox3t/pMsHTlHnnFTS/qJwi2UymoXkC5I/DVMbrO4MdVULzlc7y7FI3M3IWiiQRz4YFxfh7AuP1M3HMkb1bJlKKBWvfHGkaDLvkUBk0kT7/5e8vUcxYVb2+f7YN3d3gh+smmnVea+lxsoZdXJKQ3AqDWe3//b+///7x49u3b5T2248Hl+sZFxt1Z8nuxkeEzPLwlXUtKRqMa5iSXoIDZeqhCuT55fwjdBpS9OKkY+070asqZ40nZUg3e4oO9RHXHPHM6cX20HnJRU771sAZF2pdc8pvV51iwXm5PRw7ozeMFtVgYLGNq4Od3hCfKVOmTJkybUtOrTizthf9aNIu7HfI7EyxTa1sbQrgTDU8Mdkr4pzYmdt7pU+RRL/GrVybU44a0i88Fp4SPb25cvWr4zaZhF0Qbi36pZKQEb4w+oxw+8oIXxp9Rrh9/XyEuQEWZ0SlEkYDp4l4biwrav2tRDgYOY4zepEB6bTnOoQmBN1igZ1pTyS0xrUuwGGh3q1xZ8OFynVqXUguJkOmXg4tUggIO/P5RJBrTq2r0UvXtW5t4TJOzinUivN5O5wb1mwaXG1OXO7U5E8gdLpT5HlGiWUOxskPtWpTFDhRIZrWrBTCtoLjM6MpLijcnQI4itTZTmdOSMj+ScSlatCectcSUGnEIBYSOnMl6vdFIGH5djBTohFDxd9LEiOs0bsrInuCxyaKRGEqXDaFNdaD/ORM+g6MXqpAA8ytgzghXQKOSxHuA3XMKB+N2LsdKEpYc5MR2pFoFaN8lFE8IbHI2m0QyL8LrK0I4iCPRuNulNDqijKDRAfjSy2ThIi94+YRQgYIptzNFh1hfvLZxKmDQoG9XMiVg0zCldfkXzTgPpIjHHEPJGG5wDB2M1UtiNjUsPzAYsIyA+TfcFGYco/jo8DB5tFawwUGdOdDLhwxZla6tcmkXdMjbScgHPlphopWnE0msyLi6r0lBoSKPisMh4VJmV0x4l21HSL00mEWg5QP/UqgKfP2cDyclIPnmZHDegU/sIn7XFD03CMzLx1IH3vd6yjc8fiEA+B1oNOaw/6e3JzqhevyuTrxIlaKfs8xGGqKaU49nwFP6ANykThezKbirxXnOl2vHmmhqfMwCDxzcsGCyZh9Ds1QbziYce3bJ5wzbi2888zRzfgjHT/icM/oTCZ+g+UIiwLAnBcFCg+RTpc9j9+C6udGZOPtwLtaaB41Fjpc62SEQ/ZR7DWnOa9CBv18TmeX/nRTrJCAUAR4UHNBoB67U4flPwycWDk2PkMY2ZbTNgX1y9VN0OZcQi9LRceNJ94jvQ9YbqQCeoQzv4qGgrMEQCCIouCmOxgzJqxTjJ7O8IpQeMu+j8gIC24k4pf5tCNDmZcblihwhLDsDRMw5Fgsw+S0MULfiTVgz9OigVmiE065jxFP6CYHAF0Y1vU7+oXI6vgCRyGL0jcAQ4AjJTltXqvw/ZysCOO3mXXTZ0csF93f3yiRphYWy0V0w/0lTMiNCKFXVcI12m1AotsRc/4AZ3p/4YJosQtNvVQlbfxg2egSTtwnJt5L4abItZRce3bhobMQYfSotplUhAOvSw+OBrNxOn4nrVuXUl6UMOfK2C2W5GsbLCWIjD1x0RsmecLojResyoDYH428IZ8zooa0UM34ESK3vaacIXb/khJ6qUmeJ7nZQQO4WbfwFlyOMHbYniU65g/veKaZxg1wM5NrIbxmNE0p1y651dQl5IpILLea0mUcN3kLr+kICOO3CbBER2dlvmmG+AMZrNnHe90a/cU0JQkBodtmBRXBl4tFuzO3zS68sconhGYscUVho/BNrfChNlp9RK9dddGVlCQEtdRtZmnLUO7gQhuH23kvfJdNUIbxkG7vGJ6v5DzTJ3K2O0cDi+oX6zxSkmDuhFBUMxgh380PPHs02nXkukktqLxcLaXNndXSlM4jXkuXLkOBIViMleEIxjtRFk8iIetpkhMyChof1yQT1A4aH+tpFl3WHNRSJYbYjvbz/mzfBFY0nkTCwqKEuCmlVTPnZl/KEOeOFtQydGiF1RYt7nKjRQzRrfNB/fWnf1oxNmAlE7rDVtzW8cV3aOznxI2vbkMFdJZiLTIlYoSxeyHYQOXlqO9LEr0RL5mQJSrRemS/d3t9t/dIbogT3o4E3B8uRxhDZDMLZuf6o4To+cmEB+4TEs8Tu+MlcD20bBKd1EEyG5fVzHbQCS9LGEXk7OCB7+ATX5CRQshmT6I55oHXmrwRgiUn6TYqbzZn0f8tmIgICSOIFvKyP+hEE6ykFEIWiym8wH3AHBFeXWPZIb5IxZvTe0/xnBipAwYj1KEQ0XNiDH1TGyR0AimEzPoTNl/PkvYLLTdNrilO1FEzXsWLEXiReMSRN29nvzQT40oj9NwYWswpn/MMiMARUfAwYoNXx/OKBQ/pskJMGxR9P40YcRZy26KUVyGnEPr+M7Mbcfp5rlHe3Oh6nxXDuel77zm3jBP0fqHMs4a+W5bztfmePR4xxy8goDYXRXtZq42oyDIKKuUgt29qXt0P3TXpu7yhOfFZ3HehxevvzPtUA8GiIY4YIT8Y5y8NSpGLw/+QG6Vy4yJCZnhqkU6Y89s5RGA2dhxnPAtWqCAMFcDYf6SJ5pMODjwsm37giB/VjxhoWndWGI+HNeiuA3oeMd7nHSBy5RM46gGYtwvDQrsI3ceFLq1JJzywuFMg9P1J3P3sscYdLCTQu9tDF4ZH7yEZcBHTMyV+WOHKTFCtOURu9YqszAQrQSEv3gJCjCha5KPRFGO9F4cYUbz/sfSEiMVrTwEi99RCwvNCVsoiwoPBXLQISQ7+CwJ3You6VKZoMM4JVzcDY5PtTfQ6Sa+ihmZ/HSR6nqnxrWchIZlDxNY9IeqK+/lBObwO6fIl3EMiiBgHtvyUkZiC+cONO0EKz29z7RgjROVw5XK9GKkvnhlMIB8PNJV58sFqp6zw9/VDhJJfWReJmLzqndsjQdcCONNuROONvsfJavNx4LQVo/WFxrNoJ26uM4NTxX1T27Q7SZ+8WoWionhvtyunH3MNRxw+VZmbT5Up3wNbXQVN43mL4zCDtMWzc0D+bJk7lAc3TqfTWfKUmeXgwI5jLRN2cNPpjIURWzeR7HGSDicOnA55i1xCbjqdl739KVOmTJkyZcqUKVOmTJkyZcr0mvX/zqwQsSgArU0AAAAASUVORK5CYII=;" parent="hP9i1joXD9U75TtHQduj-1" vertex="1">
          <mxGeometry x="160" y="420" width="60" height="60" as="geometry" />
        </mxCell>
        <mxCell id="hP9i1joXD9U75TtHQduj-9" value="pliot edge" style="text;html=1;strokeColor=none;fillColor=none;align=center;verticalAlign=middle;whiteSpace=wrap;rounded=0;" parent="hP9i1joXD9U75TtHQduj-1" vertex="1">
          <mxGeometry x="247" y="275.35" width="100" height="20" as="geometry" />
        </mxCell>
        <mxCell id="hP9i1joXD9U75TtHQduj-10" value="" style="html=1;verticalLabelPosition=bottom;align=center;labelBackgroundColor=#ffffff;verticalAlign=top;strokeWidth=2;strokeColor=#0080F0;shadow=0;dashed=0;shape=mxgraph.ios7.icons.wifi;pointerEvents=1" parent="hP9i1joXD9U75TtHQduj-1" vertex="1">
          <mxGeometry x="202.15" y="238.12000000000003" width="29.7" height="21" as="geometry" />
        </mxCell>
        <mxCell id="hP9i1joXD9U75TtHQduj-11" value="" style="shape=image;verticalLabelPosition=bottom;labelBackgroundColor=#ffffff;verticalAlign=top;aspect=fixed;imageAspect=0;image=data:image/png,iVBORw0KGgoAAAANSUhEUgAAAOEAAADhCAMAAAAJbSJIAAAAhFBMVEX///8zMzM1NTX8/PwxMTEuLi4qKiomJiYrKyshISEeHh4bGxv09PT5+fkiIiLHx8epqant7e1eXl5/f3/m5uYXFxdZWVnNzc27u7twcHCMjIw6OjqgoKDT09Pa2toNDQ2FhYVGRkazs7OYmJgAAAB5eXllZWVNTU1cXFxvb29HR0ebm5sSOxEhAAALGUlEQVR4nO1cC3eiOhBOAoS3ikK14gN1tdu7////3ZlJQNzSh3sbvcedb3v2VChJJpn3DArBYDAYDAaDwWAwGAwGg8FgMBgMBoPBYDAYDAaDwWAwGAwGg8FgMBgMBoPBYDAYDAaDwWAwGIz/FTwPfnJPwI+T4XP4oTmcDP+1NVgqXQ1vxr4jgUIUG9hnzxGJNHC+KZwM/jVkB6XqhcM99sSiVuqQOZvgM8xS5ct47opNYdh5LH2VzpwM//ns+bJSylf65EpSYNSThhlUtcxvr25gwlUMs0sVTR1OM41gBl/Fq3so1EUi4QilSpYOJ1kmCthUyWThcJJ3sA6RPqn0U+FQ0xRPWkmkMVw7m+QdZE8B8A8QGBbCobUQRahpnuDptgo1F6cQGFTKYFdasy/WzXRVfIPOAapW02YtrLEvdwFwivTDE8x6I3hopiogD6DnwmrSsR8HyfQ7NjqbJkHsj4Udea5pJlUtaOabADYWzQRqmT3NioYLLIdU6eEbhj+kMJKqyMzivz1pG5DF8nYEimfcV9BwB6PEgUBcgfLD4zeMfwxpLDUngmCCQ4ICIfXz7VzU8Yh4NPqZGedbFArsFmx8+B3exwy0NAwWqcwMLrKfEfHpaPwNo38J2U6iGZZJicIPjJSB64Eaz0825C574mqR8cyD+OwmQSWmwFnKaJRclHCIYJnk7lb6dJKiYAT6l7CkHBL4CJwVgl3OaZXe1Yovt0TCcws4RBjPRyEwU/zSAYp9OnFCTx90LsUOmUgG09zOP44V+Vbp3p5dMS8wfL1q5JyeMs/vU/IHVTy2e5hPAxRFtSu6VTgDjH4ISfDT1ssogGl99I9XVvstpa4nV3oBnjeptVxazbxCnx74ctfGhuuUVFt4uIWy8aIAt1MfDT0CVZ2UtR9OjRciGpSa6lqtMK5Qshs7xjT0axg1QetDNB/Re1NB5Jo+HH9SGctQ0gUwFBFtb/BSkHPjLVPgWT96vXjMuxji7VUhXiMQNJUujZ4qXogtZdQGn6WxINVEOD5FDzwO8qJGM2F396RR88nUOiETjSuRwaknhx4pnmyzXx5fT6/H5X6TkWrpLTU/BSjKSk+si5TSqBB8Wk6ZjchLnGbO2XQeK5pqYxe43lIMFS7N583W+FiXMRXcWjf/pGkc6kCHcZr+A47npaRinITYbszfL0OKm7Zr87y3oY1V8dwxfSgQSKCe2eXlz5FPHrjRcsBdZBiDlwvTlY+n2ih8+oemRk/HF9o2ewnotuF21F9Ikh8927/yZhpJRPF3SyJMjFy4HduYaUMEy2RixOqQkMMaqLK/jvKYRhItCpkZ+1uUHsve33ilCsj9TA5GRCcJybemM0WbtEUuDnZuU28QVJDtC2qzk7l4DlHq5NT4b+uRJWDT7TTsw+IHcpy8BHL2j8WZVcGXsVswWhtfbUqeU/hsnAdP1AHZSJe5PVxuo3Fx4cGuqqxRA8pqb7K3zxiuBv1AB89V0ya8AWaxOvtmQzIkQj+bTPC+wqH9ug0pwA7DNunGbcYmr2n3o41d1j5EK6UCE+fMt+Q+QoSRnylsRr5xY9/QB0ONmjOFOUQVeLhqOzcxWYAEy3Bv/2QTESfUbgPhdWIcNqtHvBOpj3hlLMJrgEuSL2UvFX+IBw+wJTNuI0p8pHzBa0HwaizJKialdLJDZcZ1S9xmbFYJrjdsTUEBRgoVD4UUAhU60FvtxTl1szDWUloqlez/ShbPZtHoiX1FxxTY8ci1kKNWtyyRYfxk5ZRCCn3rqjVKe9J3GJriIcxC0nZPljpcZPmD/Esy5r6vk2D3sgsSDW6spKOFX36U3X543hOmDjHM9MxspKf3djYQAhsIuwOZO7B27a425ITboMbTPqnCVm5QX0C8jvSB8oWlqeO4LIqiHB+VJvElGsNjV70CuSZl7GvzeZKSu920s+NmocF0SOHGGOX2lLInk60xcocGC27vOr/KxlW4ZND0SWM8WfyvBO8crxH1JkYy97Idne7WhE2lydDYRCKcsHEnNg4pHIckOq0Ybmrjc1Okj2KCUrMU5zPEpDyJG+w++q1GDeL/Y2RQI5bRtDtDcNZQsknQMbo3/nfdkrQkoQ5dJjMmI1xVaL1jMcdgHDw42nBQdUhKOD/z3FqT/ScDP7aXPUvK2LgAeFuvz3syN7ZlmhFbgKeGqYNO7EPclZHLSB9mxAx7u4mrEKUmNpqgpGSUfCnORrzRrdpM3u47RQ8EfTaKIOmkZCPj0O1j/BC22nNMlQTtstiGxS5S5gYzTWHFmBY3pwRcODvn+HN0nonCqBkYrIkshcGuNeLw7AytvhqZVOKYAoyOJDJHVM5zhl1EwUGrzKhs0hJMnjLp1ZbCTaUMK/oDyVxMK1sPVVWb7iLpT/LkW5Kw+GNvFzR7tHNIocQZ/W7Ld6gI/NrwZUObX43PtOxbPmzt228k0nEhD6f788Ux1QvQQiDPotsLZ2zv5jvcsUA6o88TWI6B2K9dLoVExGPAmc+UM92eowrQizagSIbiAYxT7CGOlueLmy3lSp9JMSGfY6DV3oUYEos07qILj7J8Ucs0XkzGwn6kcq2sepHvMTRHqIKhigOwaWDv94sBWSV7heUnMhdx+/RTRFlLd8FFXiFJXVk7J5FpCcbUOzDc2fP3XrU1Fe9ErZiGJIOhX89rzom1o5/m0xPl87tBpxHerBxFFx7tb5/CzCym3W6aPenl0k5WlcqXwTKxV7zY+134gFcpeok6xqBtaxnDUuguuf/gZyj+Ajn8oi7t0OnSwdzKoC7FdCTuog2R3upSMj4OMzXWHrbndLaHorWH25579gf2UGCEYu2hGLKH4EP47uxh69PU1/o08iqfBl3Ru/k0nV9q1jvkl/ZSYdf7pZjMa/1SxIBfKt36pRRbyHdii8DGFr00WxdbpF+MLVoLYnXTnrKzF7EF8bw72PiwS5y8iQ8pn/tZfGgyAsPx4XpEGedzfChvGx++H+MLG+Or0bIXsQ/H+JRafTfGVzbGFzbGpwy6wQ1i/M/zND1N28vTBKATv5CnwSYIX/6ep5G3zNPYXJv/Qa5NDufaVC/XtjgqLIcO59rkfXNttlVoO5wvPVKBIpgO5kvlRb5UvpMvnVKdtC2hYb7UVzfNl36Q8xYm5y3bnLc9yK/mvM057ivD1Ha8e+S8P65bYKUaPoPBOBcuvli3wAfQVGDOGyvkA3ULbDmRzusWn9aeENSm0YnWF2tPnmm4QLxTe1r7WEN1XHv6uH4I8RJYh9r/D/VD7DGJXofrh7+oV0E3TsuHH9aAAevYkFL/UQ24NoTHhg2HasAoEa47vnt1fCLitzr+kuRURvUf1PFrcutlsjQnelHH925Vxxef92KQIfjTXgy8d+9ejHM/jfemnwY/Yj8NumPp1f00aa+fRrzppxG366f5uCcK/BDt19QT1Vv/F3qiPNMT5WvrVt+rJwoH/6yvrUnJpl3d10b5grS5d18bjv9pb2IMp7G9VuUttnDycSPu3Jto7NvH/aVe3khdr67toPVWtZaNfWXU9Jf6d+gvtVruox5hPIFyXoor26Bz+5RpybhnjzDiwz5v0+Z99bvB+M6vffiufd4GLnr1jbhd9upTKqPr1Vc37NV/+75F9ljvW3iP/87MX/De08O/u/be+4enR3n/kPDo75CKv+A94Md/l/vx38d//O9UIDz092IQHv+7TR7/+2mssXcmIt7dv2PIe/zviWIwGAwGg8FgMBgMBoPBYDAYDAaDwWAwGAwGg8FgMBgMBoPBYDAYDAaDwWAwGAwGg8FgMBgMxhD+BbrZq2FcncqKAAAAAElFTkSuQmCC;imageBorder=#000000;strokeWidth=4;" parent="hP9i1joXD9U75TtHQduj-1" vertex="1">
          <mxGeometry x="160" y="305" width="30" height="30" as="geometry" />
        </mxCell>
        <mxCell id="hP9i1joXD9U75TtHQduj-12" value="" style="shape=image;verticalLabelPosition=bottom;labelBackgroundColor=#ffffff;verticalAlign=top;aspect=fixed;imageAspect=0;image=data:image/png,iVBORw0KGgoAAAANSUhEUgAAAOEAAADhCAMAAAAJbSJIAAAAhFBMVEX///8zMzM1NTX8/PwxMTEuLi4qKiomJiYrKyshISEeHh4bGxv09PT5+fkiIiLHx8epqant7e1eXl5/f3/m5uYXFxdZWVnNzc27u7twcHCMjIw6OjqgoKDT09Pa2toNDQ2FhYVGRkazs7OYmJgAAAB5eXllZWVNTU1cXFxvb29HR0ebm5sSOxEhAAALGUlEQVR4nO1cC3eiOhBOAoS3ikK14gN1tdu7////3ZlJQNzSh3sbvcedb3v2VChJJpn3DArBYDAYDAaDwWAwGAwGg8FgMBgMBoPBYDAYDAaDwWAwGAwGg8FgMBgMBoPBYDAYDAaDwWAwGIz/FTwPfnJPwI+T4XP4oTmcDP+1NVgqXQ1vxr4jgUIUG9hnzxGJNHC+KZwM/jVkB6XqhcM99sSiVuqQOZvgM8xS5ct47opNYdh5LH2VzpwM//ns+bJSylf65EpSYNSThhlUtcxvr25gwlUMs0sVTR1OM41gBl/Fq3so1EUi4QilSpYOJ1kmCthUyWThcJJ3sA6RPqn0U+FQ0xRPWkmkMVw7m+QdZE8B8A8QGBbCobUQRahpnuDptgo1F6cQGFTKYFdasy/WzXRVfIPOAapW02YtrLEvdwFwivTDE8x6I3hopiogD6DnwmrSsR8HyfQ7NjqbJkHsj4Udea5pJlUtaOabADYWzQRqmT3NioYLLIdU6eEbhj+kMJKqyMzivz1pG5DF8nYEimfcV9BwB6PEgUBcgfLD4zeMfwxpLDUngmCCQ4ICIfXz7VzU8Yh4NPqZGedbFArsFmx8+B3exwy0NAwWqcwMLrKfEfHpaPwNo38J2U6iGZZJicIPjJSB64Eaz0825C574mqR8cyD+OwmQSWmwFnKaJRclHCIYJnk7lb6dJKiYAT6l7CkHBL4CJwVgl3OaZXe1Yovt0TCcws4RBjPRyEwU/zSAYp9OnFCTx90LsUOmUgG09zOP44V+Vbp3p5dMS8wfL1q5JyeMs/vU/IHVTy2e5hPAxRFtSu6VTgDjH4ISfDT1ssogGl99I9XVvstpa4nV3oBnjeptVxazbxCnx74ctfGhuuUVFt4uIWy8aIAt1MfDT0CVZ2UtR9OjRciGpSa6lqtMK5Qshs7xjT0axg1QetDNB/Re1NB5Jo+HH9SGctQ0gUwFBFtb/BSkHPjLVPgWT96vXjMuxji7VUhXiMQNJUujZ4qXogtZdQGn6WxINVEOD5FDzwO8qJGM2F396RR88nUOiETjSuRwaknhx4pnmyzXx5fT6/H5X6TkWrpLTU/BSjKSk+si5TSqBB8Wk6ZjchLnGbO2XQeK5pqYxe43lIMFS7N583W+FiXMRXcWjf/pGkc6kCHcZr+A47npaRinITYbszfL0OKm7Zr87y3oY1V8dwxfSgQSKCe2eXlz5FPHrjRcsBdZBiDlwvTlY+n2ih8+oemRk/HF9o2ewnotuF21F9Ikh8927/yZhpJRPF3SyJMjFy4HduYaUMEy2RixOqQkMMaqLK/jvKYRhItCpkZ+1uUHsve33ilCsj9TA5GRCcJybemM0WbtEUuDnZuU28QVJDtC2qzk7l4DlHq5NT4b+uRJWDT7TTsw+IHcpy8BHL2j8WZVcGXsVswWhtfbUqeU/hsnAdP1AHZSJe5PVxuo3Fx4cGuqqxRA8pqb7K3zxiuBv1AB89V0ya8AWaxOvtmQzIkQj+bTPC+wqH9ug0pwA7DNunGbcYmr2n3o41d1j5EK6UCE+fMt+Q+QoSRnylsRr5xY9/QB0ONmjOFOUQVeLhqOzcxWYAEy3Bv/2QTESfUbgPhdWIcNqtHvBOpj3hlLMJrgEuSL2UvFX+IBw+wJTNuI0p8pHzBa0HwaizJKialdLJDZcZ1S9xmbFYJrjdsTUEBRgoVD4UUAhU60FvtxTl1szDWUloqlez/ShbPZtHoiX1FxxTY8ci1kKNWtyyRYfxk5ZRCCn3rqjVKe9J3GJriIcxC0nZPljpcZPmD/Esy5r6vk2D3sgsSDW6spKOFX36U3X543hOmDjHM9MxspKf3djYQAhsIuwOZO7B27a425ITboMbTPqnCVm5QX0C8jvSB8oWlqeO4LIqiHB+VJvElGsNjV70CuSZl7GvzeZKSu920s+NmocF0SOHGGOX2lLInk60xcocGC27vOr/KxlW4ZND0SWM8WfyvBO8crxH1JkYy97Idne7WhE2lydDYRCKcsHEnNg4pHIckOq0Ybmrjc1Okj2KCUrMU5zPEpDyJG+w++q1GDeL/Y2RQI5bRtDtDcNZQsknQMbo3/nfdkrQkoQ5dJjMmI1xVaL1jMcdgHDw42nBQdUhKOD/z3FqT/ScDP7aXPUvK2LgAeFuvz3syN7ZlmhFbgKeGqYNO7EPclZHLSB9mxAx7u4mrEKUmNpqgpGSUfCnORrzRrdpM3u47RQ8EfTaKIOmkZCPj0O1j/BC22nNMlQTtstiGxS5S5gYzTWHFmBY3pwRcODvn+HN0nonCqBkYrIkshcGuNeLw7AytvhqZVOKYAoyOJDJHVM5zhl1EwUGrzKhs0hJMnjLp1ZbCTaUMK/oDyVxMK1sPVVWb7iLpT/LkW5Kw+GNvFzR7tHNIocQZ/W7Ld6gI/NrwZUObX43PtOxbPmzt228k0nEhD6f788Ux1QvQQiDPotsLZ2zv5jvcsUA6o88TWI6B2K9dLoVExGPAmc+UM92eowrQizagSIbiAYxT7CGOlueLmy3lSp9JMSGfY6DV3oUYEos07qILj7J8Ucs0XkzGwn6kcq2sepHvMTRHqIKhigOwaWDv94sBWSV7heUnMhdx+/RTRFlLd8FFXiFJXVk7J5FpCcbUOzDc2fP3XrU1Fe9ErZiGJIOhX89rzom1o5/m0xPl87tBpxHerBxFFx7tb5/CzCym3W6aPenl0k5WlcqXwTKxV7zY+134gFcpeok6xqBtaxnDUuguuf/gZyj+Ajn8oi7t0OnSwdzKoC7FdCTuog2R3upSMj4OMzXWHrbndLaHorWH25579gf2UGCEYu2hGLKH4EP47uxh69PU1/o08iqfBl3Ru/k0nV9q1jvkl/ZSYdf7pZjMa/1SxIBfKt36pRRbyHdii8DGFr00WxdbpF+MLVoLYnXTnrKzF7EF8bw72PiwS5y8iQ8pn/tZfGgyAsPx4XpEGedzfChvGx++H+MLG+Or0bIXsQ/H+JRafTfGVzbGFzbGpwy6wQ1i/M/zND1N28vTBKATv5CnwSYIX/6ep5G3zNPYXJv/Qa5NDufaVC/XtjgqLIcO59rkfXNttlVoO5wvPVKBIpgO5kvlRb5UvpMvnVKdtC2hYb7UVzfNl36Q8xYm5y3bnLc9yK/mvM057ivD1Ha8e+S8P65bYKUaPoPBOBcuvli3wAfQVGDOGyvkA3ULbDmRzusWn9aeENSm0YnWF2tPnmm4QLxTe1r7WEN1XHv6uH4I8RJYh9r/D/VD7DGJXofrh7+oV0E3TsuHH9aAAevYkFL/UQ24NoTHhg2HasAoEa47vnt1fCLitzr+kuRURvUf1PFrcutlsjQnelHH925Vxxef92KQIfjTXgy8d+9ejHM/jfemnwY/Yj8NumPp1f00aa+fRrzppxG366f5uCcK/BDt19QT1Vv/F3qiPNMT5WvrVt+rJwoH/6yvrUnJpl3d10b5grS5d18bjv9pb2IMp7G9VuUttnDycSPu3Jto7NvH/aVe3khdr67toPVWtZaNfWXU9Jf6d+gvtVruox5hPIFyXoor26Bz+5RpybhnjzDiwz5v0+Z99bvB+M6vffiufd4GLnr1jbhd9upTKqPr1Vc37NV/+75F9ljvW3iP/87MX/De08O/u/be+4enR3n/kPDo75CKv+A94Md/l/vx38d//O9UIDz092IQHv+7TR7/+2mssXcmIt7dv2PIe/zviWIwGAwGg8FgMBgMBoPBYDAYDAaDwWAwGAwGg8FgMBgMBoPBYDAYDAaDwWAwGAwGg8FgMBgMxhD+BbrZq2FcncqKAAAAAElFTkSuQmCC;strokeWidth=8;" parent="hP9i1joXD9U75TtHQduj-1" vertex="1">
          <mxGeometry x="100" y="370" width="30" height="30" as="geometry" />
        </mxCell>
        <mxCell id="hP9i1joXD9U75TtHQduj-56" style="edgeStyle=orthogonalEdgeStyle;rounded=0;orthogonalLoop=1;jettySize=auto;html=1;" parent="hP9i1joXD9U75TtHQduj-1" source="hP9i1joXD9U75TtHQduj-15" target="hP9i1joXD9U75TtHQduj-48" edge="1">
          <mxGeometry relative="1" as="geometry">
            <Array as="points">
              <mxPoint x="340" y="323" />
              <mxPoint x="340" y="5" />
            </Array>
          </mxGeometry>
        </mxCell>
        <mxCell id="hP9i1joXD9U75TtHQduj-57" value="Aithentication/RefreshTocken" style="edgeLabel;html=1;align=center;verticalAlign=middle;resizable=0;points=[];" parent="hP9i1joXD9U75TtHQduj-56" vertex="1" connectable="0">
          <mxGeometry x="0.0179" y="1" relative="1" as="geometry">
            <mxPoint y="-1" as="offset" />
          </mxGeometry>
        </mxCell>
        <mxCell id="efUQGsohZJ-c-NTUhMi3-8" style="edgeStyle=orthogonalEdgeStyle;rounded=0;orthogonalLoop=1;jettySize=auto;html=1;entryX=0.5;entryY=0;entryDx=0;entryDy=0;" edge="1" parent="hP9i1joXD9U75TtHQduj-1" source="hP9i1joXD9U75TtHQduj-15">
          <mxGeometry relative="1" as="geometry">
            <mxPoint x="297.94000000000005" y="370" as="targetPoint" />
          </mxGeometry>
        </mxCell>
        <mxCell id="hP9i1joXD9U75TtHQduj-15" value="" style="aspect=fixed;perimeter=ellipsePerimeter;html=1;align=center;shadow=0;fontColor=#4277BB;labelBackgroundColor=#ffffff;fontSize=12;spacingTop=3;image;image=img/lib/ibm/applications/application_logic.svg;strokeWidth=3;" parent="hP9i1joXD9U75TtHQduj-1" vertex="1">
          <mxGeometry x="282" y="315.5" width="30" height="30" as="geometry" />
        </mxCell>
        <mxCell id="hP9i1joXD9U75TtHQduj-16" value="" style="endArrow=classic;startArrow=classic;html=1;exitX=1;exitY=0.75;exitDx=0;exitDy=0;entryX=0;entryY=0.25;entryDx=0;entryDy=0;" parent="hP9i1joXD9U75TtHQduj-1" source="hP9i1joXD9U75TtHQduj-11" target="hP9i1joXD9U75TtHQduj-15" edge="1">
          <mxGeometry width="50" height="50" relative="1" as="geometry">
            <mxPoint x="397" y="330" as="sourcePoint" />
            <mxPoint x="447" y="280" as="targetPoint" />
          </mxGeometry>
        </mxCell>
        <mxCell id="hP9i1joXD9U75TtHQduj-18" value="1" style="text;html=1;strokeColor=none;fillColor=none;align=center;verticalAlign=middle;whiteSpace=wrap;rounded=0;" parent="hP9i1joXD9U75TtHQduj-1" vertex="1">
          <mxGeometry x="157" y="330" width="40" height="20" as="geometry" />
        </mxCell>
        <mxCell id="hP9i1joXD9U75TtHQduj-20" value="http" style="text;html=1;strokeColor=none;fillColor=none;align=center;verticalAlign=middle;whiteSpace=wrap;rounded=0;" parent="hP9i1joXD9U75TtHQduj-1" vertex="1">
          <mxGeometry x="147" y="270" width="40" height="20" as="geometry" />
        </mxCell>
        <mxCell id="hP9i1joXD9U75TtHQduj-23" value="" style="shape=image;verticalLabelPosition=bottom;labelBackgroundColor=#ffffff;verticalAlign=top;aspect=fixed;imageAspect=0;image=data:image/png,iVBORw0KGgoAAAANSUhEUgAAAOAAAADhCAMAAADmr0l2AAAAkFBMVEX39vlWZvL5+Pn//fn7+vlTY/L8+/lGWfJwfPP//vlQYfJUZPJMXvJJW/JNX/JFWPKOl/TU1vft7fng4fipr/WepfW1uvZ8h/NpdvO+wvZzf/Pw8PmWnvTJzPdfbvL08/mkqvXo6PiDjfRgb/Kxtva6vvaKk/TFyPeAivTP0vfi4/ja3PjT1febovV3g/M7UPGJu+q0AAANIUlEQVR4nO1daZuiOhPFSgiSBRQ3bHdb21anu///v3tZEgQkonNfwZ4n59t4HSeHpKpOLeFaloGBgYGBgYGBgYGBgYGBgYGBgYGBgYGBgYGBgYGBgYGBgYGBgYGBgYGBgcGdAEwIhrZX8TRgct59jcYDhNteyTMABE/fHU4p99+O/x7FiN54KVgnge2Eh3+LIhBrR7mkF4OJ5RSTf8UYAa3WXp5eSrGzg3+CIqBgJLwSvYQi94Yr9NspAtrMhXfNTlLko+BXUwT31HOohl5C0RPzza+liNF5K27RS0BF7/QrKWLUn9zcvQtFZ3v+dVEDo+ObY99DL6X43f9VFDE5hPfTi2E73cWvoRhrMlERF+oohgfyCygWNNljiOTN/tXlTarJ/oZdSpG/trwBNLvWZI9SfF15o9VkRQZeTehg3mvKm5ua7AIa7rai9hm8nrwBd3Bbk0nY34S4u3ojjeTNwH0dirEmu0+0iEEUCFDnDjN9IXlzvybrdPgs2hY0uUsDUGfy5wUoYvKIJksJvt35/VjetBz7wV08pMnEJiLovt8dSWwRHtp0NwCfzkNhTxyxBRZ94O8w59tqjSHgbn1gKIDvI4KbujhRBA2hLYZo/qgq84bEgvNjBDteD7XDD07+g/w63ppYuP8gwY4/aGcLyejO4HAB/YoIHh8lSOekHYLhw7qaRzsI/Uc3nr23QhBWzqP8OstVdNjI9tGd94M2zuiDR41RT/gfsbvAB98Rnv3A9otFG+GeDO+OEYwKHvZ2i/Mm3YnZaTGcUHF3PKTrNs7onZIyKWD3DoFLMFYBDQATZP35YuK+n7DfWggUAFeHzK5KZiO1NbVQRVs3IokX3xVCj11XBfiqeSOEQdnHeG/DXnlLmOgeXX3TGrvnSVns2fZw3C09KdFvniDel2QM/XCJu3kvLM1jB/e2fwC3/174IRrOEEHfxQfl7Zr3MqhXfsqx3sCr8PIxc+aQWxhg+QdcOLEYDXObSN9jbV1WO3TbvBGSctKTELRg1lEP36bHrOwAGMHpcEgY4v12d4ZcLosGS/VU7OUs+ZWSXmWdxo8oBGUTpPOEDj7ZKUMvDJRzBzSbbqnwU8mF944naO94KfJikJUougxw/HV3XjoezqlphnhxFebFV3IG8WYZB0j+mQUF99zjPAp6dJQSPPAkNHZ2K0UR0MiJ3WcY8QN0mlylYXzatBGS9XVI8JaHeMVgfThcbGUmDmjw6aQhPU6W8s+G050yS8sd+h77iJ4Jnn1VKIDm9XZlYYU53ROKC/izzUhuDra+sooUT33hReMx/t5X3gONTxA9E3SgVQKJhQ17GVhV6yxb7OKdA5APHJ2Xl/XKc5b3IMwfKY+a6Bwy8qv1m2hYb+vTcvGZq6GgcT6M89SLwinvn8R3TqWQkS5DaVpv47G2WsE/XPUtmBfWG5ec4k+LRRna2WQMibYm7DWst5E+p2PZgiHoFqiIfkowyD8c5myz00e+tI/NfnM1S3kO8FK3kohHpqsg8o25LUmlQNF+bTG9FD7hpE0xGW1Ub8NGn83b3ZzDKzgZR24tsIyg6Ab5o4fW2hxTnJskmMRqDZxz3h1g6GWbqDxh1n1h/rBYt4YV0xkhHzfpZciX1gTpZ2os2TFFBy6/7M1SNqp27y3P2WbLrxNtb41+NBkJXX1BzUmPEh5mSpMEb4lpMVuaEeqyZPt6Wa4BOBU5N+r6rNPgDsJM7+2+kweN9z/bLCeCNCFiTC4RdSMVROnikmvA5OdP+h/JSGeFYtOcEeI/Wm8nZErEGH+7+L3I13Dqf0l/QoY+FZNZtiN4FlK7m57sogrIo0m9rS+oMZboGDwVce4aXDisRp+XrJyMe/uLd4nSj8hIfekltd3DJvU2+tRVw+g8OaGpjdqdQbYmIPluLc71Nck5SSCpbLFoNRILmwv1WFu1TSWjasswcax1fego56KcVMPqWzp81pQRwkBvgondZUeYOdOax+5OVZiU1msRnUiSUrYB4KnOiUoVk7jJFP7wJkM0zPZLndGrapaCzJcbAClXTDLQxFHCKnfKnLm+yQ7uV85nLtP1a41QRqAG4C61emqfmGCh6Mc/Lw8eSIQLX1yYepI9JG0MYl5DvWwI9CaYJESlmrDIjhY+ryP0lSmRdTGbUumiNultSG9XFNQU0nyBFHMCeyKPFswY9zxOVf6HJoWjruQ0aEN9Q3qb6HOa1NWTgptgYqQUzFvyOe1KEYcL2WKWtGNdWt+U3tZPKjGarDynA5gn7J4s0pCRPLlcaRK8ZrkBTNqTBHVxgnUaIQigT7uXOEeQUS7CdR+UF0UfcmMvnQaCz8NQ8DSDUHFC3/t3GtHbN+ZccgQZFd52unHJxfNl/j9vS0DcYLr14lpvPUFZlnsybhTUZI8EfTrOcvQHSm3PLHo4xbmXuDHzZ7R0HGli+noP/Woi1GcnreoRp5FsN4627qrtCauf1MmIq4MGmLibnUw3sLZ334zedm/Ms/qpHsbVPV186vmU+vPqIrVqHxZ0UPn3GyitwUb/77Of26EY0KbXq5s4h+BdX1prQG/rC2qM2ofKjCansCCv1KB6o8Ht+ZzajF0flSb0dsWEGvW4EA4Pt+fypY5kXgQHQRUTIKdjgBGpOM/kPJ5/d8NlpzwqnYmiJyItieU3jn/sDovjYEXyZy+hRmbn6eh7KZzute3ArOsI0fn+2vcTmgUhHf9lhLC1KQ1sMv70HQSrbIK872KMiwu08Op8WG+XXMRnLV/Nz5D2IZgdqQGxnIym54rTDeCWpo2cp09WXk170rly3XBpupNJdGS9i7uvsJ2CYI1oOh2S/cwlxJB90eGk+dgzQXYlFyfXHkXrYDFUVfuyGPCvvWtSeMsvXW4ybA4fw6OVlqhgVprloE+f/r3qm7GuCzG7XWRSnviRTVwoTGOxrB+TzcpEXynGcyc1U9z/4dQT/OMY7SN256XH+fzR0avxmI63PZ2mE58nxkKlmyPD/BZmNVuwDgd1/Io1bJUrobQcEg9hjBb93pXsdZ5+RK8vPdDI3jJXIAU/5Fpkke+THghWHeGEimxeMTA5bgerXPrEK+5wi2cTrBuipCOpmA+XvJx+yROK4oxQ7NSAQq58LPbph/ruknwQzz+iw5oVqB5Zzlh9OaaUFnOYKuDmRoapLJjBrc5x8sWn1+8hqBkp99ZyrSultLL2uqx4yvJ+9OeMjSrTEH0qJp/V8+cqyfD2qDbjcrF4IGvyqmSdTZiqwTN1HpnzRyUSNZPctAGpZuHytGp5EWqMhByTmhKjqi34SYvLVHP7/lQu+yoqlGE30Z6AoOZWgKNmdtAh7ntmxbJ+5nYcmfUkZ5b5e8kPn2suKvjnRuqGuZVqoJ4zOkbxQ1WKyKVhwULZsI4YMUftH1jairl8LuOGavdofJvhxVLIaSkmcighFzeyqIBCz87G8dyaCyO811iD0O3ddnZipJaCra08sDi/PYxJYbbvZp1st8Z7ZfXiBgB1jiYzK0u92ICMC8tXwcTKFo0ONfGHNjlvCEHNjQ7/UDQXsEr1h/LMBFrU8HOacTAKtY7GL7Z2ycjPJw/MdiYFSVK7f86+qeagWlGNo+k4u/xNf9iMtx1f8Li7xIXf+dzlU3NAu5pfa9DBZAxrHE3H6eHcoYpSRhz0D+PhcHzob0o3J3Cvhl+TDuay4hpH0/HC0tuoosQ4LkeUymiABmHdPTbWxgVCCOpux9liWH9FHFbr2jtofr9RB6OAz7V3Vf368Suo/5XGFEwZtY5GdtV1swPJ57Cpu6vO27pmHiuaGuNJBp8gOKOKXhNGQZ/csYN22N5LkICENeYTbRJA7+c9bvQmV0Bj4LhufRpPfB7PstVc5ma0sQmuKobBzXccxZoaLNuLW/XO23y8OJ82wWlwnK4/7bhQxX6iXBgvbh70hlIkHfCtS/F2nBWRtbSxpEjvRBCCqzvYLJ5uuvn6ldYcjMItRxM/fJjdfE1XnPrqZ2BbUTBXDLWKhscVxJoqXDL6QvY6hm0omDK0ioa9x2EA387SmRdLAd09GtaKgrliqEmdRBzkr+9ql78VixTQFGOcdhRMGdWpE3uPF3fVjCojvRWKKkNF6w5GAe0qig1po6v2jSVpLd4tt41jtKhgyqiq0bAwygdx/Tt1xNTFpOpSFg3bdzAKgCsUDR+67qxb/7IKvu5PqzyR/QoORgGCiukk/v7N73kZhyeqIklLKZIOlYqGPfQW3CJexsEo1KdOD6G1N3Hp4X48+I61W7BfyMEoVDqavwTzXsnBKFQ6mr/DizkYhZup0yN4OQejUKloHofXfoqkw//F0byig1H4vziaRrtIj6K2vV2PF0mRdPjPjuZlHYwCGv8nhuJ1HYwCGv09Q+b02nnR5kNAi46g9l+ACjp9sRekVwPjw/y7+zDeegfrF+xfgmSk/GH8y/9fOwMDAwMDAwMDAwMDAwMDAwMDAwMDAwMDAwMDAwMDAwMDAwMDAwMDAwMDg7/E/wDIJ8YVWPleEwAAAABJRU5ErkJggg==;" parent="hP9i1joXD9U75TtHQduj-1" vertex="1">
          <mxGeometry x="596.0799999999999" y="132.75" width="59.73" height="60" as="geometry" />
        </mxCell>
        <mxCell id="hP9i1joXD9U75TtHQduj-26" value="" style="aspect=fixed;perimeter=ellipsePerimeter;html=1;align=center;shadow=0;fontColor=#4277BB;labelBackgroundColor=#ffffff;fontSize=12;spacingTop=3;image;image=img/lib/ibm/applications/application_logic.svg;strokeWidth=3;imageBorder=#3333FF;" parent="hP9i1joXD9U75TtHQduj-1" vertex="1">
          <mxGeometry x="610.0000000000001" y="330" width="35.5" height="35.5" as="geometry" />
        </mxCell>
        <mxCell id="hP9i1joXD9U75TtHQduj-27" value="data replication" style="text;html=1;strokeColor=none;fillColor=none;align=center;verticalAlign=middle;whiteSpace=wrap;rounded=0;" parent="hP9i1joXD9U75TtHQduj-1" vertex="1">
          <mxGeometry x="512.75" y="335" width="87.25" height="20" as="geometry" />
        </mxCell>
        <mxCell id="hP9i1joXD9U75TtHQduj-28" value="" style="shape=cylinder3;whiteSpace=wrap;html=1;boundedLbl=1;backgroundOutline=1;size=15;rotation=90;" parent="hP9i1joXD9U75TtHQduj-1" vertex="1">
          <mxGeometry x="702" y="327.25" width="30" height="260" as="geometry" />
        </mxCell>
        <mxCell id="hP9i1joXD9U75TtHQduj-29" value="" style="shape=message;html=1;whiteSpace=wrap;html=1;outlineConnect=0;" parent="hP9i1joXD9U75TtHQduj-1" vertex="1">
          <mxGeometry x="600" y="447.25" width="20" height="20" as="geometry" />
        </mxCell>
        <mxCell id="hP9i1joXD9U75TtHQduj-30" value="" style="shape=message;html=1;whiteSpace=wrap;html=1;outlineConnect=0;" parent="hP9i1joXD9U75TtHQduj-1" vertex="1">
          <mxGeometry x="629.73" y="447.25" width="20" height="20" as="geometry" />
        </mxCell>
        <mxCell id="hP9i1joXD9U75TtHQduj-31" value="" style="shape=message;html=1;whiteSpace=wrap;html=1;outlineConnect=0;" parent="hP9i1joXD9U75TtHQduj-1" vertex="1">
          <mxGeometry x="720" y="447.25" width="20" height="20" as="geometry" />
        </mxCell>
        <mxCell id="hP9i1joXD9U75TtHQduj-32" value="" style="shape=message;html=1;whiteSpace=wrap;html=1;outlineConnect=0;" parent="hP9i1joXD9U75TtHQduj-1" vertex="1">
          <mxGeometry x="653.62" y="447.25" width="20" height="20" as="geometry" />
        </mxCell>
        <mxCell id="hP9i1joXD9U75TtHQduj-33" value="" style="shape=message;html=1;whiteSpace=wrap;html=1;outlineConnect=0;" parent="hP9i1joXD9U75TtHQduj-1" vertex="1">
          <mxGeometry x="682" y="447.25" width="20" height="20" as="geometry" />
        </mxCell>
        <mxCell id="hP9i1joXD9U75TtHQduj-35" value="Mongo Adapter" style="aspect=fixed;perimeter=ellipsePerimeter;html=1;align=center;shadow=0;fontColor=#4277BB;labelBackgroundColor=#ffffff;fontSize=12;spacingTop=3;image;image=img/lib/ibm/applications/application_logic.svg;strokeWidth=3;imageBorder=#3399FF;" parent="hP9i1joXD9U75TtHQduj-1" vertex="1">
          <mxGeometry x="834.5" y="327.25" width="35.5" height="35.5" as="geometry" />
        </mxCell>
        <mxCell id="hP9i1joXD9U75TtHQduj-36" value="sub" style="endArrow=classic;html=1;entryX=0.25;entryY=1;entryDx=0;entryDy=0;exitX=0.145;exitY=0;exitDx=0;exitDy=4.35;exitPerimeter=0;" parent="hP9i1joXD9U75TtHQduj-1" source="hP9i1joXD9U75TtHQduj-28" target="hP9i1joXD9U75TtHQduj-35" edge="1">
          <mxGeometry width="50" height="50" relative="1" as="geometry">
            <mxPoint x="758" y="400" as="sourcePoint" />
            <mxPoint x="800" y="410" as="targetPoint" />
            <Array as="points">
              <mxPoint x="845" y="430" />
            </Array>
          </mxGeometry>
        </mxCell>
        <mxCell id="hP9i1joXD9U75TtHQduj-37" value="" style="shape=message;html=1;whiteSpace=wrap;html=1;outlineConnect=0;" parent="hP9i1joXD9U75TtHQduj-1" vertex="1">
          <mxGeometry x="750" y="447.25" width="20" height="20" as="geometry" />
        </mxCell>
        <mxCell id="hP9i1joXD9U75TtHQduj-38" value="" style="shape=message;html=1;whiteSpace=wrap;html=1;outlineConnect=0;" parent="hP9i1joXD9U75TtHQduj-1" vertex="1">
          <mxGeometry x="775.5" y="447.25" width="20" height="20" as="geometry" />
        </mxCell>
        <mxCell id="hP9i1joXD9U75TtHQduj-39" value="" style="shape=cylinder3;whiteSpace=wrap;html=1;boundedLbl=1;backgroundOutline=1;size=15;" parent="hP9i1joXD9U75TtHQduj-1" vertex="1">
          <mxGeometry x="910" y="310" width="110" height="90" as="geometry" />
        </mxCell>
        <mxCell id="efUQGsohZJ-c-NTUhMi3-27" style="edgeStyle=orthogonalEdgeStyle;rounded=0;orthogonalLoop=1;jettySize=auto;html=1;entryX=0.25;entryY=1;entryDx=0;entryDy=0;" edge="1" parent="hP9i1joXD9U75TtHQduj-1" source="hP9i1joXD9U75TtHQduj-47" target="efUQGsohZJ-c-NTUhMi3-26">
          <mxGeometry relative="1" as="geometry" />
        </mxCell>
        <mxCell id="hP9i1joXD9U75TtHQduj-47" value="GitHub" style="dashed=0;outlineConnect=0;html=1;align=center;labelPosition=center;verticalLabelPosition=bottom;verticalAlign=top;shape=mxgraph.weblogos.github" parent="hP9i1joXD9U75TtHQduj-1" vertex="1">
          <mxGeometry x="704.85" y="25" width="50.3" height="50" as="geometry" />
        </mxCell>
        <mxCell id="hP9i1joXD9U75TtHQduj-48" value="IdentityManagement&#xa;Based on Oauth2 " style="shape=image;verticalLabelPosition=bottom;labelBackgroundColor=#ffffff;verticalAlign=top;aspect=fixed;imageAspect=0;image=data:image/png,iVBORw0KGgoAAAANSUhEUgAAASwAAACoCAMAAABt9SM9AAAA9lBMVEX39/dNTU0AuOOenp7g4ODU1NQAiqqRkZHt7e0zxumsrKz///9JSUl1dXWXl5cAueRoaGjJyclAY20/Pz8Ah6ZKX2U9PT1EVVpERETn4uDb29vAwMCpqamWj4ykn51OSklTU1OAgIDOzs5PRUAowueJzuEAg6a0tLSyq6mLi4vq6upgYGAEpcs2udgErdUFlrjG2+B3yuFkn69vm6ctbX45qcQeeI9Fb3o9W2MPgZwlj6tBh5kzZXM8nbUanL1jxuKNwM5irMGq1eCk1OHV4+aXxdFvscTI2+CEyNuQpqt8q7iDlJmDo6xVutQ8kqqQnJ+YrbJCg5SvxnAxAAAHyUlEQVR4nO2deVMbORTEx4M5xzBca8yxGDAsLDHmDAuEQDgWNgmE3e//ZdYGH0+yeiyBjEri/f6ijEOVunpeugfzJooYhmEYhmEYhmEYhmEYhmEYhmE+JIklXJ/jPViYHLfCquuDvAPJZKlgheJY8N5KFos5SxRGXB+m76zY0ipXGg7cWslAyZpYueKC6+P0l+0Ze1rlCuNBWytZLVgUK1dcDFitZM3adH+msOL6RP3kk1Vj5XIzS8FaK9m0ObGeKQUbH0Ys+6oh1p+BWisZthgbWswEGh8W7E73FwqTQVorGbd/FdaZCTE+WCyFIiuuT9YP7JVCkVJ48cFqKZTU2nZ9ONtYLYWSWKHFB8ulUGRm0PXxrPKmUljuoH5DYPEhQaVwjgCkyP1GUL8nqPiASmH5aKhD9S+lEpXdUQJQdMX1CS2CSuEc0WoorVVUek6nKRHrs+o99Rk/EIy1UCmsHHekmq2m6bHCNpVqGq8TtdT2Cyg+LICL8EQwVpzGivccpXFMrbUDrLUaiLVQKaycEmPVGqKcdSlRbrwuWOuLWq1A4kOyCIx1Tny129AkTk+ki6xy9vx6TGe88ocFEx9QKZwlxnqWJE4vRNuU59LmN4hYX4G1QogPqBTS2FCf7k1RjgRrVS6arwsXIghbOdcntcD2jPKTCmUhNjQlidMaFaJ8nra/8SHiQzLxaVLJqcJYdVFOK209S6Va+3UxPlRU8peKedeHfTPg1y97f8jT/YXLQQJ5XZjxU2rW6L9931PaYQRwJsWGFrf5DvM3RCxqrY3B3rg++GsAWn3rGGv2gmi1MZ+naq0Da90HKRbQals13Rv2yQvMX5Pv0Rl/GaJYQKvoihirSox1PS+pdam+ENevP45YdLoPEa12JK3y+VtgrdHwxELT/SuY7nuyVvn5fWCtm48i1jWIDftdxqqD4kNoYmlM99mYiKGQSowP9ELc/xBiRXdasUEZH+iFuBeUWMBYt+RugxAblFrl83uviw+uT28G0Cq66oiVGRveGB9cH98MIBaKDZdAq9fGB9fHNwJoBUvhPdIqP78BrLURulh/m8QG1YzXrYiuz28C0ArFhhRLlVERs+KDawEMQNP9Dkz3mwxjZcz4jPjgWgEDgFj3YLqj2NDi3jw+uFZAHzTdvxJjZZdCyVrmFdG1BPoArVApxLGhjXFFdC2BNshYOveSgbXQHWY4411roA3QSu9eMlALVMQUzXjXGugCtIKlsLdUdbFARYx3/BYLXYSmpVBSSxkf6j8GVETXKmgCtEKlcFRLK3VFbFyb6z6LhYyF7iXjUihZS1ERn7/+JzyxXlMKJbriw8vQT/0VC2j1qlIoWetavhCbXytzvGsddEAXIbqXnF0KJbV2xAux/WNU8cG1EDoArW7pdKdHNtBKvsPcSV6q+OBaCA3gdAexoVcplKwlVETqTy/FWlwaU7FJis4ubSvfB0xYPiD+JJqnVxMyPnyybUQt1th3Ot2JWDvLJmI9Ea3I/6hp7fdhmQkPxIrW1Gpt/SLTnVrrh4Fay786WtGolh56Kla0qbbWEs3u9B6LgbEeiFbUWJ+7tfJErDyw1gExBL0Q7/StRQbfEI1qP7u18kSsBMz4sTMyaeiF+KR7ER4SY1V7GMsTsaJtINYDmTTUWo+a1qLTnRbxWCGVN2IlU3DGzyr/COBBz1houh+ojOWLWFGkdtbYvyS7m8eHn/qxwSuxBtGMJ5PGND4sg/v3yunuk1gwPpBBYxgfhOl+0Wu6eyUWig93ZC4bzng63anmwFgeiYUq4pZ0j0W7ItJSKMSGK2Asn8RCFfGBiGVirSe1sdIakMorsWBFfATWyp7xJqXQQ7FgfADWyp7xKDag6e6bWAvAWlep2lqZFdEwNngnFooPYyg+4IpoHBv8EwtUxK0f5vEBxQYslW9iobsPxvFBmO7VnqXQS7GiCMQHNONRRQR3G1Ap9FQsVBEfwYxXxwdYCg+ztPJOLOMZ32u668YGL8UyrYjK+EC0Ev6ELCM2eCkWrIjUWtl3mM1Lobdivb0iglKYHRv8FAveYUbxQb7DDGMDLoXeimVeESVrGd5L9lwsFB+ugLXEGW96L9lzsd4UH15VCn0WC8UHrYoIp3vXh2YaDA979imaLpJVsEmyqs7xX+gCrc7aKGG6H4HVrv6vhAIbqMsnSmvtCMvGppWlsBrssjG4xq61+1C0lriGtNyyljDdp8NdY4cXJNLy0tRK3lDX2mRKY8MFWJC46b+x8OrNynH3hSjvPiwfy6UwjeeUPy2U1ZtwqWtNvhC7t2rOdcWGU7TUNQyx4Lrgc9laivccibFBXDfZIZh1wXgR9YVorf9UppnVig3hLKJGK87bC25frKXcMV2PDxrTPYTY0AItz6/Hhw7rYHn+cUzeJC9fbrLi+oQ2gY9lmCagxzKQtwCtgtir3AY+8KPc82keGu8JJTa0QBXRCoHsgu+w3T+xwokNLfjxV0b07cFqAcWGFvzIPhP4YZAm8GNGDUgm+AG2+vCjkQ3gh24bwY9z1ycZtDvjCyuuT9RPLFfE4lS4xoosV8TCeNBaRcmSRbWKocaGNvYqYmk4bGNZrYiFgGNDk2S8pHzSmjHFIH4F3YOFyXErrLo+yLuQWML1ORiGYRiGYRiGYRiGYRiGYRiGYd6b/wGr2XXlwpZxrwAAAABJRU5ErkJggg==;align=left;" parent="hP9i1joXD9U75TtHQduj-1" vertex="1">
          <mxGeometry x="430.72" width="89.28" height="50" as="geometry" />
        </mxCell>
        <mxCell id="hP9i1joXD9U75TtHQduj-58" value="" style="shape=image;verticalLabelPosition=bottom;labelBackgroundColor=#ffffff;verticalAlign=top;aspect=fixed;imageAspect=0;image=data:image/png,iVBORw0KGgoAAAANSUhEUgAAAaUAAAB4CAMAAABl2x3ZAAAA/FBMVEX///9CQUNNWjFrpDqT1QA5ODo0MzWGhYYwLzE8Oz35+fk2NDcrKiyhoKFzcnS8vLyvr7CSkZM+TRpkoC65vbGK0gBCUCDT0tOdwYO1z6JHVSjR08yy4GZjYmNqaWtMS01fniPv8O1aZkLHx8fa2tpKSUsnJSjl7t55eHnH6JXm5+M5SQ5hnyakpKSCgYJUU1W34nLS7aqNlH+AiHD0+umXnYtmcFHb6NOa1yHr99lbWlyOuG+AsFo2RwWq3VTc8b6Zvn7D54zE2LXi88qyt6r5/fOm3Ejd6dXY77fF55B2qky60ql0fWIoPAAbGByg2jlUmQClqpwIAguox5EA4kUbAAAQyUlEQVR4nO2dbVvbuBKGnYCNk5i8EJK0YQkEQiAJgZYCbWmBlpYu7bLb5fT//5djx5Y0kmZkkwDpxer51Kv4ZazbGo1GY8VxrKwSDSvLtdpyZThvO6xIFce5wHNdt+QFh9V5G2OFq+qXclxeYXve9lgh6vg5Sf2leVtkpenMzSny9uZtk5WijgYpxFSbt1VWksa+Dil0enZs+p3UDTBIuVxh3oZZAdUQfzfxeTYg/42E+rtIh/O2zIqrRVIKbBbit9FyiaLkVeZtmxXTXoGiVFqet23PW8U/r16++PDxx8JLZ3Xr9uhutVckj+2QlFybgHg0XV99Wtjc36/X6wsL9ZDSSrvdbq6cbx2tdtHj1y2lp9buy5BQiCdRRKmZj9VujvIna/optMdzrcd7BF3/9WNTEFIpTUit5O/UHrVMTJds9PAY2n2hIEIohWqev+lJ523bSPzJtPtBZ4RSCjvU6BQ6viKRIAo1t6d5nrr+hDEiKEWcbkE3WSJcXmk8vwd6lvqwjzEiKYWczk/4yQdE+ODR0bvVvfV+4BQ370kpHJ/yyfC05xGjko0dHlCDRuPY+QvvTAZK7a24q1CQSnax9gF10Vhc/OY4P+5JKQ2Suz7n53pOOl6M1Lh0/kR9Hj0upUDyy3N+sOekL43FWI7zCQvyKEoIJBdEeq5vFwAfUJ8TSo3PThEbmahIfCs+HUDyazXfdwuFglsK3OWU6G7Y2q5Uq5XW0EaB6VqLQocE07FzhWDCKWGQosRqa3xQ3luq9ow3bdXO/MD3IvlBcFjbxkm1DpZQ1ZYr2vW3iWOFDuIDq/zAAzwt0uMH7BEv0PBAv6yiCmX6WDddWETlPNf+PhGY8AACzz0QkDKot+T58hzY9fwDDGslcAmVfL8sB/lV8limftzmNZ//zwZqX6uvnKFp2YeXRcukpEMkeb6315KO5RaViIF8eJ5fEZgaN86uHkBglKaH1OsEWJqiEJy1tGMrRFgSn+HnIKcquVrMFCSUxO3xVRVRHRAQlKQZfAGdbdCL15OH3YAPyy0q4JS6UesDTGEA8SJLtnVqSMWDPrXGUQjKaqMYKUX37IgzpqGUC7B+kEpJSS0H2JKbkVJOrs5Oo5Rv5yVMaAChU5oaUqtArnBERvpKo6VRyrk53kJTUUJbOJVSWX7RSlgsm0YpVxLFVSmU3rTjVgeYkABCo8QhCUuyQar2U0zvy8NnKqVcwWXNPB2lAlKIlkZJKxDFhrdUSjmX39pM6esKa3eB6afjfEyhxCCVAaRM9eA1enmDX0iKmNIpiWaejhJWyZ5GaazeKUAin3RKuRJ7ViOlMHLIa5iQAEKhxCHBedLkf7rIUjs0XIMUzqzU//IgpgyUct54JkpIJXsapR31wlgQkoESHxWNlLbaoIOsHLHepAUQMiUaUrGdN0GqyO6uFPiH5b3ymRd4EiofOD1AyRMqudIJSVMCSh6uf1BKOU8dmlIo9XSP4BspQRtk03fSKQl/J2N65TgGSoaelG83T7S7cA0lSP7OmE0pu9Uz6bn7IkgVlAoVoHEnAA+bFPwJSjsVQkqbsEuf3Y8Sst6J1HYISofAguryGTQ9iZYMlIojZQrEMDXeKwGEVENkgpTPn+N1YJEOgXVuTnYzrUPo2sRnGoCSfLHuHgyGJ/8lKOFzVS7tuwNPmfGbKWG1AwU9988pqX8brotellAxUDpq5wlMagABKKVAyrdvqbapAg5IQLgMeprLB3SSUniCuF5c/zI9Jdh7I5kpCZu8bf5PvQSHpOQ4B8KAvmyRRgmGDgqmxms5gBCU6OguhpTPj4gAogje/QArhYCjVp/1SAMlUE1bmvibGSjlXImGmdIZu29hT+QgXC1SNFByNkTr9SSLNEpvtK4EepPj/KojlAyQ2snl2qd404DB1MdTilXhSXjMZKLU420ZN9EslAodeICR0pCbGQ4qogrRJR8YoQS6Y0WySKWEdSWBCQYQ9frmS+frqJ0JEtmZgC/uoAdIozJrHRMlhx8eJ9JmoZTzYfc2UqpBMBIyWSZKYmiLC39JSvqoBDFFAUTk8+r7+x9+Xb3ddYYnb9qjpJsYIREjE8h8oVmviUR4wXIuRkq8ND1uh5ko5fpgYmqkxC2a9OBDbp/qq0yUVE9JUdICPAnT60YUQISd6MVbcM5abLIZUtiZsEUbUUZu+FAGzI7O1P8xUpr0ztko5QoCiImSeN0mCQdxU/XlewhKX4maII4pDCD+fYk9YxqkPDpnAl3JsDIrLp08s5ESf9SpPV4HZBFc0UAmSiJmmdyly2MetTo0o8czUtoiITFM1/gjpkIKfZ5+lhjp8cUYrf282M0bowflUe9PqbDXA4GlqNIwUBJU3JiKoLYjH2miJCL42LUTlIakw2OYBl/QJ8wAKb+ixw9VJaghJJon+ZwmWyTuKZH4Tq+FKnHFsE3ArEsMTQZKY/4eab09kCddGSPxlmoR0B3t8BgmVABSQEHKt/WzRScxf4HB39TE3OlmtTkfFVsVkdrkDObVkksbKPFDedvzHl2Q6x8MlPbArLaoWSRkcngTTHAo7G1vt+LXLBOkUFrri2UzT/sbFA+ZEq9FUhqWwSw59jWpOfHER8lt0gXXcRNvTFMSf+E+QdTHyweTlHpZM0Rdo8OTwrRKJ6r18YOgU8kMSY/yROurmU1ZIBRUKOWqQMvrUrZ1PAMlZxuk5ZKidpoSggSAk5ZsQbYVml47zJxtXV1B2ha08ipn5Po83PV8cXkjpHzzq9r6/ERiYZ9JeEZfpVQCktP/vrZycR9KzhI4rz80UhKxGQiCRKgpLfuCZItkumSSceXihJjSxmq/YUZ1iLXVYNkESVwAoWSu7gfjV1GhRIrFZtNScjYA8x0jJREEgVQDsBku2c6+Cnhq7EoriWnFHaKShEMiL0FTytyXslLibn9qSkPwLroHJkrCcYO0nTojyE4pZUXdOCw175KjdoiSrHRIIzUJxENPbCIOtKREGRmqU3KsIaem5FSUoYmiRPAQ7GBolKE6hY/RKCXzbIk1cXnqnqTPmNapuZ8iMQcqZKOEV3oVUHlYJD4RCI2jeRBFifBt4sYeSLmmUvLW9QtDSmum4IENKtvEmJTMN4emoa256sgSsRFV0xtLBN7rmSgF4KkApQ6q9SrZJuCSYQxAURLGSO+aKPyC6f4USoU+6I4oJUMST/SDDeLybgbS3GkyiSm7r5cZC4kRIllhSqtAhssFU2SIeJvATFGp1sMpCWNcOWcnPEBfuHojJTc4g70RpWQM8UaxYS2qdI5N50xeU8s+iMSVcSeVqpLfgpSUYv5wCrcnL+nMQknaztSr4RNVAUPJf6NPByip1fyBv6RU82OUqLWliZKVPmpjAB5Lnxouoq0xdcG7amg/ka5JHD+gVJOEfBkzEyVptyswLwSUwDMcyonCbTAi8sMFpQ3Z9LH+swWoRehiOmvgZFjSKgPFmxEfcHS+Qmq0pdoh4iBtUVMIFLolNzGuXCiajVIRfSshJejC5AQhrLtpaYenhLWkRbcmSvHqUJEu6E66+3DNJNUOMTAZdggV7zMrfHg6Sk4Le2JIidwOC0rM2memtDWiu8F5PPAP6Ypu3/yVHy5QMklutwuiShbpPiElp4ZEKoASveWpJB7DzkzJ2Atip5lO6e2nFwZphgC/TyxewOw0a+enpCQvYmiU6K3lJPF3cGZKGUTtDi4oXW3WaS1oF4Qxo4vVpxRBqsNnywJPSqmr9xZBybAblizm0Gem9PkPgwbxMbRRSZ9+iW4sleiHbgkMolzdaXZBZCWGrielhEzkBaX0LzrYKcmzzUzpgu3vgKjxLT6G3uEzaQP9w06gj7olUjG/Vt1ahQ0kqq6elpK0iKFQoib5mliKb2ZKr2hIkw9jIo2p+RKzAt8MJym0/ICYIv0OhrdTBeFTZQP+rSSqyKelVMRlaJNYG8q7ySnBr2HQJKH4c/KVzMyUvpsgNd5PjhlSoXjSo6n9v2JKvzBb1uVv8ILO8nY0JRyXfSm6gotp01HKBbj+p3y/pFNSn5pTgpP8MpYkFH9PkjMzU3pt8HiLi8nARMQ07J7Y7h2C0l+YLUVlKaRQ8qIpoavcqABiiykpEVK/BUQiqkqAnQHrCfW6/YnEtD1poZkpfTFSehcf1MU7Uz8Joz+YhqX9K9SYYi5DNOvBOP3JKUmLGFi9OvoNrXz3uIlmpnRspNRIKvGqWJjHvpe4Njm8hc1d3JrihmkfgYmZBWky9fSUHOwMGEsRoQmYusQp19nnS0ZIr9lRS/r8gf+CnDHCW9gk7SmbZ/Dembz8NAdKvb5+Bpjjo3s7TJ5MgJzYOjulbzSjV9dhR2Enq70pYAv1yDY4UMh0ibclur1NYmNfDdDnQEmKRfWv2vvUFyPgq5JJQnl2SgOK0c8wwNv9WOeNJDWp2+fvkSkMp0K8RF1qi5tCUNZaYB6UpGRWfIZoBUMKx5MPmp0SET5MnN2vzYX6J3ZgscY+8y94/SXeiL9MAR4ZPDAND5S9A6LLl/plZFgGy6Opj1pFsqVTUQKLGPEZajfBpXQ4/png9Hk8jFLjVfiHq+jXRxY2RSRdrBxshPHyzkFFjBhXZn+3sEl8rwEuWg6iEHzCquCW/GC9inqSyj+8yDv1Uat9vDxcKNnvYYkdGBBfJbb4XeMZ1nogas3p+/f+EUeNo8+52V3M5bwGiy4oZ5d0kn9N7Vz81wwJyw8hD1Wtlc92dnYOO0vVlt1tEpM2r2XOLukMb41np8QO+JzW6t66likBZ8cgnVIbN6zl0zClOjyrjIIuL3F2vOUjSLfNdlstqot0E/5pKwVTJodnlUGXDcLZMUj5fFv/8vLmXWPgdM/NmFIiPKt7iHB2AlJUoHrZeHXJ3Nf15avFaJOia+duZMS0P8/HemZKdpZUnF0yJrWT8slv4RGNxZ8Xf1x8i/4x0YXj5JtbRRKTcUprdU81EGcHIbVP8Kxs44uzNmrTmDZtVP2A+tyY5Oygs0sgxVXko6HzGc1QLEZllySmul4+ZDWD3qnOToIU7fpE5JEG0Xe5FCYbhj+4fsnNDCDlV1bJJd3GcbRNJY7JjkoPrbf1ug6JFSc3w86GQ5oEEFvxL8bsamnXeT/Us9NbpCcxSO075z25otu4DAOIPNabUlJLVlNIWnDd/BN+7TLqGuvB4u82NExohZfVjCIhtW/VVJ/cmb47xehbQNXp1W0U/ggSHUGGFH22OTCVsMQBhIopuojVw4ut5ymQog0bDIx4ACFj2kf307OaXfHvAKqQml9TavZYAAEx2UHp8fSxjvSkURFZzVXEPvxkmOqGwiGrWfWjrkFqH6UUVi7GP9QUbyYQY6ov2MjhEVVcUCHlRz0qhQcxHbMfyphgqtvM0GNL2RVgKy12mOgb3wyR/W6t1WPqjbwPSnPVuUlzeIuTAIJtHd8kNuS3ekjdSlverJhKlKHY/h7NU9uXnkJHYL+a9okhhSd1piSAGGmbFlo9jlZHIoU3TPmkU2A6jvYWPdf2/7R6LHVPk8Ep2kMoU1dajAOILePW01YPrLu4O62spXzRCTvTjWMZPbG6t9Ho1DYs/2mUvs3b5v+i1rZWmndpKTzBaPFm3gb/R7Wa7zp/ZGP0zjKao64bWaa0F5fztvM/ruPBu5Rli3ffj+dtpJXjvB/8JHpUo/Fz8H7e5lkxXX8ZXIRMGjGtRvyvi++XNvf92+n6/Zeb14Pv3weD1zdfbBeysrKysrKysrKysnqu+j9gZNfl9qxssgAAAABJRU5ErkJggg==;" parent="hP9i1joXD9U75TtHQduj-1" vertex="1">
          <mxGeometry x="471.51000000000005" y="226.43" width="89.28" height="25.45" as="geometry" />
        </mxCell>
        <mxCell id="hP9i1joXD9U75TtHQduj-65" style="edgeStyle=orthogonalEdgeStyle;rounded=0;orthogonalLoop=1;jettySize=auto;html=1;exitX=1;exitY=1;exitDx=0;exitDy=0;" parent="hP9i1joXD9U75TtHQduj-1" source="hP9i1joXD9U75TtHQduj-15" target="XhQMVAEQTmFMAy6jW7Kn-5" edge="1">
          <mxGeometry relative="1" as="geometry">
            <mxPoint x="552.4099999999999" y="306.75" as="sourcePoint" />
            <Array as="points">
              <mxPoint x="440" y="341" />
              <mxPoint x="440" y="250" />
            </Array>
          </mxGeometry>
        </mxCell>
        <mxCell id="efUQGsohZJ-c-NTUhMi3-0" value="confidentilal client" style="edgeLabel;html=1;align=center;verticalAlign=middle;resizable=0;points=[];" vertex="1" connectable="0" parent="hP9i1joXD9U75TtHQduj-65">
          <mxGeometry x="-0.1916" relative="1" as="geometry">
            <mxPoint as="offset" />
          </mxGeometry>
        </mxCell>
        <mxCell id="hP9i1joXD9U75TtHQduj-68" style="edgeStyle=orthogonalEdgeStyle;rounded=0;orthogonalLoop=1;jettySize=auto;html=1;" parent="hP9i1joXD9U75TtHQduj-1" source="hP9i1joXD9U75TtHQduj-67" edge="1">
          <mxGeometry relative="1" as="geometry">
            <mxPoint x="740" y="50" as="targetPoint" />
          </mxGeometry>
        </mxCell>
        <mxCell id="hP9i1joXD9U75TtHQduj-67" value="Source dode repository" style="text;html=1;fillColor=none;align=center;verticalAlign=middle;whiteSpace=wrap;rounded=0;strokeColor=#000000;" parent="hP9i1joXD9U75TtHQduj-1" vertex="1">
          <mxGeometry x="810" y="20" width="130" height="60" as="geometry" />
        </mxCell>
        <mxCell id="XhQMVAEQTmFMAy6jW7Kn-5" value="pliot server" style="aspect=fixed;perimeter=ellipsePerimeter;html=1;align=center;shadow=0;fontColor=#4277BB;labelBackgroundColor=#ffffff;fontSize=12;spacingTop=3;image;image=img/lib/ibm/applications/application_logic.svg;strokeWidth=3;" parent="hP9i1joXD9U75TtHQduj-1" vertex="1">
          <mxGeometry x="610" y="220" width="31.88" height="31.88" as="geometry" />
        </mxCell>
        <mxCell id="efUQGsohZJ-c-NTUhMi3-9" style="edgeStyle=orthogonalEdgeStyle;rounded=0;orthogonalLoop=1;jettySize=auto;html=1;entryX=1;entryY=0.5;entryDx=0;entryDy=0;" edge="1" parent="hP9i1joXD9U75TtHQduj-1" source="efUQGsohZJ-c-NTUhMi3-2" target="hP9i1joXD9U75TtHQduj-26">
          <mxGeometry relative="1" as="geometry">
            <Array as="points">
              <mxPoint x="740" y="347" />
            </Array>
          </mxGeometry>
        </mxCell>
        <mxCell id="efUQGsohZJ-c-NTUhMi3-2" value="" style="shape=cylinder3;whiteSpace=wrap;html=1;boundedLbl=1;backgroundOutline=1;size=15;" vertex="1" parent="hP9i1joXD9U75TtHQduj-1">
          <mxGeometry x="682" y="192.75" width="118" height="86.38" as="geometry" />
        </mxCell>
        <mxCell id="efUQGsohZJ-c-NTUhMi3-4" style="edgeStyle=orthogonalEdgeStyle;rounded=0;orthogonalLoop=1;jettySize=auto;html=1;entryX=0;entryY=0.5;entryDx=0;entryDy=0;entryPerimeter=0;" edge="1" parent="hP9i1joXD9U75TtHQduj-1" source="XhQMVAEQTmFMAy6jW7Kn-5" target="efUQGsohZJ-c-NTUhMi3-2">
          <mxGeometry relative="1" as="geometry" />
        </mxCell>
        <mxCell id="efUQGsohZJ-c-NTUhMi3-6" value="&lt;span style=&quot;color: rgba(0, 0, 0, 0); font-family: monospace; font-size: 0px; text-align: start; text-wrap-mode: nowrap;&quot;&gt;%3CmxGraphModel%3E%3Croot%3E%3CmxCell%20id%3D%220%22%2F%3E%3CmxCell%20id%3D%221%22%20parent%3D%220%22%2F%3E%3CmxCell%20id%3D%222%22%20value%3D%22%22%20style%3D%22shape%3Dimage%3BverticalLabelPosition%3Dbottom%3BlabelBackgroundColor%3Ddefault%3BverticalAlign%3Dtop%3Baspect%3Dfixed%3BimageAspect%3D0%3Bimage%3Ddata%3Aimage%2Fpng%2CiVBORw0KGgoAAAANSUhEUgAAATYAAACjCAMAAAA3vsLfAAABIFBMVEX%2F%2F%2F8xYZIAAAD%2F%2F%2F0yYJAyYJT9%2F%2F%2F%2F%2F%2FwATYuLobr6%2BvqkpKQ2Njb09PQvLy%2B6urrx8vonU4%2FW1tbv7%2B%2Bampp9ka2wxNE8PDyGhobJyckxXZLh4eHn5%2BfPz89TU1Otra0fHx%2FAwMBra2uPj48lJSWgtcMkWo6dnZ1PT097e3tHaZNEREQZUYhcXFwSEhIhV46rvNDB0uHd7O3c5fFYdaEXFxi%2BytmwvtHS2uQlTn1if6ZzcnJBbJMSVIiClrJsiq0bTo9MaZyptc%2FF2eHGy9aHorRwirNvlq%2FI1eg5aZM9aqCrxdyaqsRkgJ1AcpYAP3gvXpsyX4NRe6Sfqsu2y9GXuc3k9%2FnZ3tPt%2F%2Fl9lrsbS5TS4OHf8PdhjKZJUkp1fncCTaaGAAANLElEQVR4nO2cC1fiSBaAi0pSgUiAEBohBHlpWiAYeYiI8lD6pYO9rtvttkrP%2FP9%2Fsbcq4REfrTM7dvqM9c0505BASD5u1b2VKkSIw%2BFwOBwOh8PhcDgcDofD4XA4HA6Hw%2BFwOBwOh8PhcDgcDofD4XA4HA6Hw%2BFwOBwOh8PhcDgcjh%2FFzCWTOTXo0%2FjFUE2QYq5aUXL5UryUzylISabKsR3MKDYq%2BcBO8tdCjVdjeG4lE8%2FBJiVe9jxhvL3p%2Fru3t%2Be9qGIGfcrBo1RcGbH1dU9eMbPGnK1vNBob6%2FAgmiklVUUQBEVPFsp0V0YJ%2BrQDJlvEeDOTNZkHqqUaZe5SSa%2FFKiaLLVlvzWaqTDeUNiD0soGd8a9AHMKMGdDbvV57RtjDQr0KFpV2d3%2B%2F20vAFqFXOwAGjtSftuF5HuIyRV%2F6SoOuhPEhRNC7N0fWALCMznC%2Fzdw1R4bmUhv2CJK3LJFh2Zf7BCkZjCtBn3xg6NBLIeH2aGCFJAD%2BZ1iOdqygVn8ghgBDgv8suwamZjVPnDg46iG09oq9VXFdQPtjA1xQawzJ6Qm3ogOb6BMXw%2B60ERkNxLm4XYQKGL%2FS%2Fg2CLYl6Y8Onzd4SZpoR8mmj4vYRebPwdhBBqIJjQV9AMFTwNhKOQz6MIyJ0rNB9nAjEm9tOQyzeVCr9NRLFcXTi%2BORI9gRNtQeshUID8HZkuVEoitotauBC0FcQBNBGTdSR%2FMF2SWaW8aA20dlFMxZu9Jk2RanXmRTy0DklbL82O42%2BOtKio%2FNpC9lNlLZdayFrCDVfJuhLCIICbqB3fm2So5Mj4xFtonhMyOVc2wiKvlep7S1c9tbgThtFLedxbc571PbCjWl7lY00hd%2Bi9%2F6kCelyl255SBvdPGihD5ar7Q1oe5UpIQWX%2FdGvbfAJnUM0PRhtNBidj6jnxqc1hUb%2BKutdps2fNQdt%2BRTGnY5m2%2FdqN8sJnZ6dXRG3b3NOUAbngr6EIEjhtbvRJiqq7fR3J7P2b5d3Cjrnw6crAqARe4vTRGUc9BUEwtr9vq2Gch9b7l4S8XlzprApQW8tXbPOz2ihve2XOzeB8cC2l%2FvI55LFVbTl19aBzfLt9Pz06D1B%2FZV9kDjl4ee%2B8a99N9qkPjFfMpE%2B5EeQZfnlPvHZmDAkndg%2BbX0ktEcHg8%2BTXuQ9aq7sG3TRMIKENFS8zKYVgWr3hTKCgGbd636n0x%2FuJ7wtskDau6NOrdaf9oi7TW%2B2X%2Bbjn0LZKcrmXW29sRWyPhMYfqpEXORTUZwJUq2bNuwZqklu11bFLzT9p1yPby4uR9%2FP%2F31wMFRp2AnCu07YPjr%2F%2Fv3zwA7tslelx5GX%2BfgnqWNd9lcaHdSj43jrcncUnqDLZSsVrxTD0DRDulJZl2clUKz%2BMmclD%2B3jJnxvCF39djY4Z8H1n7E27LG%2BrRVx7BG9F58OB6Utg%2FO%2BDoymhLbGOnzHgIF7ZLnPmqEzQzKMU5Kg8Wn1oYmnvMM01qNALBZbr%2F4dFclkfDqj3T8RCLmS6B1RsFabIJkBLbhjj6DrC05bHCoQf76ETKqxm5MhEXqv3eU%2BJ41GDmi7JD2qDZyuLaq2GK6kKJVDjP%2BGueetReuDaufEgXB7Z4dmaLnt6jg8DTLadBjLN%2B072uy5thH6bbnP%2Boi%2B2BCErjbJagv1RRuN4vkEVq4Y%2B8FcVrbxrImuyHhr%2FpCQdvhAQUfal8UcGa0c29q4FaA2FNsh%2Bp1GektVsbHV%2BapS8ZRcWYbhfAZtEi1HchCpHtFlbkj9KLsW8LO0TSHavGxJiJJOwyeeksVeVnFfj0%2BC1FaFhna56q3jaqNIl77qZDBBHx3o274lHElyJtAv6vOjrGj74eg%2B%2Fjxt3ZtFk6SKEBpqX1f3w7Z34Q7TFlD1G4erHK5q6y9VQa%2B%2F2oChld7ahmFBRpVAnlxsLI6yoi3LtOnZeDzpKdLz8UKJ9YJKAesq3ZorFUrgXFeQoiIlHy%2FBNjVfKnkzE6qkHTXdI7raLrXJMtrYxoRtkAC1mbiMuit33Kxr9GWeBpyRv9%2BDXHppGHaL1AwYaMVxaXEUXyPNI%2BUQ79TX8R6LuwzebJTreMMEo3iHTsvm1%2FFmPYarOo5DWskXMV6ns9WxxgaOxdlB2sdjWzyPdNueedHxFbagTZE0NUBtKFb0dW7WFG152iTHl0lFEcJtYhv2hMrT5cbKZN8yJSR36rQaZOFD7%2BaBF2Y3V6wjxVzDpqnmcJ1Gldk4pNr26oemoqAN1iWqVex6I83rM9u2B7U3dJigiE7Cd9JQ0x1repDa6L2flek90DYvSCStudp%2B6TKGFtQgoK3vTOX%2FrvZhUZx6S0kd4k0TAs5rbClsooaXbgu0WmF9W33Tc7zNoq1MH67N3zLvMCGgWpOt0cU4bEWUh7TVtFaQ2vKQD6c%2BbctouyI1yaeN3hGn2uyWXF4dWEV3Yi7bFbjqWNnbrMCxy54kvaS62syF75LbSOnDxVt0by%2BRZSIgcjWBIUEf1Wz%2F6JNAAGpXQWpDxXXUXnZuUFjMUwJUu80Db7rFMzdooWG4hUIRCLYKWp5xdNWhvozD7TJK4mKmkM257qi2%2FGJKOse06ewtlaRHrMr2EUJHCXSABV9U74PdRO5to%2FmRzWBTAi1BTFRbUaPInin7Fo1EvzbrO5pdfFPDV%2FIhVoVHtJle%2FwQ0NuBpZYMuMSxTWVRbdjG2MJk2lT3a9MI1Fq0iPTJl1ujxwdwHe7qrXSO%2Ftm74Q5AFCK0YfK10sC%2BkWbhJl2Q2uKNNhNqtKXS%2Fsqb9mLaVaNvw2p6ajNdpkFFtycXwK7nQpq92lLJpO1cw9Jxri9gRVTMSq9oE1A93hUC1KbgODWHppqa4tyFhDDq1fNZoMh3BhYy%2BQa5UhMe0%2Bfu2gtckdTqlSrUpi7nVykIb8pomCK5A%2FSLak7k24NqeojcQbmRRuglookkk2GhDh3RBw9KNFRHIiC44UklNvKtNHDRRuwuXH0er5%2BvXlpo3Q8ikCp473PO0gS13%2BJXHS22F%2BVve0gejwYgstdXsLpoZNyfzwwsyalt2jwTbt0FbSblTo%2FNmOhVI89KmA9L72kSoeZG8s67rZn7tcLvqdvV%2BbUq0SNuhkqI3ljJeT8fGqiVcghqtgRuFUryM40ttsI013QIt9WgWGBLkfTHTQQ3irKfdXM9rQ3nfsb4gEuSYlLK%2BoySWeiR7l7YGVUVQclo%2BbczcFgEVjPVt7MVSbDk8pShlHNuuY%2ByNEoobje0iG%2Fcr23SUgErlaKyeMfUVbTBKiDYaRe%2FuQNexa1u9WUu%2F3e%2FbYpu2z%2FbxzUVk0mq1brcubcf6CpvSduf6zZLeT1RGKUAhv0wK9ldENiomdC6Q%2Fof%2BOb%2BQFKJrokkum03qMg1U15d69%2Ba4XiosxqRqPh4vLQaoyeVLc%2FC5yuKpmi0U8t6rhNbQCofDME4IDz7O3HseZPdsfHMzHo%2FDg1HaGPcVtD%2FWVhh%2FejlDD6JDUkjMtdG1f%2FSHB0UdddPk251gc7qoNzphtyfknC5AOiFPHf0e5Q3vQQE%2F9qMQ0HQ1SW9tfd1tXjFpbERP2vvT6fTkEyTV2XG4jxJ%2BfvqadXprPMKW%2B0nOdwKVHKarcnvhm7Q89d2Mk5wEjKE17bjTOb45kaF3X3v66HfxBgZI3Wk89hKyyJp0xorc%2FWogDygfEvfmBMlPTg8qjqIES5vGmQLJDEcrOZQwHG0opH2tVDKUxJhxdj1ja3f%2Fyle8gauQEjJ4XX%2F6tfenk91pZ4Hc20d%2B%2BtQzvVdB118ZoQSKr2dpf3MriZLTkv3aQqeQ07r73U%2B0h8tB%2F%2F7XJlyy1Xq0Xn3WHOt9E3NtJHhtyh4IaBrjWhvl6xB9t1vnmuMYTVlO%2B%2BfsP89P8Vv2EP%2BM9fUPmHgs2gKo4fJ4T0dKOwGjwwxSRgcHYVuKqNCz%2BLXBmDT7%2Bx9%2F%2FNGgP1%2FDGzoKrNj8RUjhHRo6JczWzCsJMwFfZzJzZ4WI9R5eyNhspHJBfL%2B%2FGhVQsb2JaRatsiJLyTfuLayxtiDN6mbO1Gly%2B%2FmdyS9IKQri4ihX3WM%2FLY3Bs3vaBmnUeKU%2FfHkc92ejSEnGK%2BX6diabw4fI37cNJij6O7pXR3FWycGIM%2B1bRz6YKaAScW0%2F4p42SST661xS%2F2egC0T85e4RDN5f5ZL6P4OKN1B3VZsxerkFlP8c6O3y3uq0%2FEVkZXEW5zE2i3J7tW%2FT0i%2B37vQfRB0rM2dljarWRNubQZ%2FUr08Zm0Q0Fj%2F7lpwZWcyocB6F3r48dxbe6PpTvMartqdYgyItrc21GeEudG1Jru0p6I%2BbFdExXMLXKAEb%2BNDqKRR6I%2FLWcoyLiwsttEugsyvwYHuaKo7pqPUmJHWu9xOIZPAL%2FjTtH4QSxbEkctulEo%2Fi%2Biv9Q1B%2FFnMH48NsLpeMV%2BkjhTfR56FW538yMEb%2FQiCPtueiF6qNRqbAh6IcDofD4XA4HA6Hw%2BFwOBwOh8PhcDgcDofD4XA4HA6Hw%2BFwOBwOh8PhcDic%2F5%2F%2FAcF2ZtXopm%2FIAAAAAElFTkSuQmCC%3B%22%20vertex%3D%221%22%20parent%3D%221%22%3E%3CmxGeometry%20x%3D%22693.3299999999999%22%20y%3D%22223.56%22%20width%3D%2295.34%22%20height%3D%2250.13%22%20as%3D%22geometry%22%2F%3E%3C%2FmxCell%3E%3C%2Froot%3E%3C%2FmxGraphModel%3E&lt;/span&gt;" style="shape=cylinder3;whiteSpace=wrap;html=1;boundedLbl=1;backgroundOutline=1;size=15;" vertex="1" parent="hP9i1joXD9U75TtHQduj-1">
          <mxGeometry x="260" y="370" width="72" height="77.25" as="geometry" />
        </mxCell>
        <mxCell id="efUQGsohZJ-c-NTUhMi3-10" style="edgeStyle=orthogonalEdgeStyle;rounded=0;orthogonalLoop=1;jettySize=auto;html=1;entryX=0.125;entryY=0.844;entryDx=0;entryDy=0;entryPerimeter=0;" edge="1" parent="hP9i1joXD9U75TtHQduj-1" source="hP9i1joXD9U75TtHQduj-26" target="hP9i1joXD9U75TtHQduj-28">
          <mxGeometry relative="1" as="geometry" />
        </mxCell>
        <mxCell id="efUQGsohZJ-c-NTUhMi3-13" value="" style="shape=image;verticalLabelPosition=bottom;labelBackgroundColor=default;verticalAlign=top;aspect=fixed;imageAspect=0;image=data:image/png,iVBORw0KGgoAAAANSUhEUgAAAU0AAACXCAMAAACm/PkLAAAAflBMVEX///8AAABvb2+lpaXX19f5+flnZ2deXl6Pj4+5ubkJCQn8/PyxsbFFRUXh4eHp6eny8vKEhIQlJSXb29tKSkp9fX2urq5UVFTu7u6ampq1tbXPz8+KiorAwMB2dnY/Pz8xMTEbGxs2NjYYGBhQUFAhISEzMzPIyMhxcXGXl5ev2EY/AAAMwElEQVR4nO1d6WKyOhAtLlWhVWzdl1at1dv3f8GroubMZBICIupnzr8SKuGQzJ7k5UVHNB2/LsIgXPb6g47Q7uGOz/8CxKZav3WPHhftYaBhfOtOPSqaOpc7/NZu3a9HRPwtkrlD9dZdezx0QhOZQdC/deceDSMLmUHQvXX3HgwfNjL9ZM+Gip3MIPCqyB3zNDKD31t38YHww7j7bqz51Pdz3RUDwtt6e7jYGVM6oxt38mFAxmHrfLn+itcHN+zgI6GGpLWxZYaz/1bdezAgZ1PahKNzdJvePRpWirEv1hSLIsDDjDowpkU0Ydx6h8gFbZtsBJk6vEHfHg9bRVhTb1WNq/K79oAAR0gw0VWjd4dc4NksEjDTZ3qrn+nZ4KqFGjfo2+PBaiF1vYWUEd56LxIWz7IBTd6zdII56gHz3Ec9XLFAOnNE5OJ2rfbZ8QHQBCxaPD9cdIwWj6qN5fGOXtNnj/bgmYzFsMeuGDIZ2zW968MnPFyybB/Sv32+6zeGk7I7f3/IlQGW65aCYVx69+8NC5mZE4QJXBcGpoX6p0LmypnYVh0y1e9/LmSs6qrbS22efnTGxpkr6em16eYjvOyUtcpSGmdj8VbAuvTe3x3aDZ0WsVK7k0ZmELyV3fk7BFtFsDCsImCsL77G1S4rTQ69o7lDtD3bnoO24Z424a3xmVztzMhl7xUdMDnxYbyjj6xB2LP9C9eXJXT1AfCWyiaSSUzLGB3+p7eSDkhlc2qezygDhOT8EyKVzT/F2Ia3gezsXbebD4JUNkGjawGjEQzO63bzQZDKJkRIdJcHDKW7SSR15uN+433xcwtJnsqmUjWC3gZ9/2l7ymT1fsLlXbah0zyHFI4ac/Z9fPB3CUntNDYh/y6Uf4B7ah0K1XIkQvQFoufIpgrmvl7z0QnS2IxU9xZ6K6ihO2CzTSJjt2CzlfaWvzYiQEWZXKkDSmGTxRNKZzOeK4f7tSqPLgjd6TdA5607BZTCJgvClstmNOGpyrAvqBIQRVocGfJ1YmLujDLY5HHDMtmM/gIJ71t+4xu08jKwjWqqWJ9WBps8nVAim4PAhB4TgFjqxeppMIxkTwWXwCYUpu783GknPgYJr89mx5yBDFjImO7+QdYWkKllT2aUwCZ82gV25upsks8oYH3WKHGfNW3OmigmdUspPS2BTRggZHZdm014NQN+RuY7h5NOPYq3jGarJ1QKm+oJtCz6ymzK6oci3OubbcoWC4C0uu5S2aTJreuymZqATBBL2yUZkRbyuD6b4AHTsuirsple0pXgN/0WhdT115ewGdXrDnuIXYXN3ZOt6UOMSBYGXj+vIyebcaubbOuw7HXnKZSqJ8zJ9Zxsdt6+3pf7//oYNo2lQVqlphPGVsXlsBjGyOZ22DiDl9u1WIlJJVF1nfO/DNvwG+q+96TxqBiNbI7hyf/RpnqV1b3NRry3+z91o31drXXiuD3vmiuTKiObte/0yU1skiJ8OgQGvGh335M935/q78Rcm+g3ws+Z2MQBEpLvGEllME32pBcSXkvQB19xLtchfiddNtqoThv5GdgkqXpC5ueKPyfBtig2if4YGVsUFh18Uvii6fMP5kQKtlN4FumxUGize4ZbvkBmE51WKu3MkmVQDJuYiaXhhy/th9TTKJu0VV+CPmX/H/yhSpvqO/m5lniIbNZxMhBFzD0wxBzCmLnZJJMCx1Rk87k752Dwnk06hqX1/DX679yMrPVRujbmwi9kYBM/DrGxiM+qAd4iL5skroxuXGQQMAk2ZGySufojvjbtmTCN25PZf6+NSrc6zVLIJbGJvSFjvBtYAZZwTjbjX/22BCkmj3IOQ7Jg1VhfTRgX1lzng8AmLmX4w3sN5EhI2HyTG81s4gAk88smYShCKhVNRiKZBFpxR17obOIAJB9N8y8+XruzWUWcggmbcW0HeLnx5/5C7Wjt62yiGUvEtWa3rCqzWbch2TohVZRGXUwGZ1HbQmtsonVBXSlqOoTjk8KNJ7oShJcA4y/Fs0SpTKp4I2rhLgYnK7RT1Wzf8AVrX80bTRBVVVS9BGcTJyfNgVCzgogA3RKE7jn76TibqUlC7UeaTOAmW4jxVItrTYzAolapMzZxSjGRQ/QA/5h15mvmYBP9HPqtiGuz4eZMmw7P8GUJf1miPhjVLKpkmLKJdhiz08A0F1P0NEyYnU30kJmOxaaNbrDESN+OTbQVLaYijo6iqjIJm2g687IkVE6i1UEi2JnZRFnB89kolqUsF9HPIfGEtESvAs6mokwkZBNFyYqPAWiTi7DI4M3KJgplFjYitoQ81nDw3s3YhNH1wW0GHLYGewL96GxsVnB0aRYimLmmOj4wlZzlJppXxcvNJXyspTahQNebPiRSko3NNRCgu9XwlUwTV7npd6PToUd6NgnMF+ORMvA5srEJEEafcg9C05NB64dkjshe+h7XtjetfCmVbTaIwSzMy6a0B4ySg1yiKijPgvlCxlzHtX2hMyQpogqbzJMHVEleNoVBAkrILAXVh8zjpxe2mZzr2FQmsjmkD5oqL5sL/Vfhvc32DsY37yOGZH0nNd3MAwRGUW65qVf0wTcy160oHy5PfFNg/POtWxkOX/vVaRYpoNj8AOmtz2YXNrXY+wEu9ibY59rPO7GpdMrdxN7B4dVMhuW5yTzToY8X2Jvca3Wa6eo19nqfZnl10WnPC221kFjousk+solfjItO9QSzYgWbNKsvBN3gNgMYhuaXUgackLNcsA8klChdI2dpWWuIJogJICoy++nwDlx0/hhbFJRjs++elk//ujyf/ic/mILGkMD+ZkMQSlqNazzg2ZnZREXMhiD4NqYng2w9fGw959KrTve1Hq2UWg9L6Uz2Wg8MMNCgLPhupgPNUPhnj8jhoKDfq2v6AfGWZOrkq0OqFlyHhIwQ0Yk8G2q/MUGUI1oMo58uI4E+LeQno88dalcKQ/YaOfDH6TuBtJHFFymIypPJgK9BnoBCQA72oOV6FOtpNe8nLB3vOyB7/SawRr4FFu9IyzzoerU8bOIvkH6jlpWENkghpSTTq94PiNtpW0ohMtcWYyATWSNs6c5DTIt087BJdAeyhuJHCG9RU/xsclyj7j1NE+n5dPyo+E6kaoaPTpbqyscmztgPtKfJj3PLj+VLlQF32ZqMRmu/JmN68ZoMmFgoOkmmInglY0Szh/OxiU4Mik5ao9pEomNeOQfm8AXrhVZn2i5dL4RSH0Uni1JUtoluj2pCjWpONnHSouhkBnf3WC5S3+pViOhc5F7LRoyhC9eyoRsLNRe61fHba6xlzyInm6TnIGZYlGKHxbrRE+UdddXMs728dZb47+iTGbumIS+baHajmKH7j9nAHF/DGuBemWuAIYqC75SiJmGY5mYThwgKKTEWoWDJHUUTvr4q7ArKBCRn0evT0RxCh91cLL0HSP3cbJIJgKLTKgLfSW2xhnjePP97pSrr5WvunYCmH5ar2epht7kzGURTonpF2WazsmM7my+33tcDFTiKEfOCmpa+iuCAzGvZQLn8ojFk/pJttopAwG33nMGSSfLzbb1Y8/SUgthEb4wI/a2wUGmH7xFf4SLgsv2QQGHk28EHjXX6ti3BKOpGLw5sUvNCmcUs1oVmTdXYQu4AjSy/Zzl7dU1nzRNYy0S1dJmw2FJD/reZOEaj83/MQDhE6ir9rm/nBh6bGZ+f3Jwxqd+iCno1SGRBzfgap4elsXnTfeRq1f5wtfxZDPvGrWuvhPp0/LVe/Cw3jVnLWMSjwe9xWCT8/ptFwu8NWyQu2Le4jqFbv2/xHvn31O74PbUZomne/d5Hfr93BsezCNiS3P1ZBH0WHfBnEUhb9PhzMnJCjoyKeyenJpKe/ej6bOcLpW009eTnC2U8+yqyH+SWkrD812E/l02gM7bR+eznsqWUHUhnBprLwZ58ZOY7z9KQ+xoWtQjmUZGeYhWXPklnrf74Y9Z5pH7TGPJLjucAu5a9/8OgGaxhkkAfOZ9RffLOe81nF5gHEPWsFqlkOj+9fTcnttwYpNiGRDrQO5LWdXroQM6YpYh1I+65kKcG1H3zenWszvHK2gWxbfzBuC3haKN/ABD71TcQAJn67GEhN0CFmbBeWjUWtjT9nwY4QoKJrhrNO0F4KHg2i4Sf6UUCtJBuoXstlBFWCwkqQb2F5ARvvRcJ71kWCRL1IEE1rPj2UQ9HkIicmtDOETkPBI0Wr5NoccctWuyhYUmJC74ba342ky/Sckb69gn2hWkeBKkZYJ/xyQJ7IYyf59kQy8u1jvBuUEbYSjJN2zp5GBEb1jE6ngzmwSBXwy6fveAtL5wrtT2cwFYRbAyrCDwcEU3Hr4swCJe9/sBHjbLgf+73psWqZ2tjAAAAAElFTkSuQmCC;" vertex="1" parent="hP9i1joXD9U75TtHQduj-1">
          <mxGeometry x="858.6" y="447.25" width="68.36" height="31" as="geometry" />
        </mxCell>
        <mxCell id="efUQGsohZJ-c-NTUhMi3-16" value="" style="shape=image;verticalLabelPosition=bottom;labelBackgroundColor=default;verticalAlign=top;aspect=fixed;imageAspect=0;image=data:image/png,iVBORw0KGgoAAAANSUhEUgAAAUwAAACYCAMAAAC4aCDgAAAAyVBMVEX///8xYZMAAAAyYZPk5OS8vLxOTk7a2tq3xdcYVo4tX5H8/Pzw8PAkWo8YGBj4+PgICAikpKQTExPR0dGhtcu1tbUoXJAPDw/X19cbGxvr6+tcXFzIyMjh4eEwMDCRkZF1dXUjIyN9fX09PT3G0d7g5u0ATIdoaGimpqaJiYmamppsbGxeXl7P2OM/Pz9HR0cqKipnh6uPpb/I0t/d4+tbfqU7apkAR4Wqus5+mLZMc5+5x9eBm7hkhqyQmaJMWGQAQIGYq8MAPICLHlnZAAAZSUlEQVR4nO1dCXuburY1whMCjEc843m243iiHpL7jt///1F3b0mAsHHanjZNbsP6zqkHgW0WW3uWkkjEiBEjRowYMWLEiBEjRowYMWLEiBEjRowYMWLEiBEBI5lpTTvd5tpx1unJrFBpJ42P/k2fBslSqlJJtTJ61KBRmc47c/hvmsrga6syazo5EkLRaXZSf/Y3f0bUUsu6zEp63ipZ/qjRmoVZc+Zp8gj5eeYDL+TjUVhU70mpNrvTJBvuPGaO5J/Xy8lksmw6wc3oLdoffEEfhswkYMYZrJ8GTjHgqres9L3nz+tmc7lsNtcD9nKw7FRKDemDjGSqsxDnpmsfdj0fiU6Py6HTLaRatXY72a61UpX5wunJAthrTlvJhsXQaMN4J9W2InSrlaykmZTXZ3/+Uj4aDS6W63npdkRvpOZNT0VWGpFGCWCN9qvdcLfaj3wVW+qykyaNB6f8rSjhjM2nMx4ROkpewJvVSPUHxfpc0GIZI0AjOGC0cVVbQ5gaVQ8vO86obrBb5Hwtw157xotu8RejXXm72by+bk4v1+Nq5HmMjRQTWmtfPh1chVLFPWyu2T1nbb81NUVRVFWBEVMbK5ssP6/FhLPy5y/pw5B8QlPBHJnRcaOYABsAD5ppn0/XoeHJ4Kh8wPcoAxyg2YftivG5P2k2UAn/IanUNN3riH32AtmcftCVfQBQty3R+9HLqmZSRUBlkmYDe+6mjIzpR1WzPcIEbM08Z/mgbfpswoOtqewki7mmX2amV+Bimzgr9+6Y+myoSiBntnYE2RydxyGiqcqf0bHCJvVoY0o8w/uau8LPn38hNnW01egODl1T0ACgXC75U20Lw/uz5osdkknFODy1tQ3OaWMz9ocZTDWL34CymfvQa/xjmMKl/gced2M7ECvk0n9hbkAuV5TJnSoGAl45beYV9epW8yj2hPaKUx3Z7H7sVf4hgFPuwCwdKXbAg6oEggnTFcRuRG3VGxEkqrL6pOMT0rbVVFkVwLko1Nb/gbv/FSJ11JgdeNxoYSL9OaxoR6DjoCkP4Mno+IBTvTxWpXfh33E5wT2kr2DRYQpWwZLvTBqwEExkVIivILdlM8yfevMCX5uMTe+meMdQcwjvOoQ8ffSVvj+ScJl9PWFtTCWQxhBh2g4muU0lBXl7BE5n/FdzIUSygM2w8+TCzegTUvzoS31/1IosQNnbVA0x5TNmnuGoF80TVvVWJmWBNQ+ofF07PIyiCcqk+vdn38GWV8E0lG9Vom+tNdB5e0r9d9VbAZXOUTW0QlkzfAjaoBaYub/fAoHKdICAsx2axYHHTtURCqZEjuzV31Cqco90q0nyrSrmiUesdwmpvw4QSjZhapoeibe2xdyAGtSozJoaJjMkmso3CHos05beU8xXK2GsvwKZIDF9CH406eJDEvoNFN5lfD+xVYWqEqU+wfbZCE10vB8HK9H4EmQ+E1KAq5dVpiya1DQS+ovIYDC5pWIgRKLkB5hX9EpNacwGMo00IX9/QSjH8phbM8SjHEmieaY3xsaPf9SQrDLQ8R5iT01wjJybrzqTzEdJ+r8HRZbkeLHVG67EM7TlwxDLnglSbzWs90x7Abf1YPuyykL7xhPJf/Slvj/y6LLop9s0pQClQ9ltCntGAY2qP9XxXxNE82J6I/D6JZFoD4jz0Zf6/qgyMjd2FEkwS11wjE5aMO2DqP0mIBKJEfxHA9VgcKXK8nQo3a06SX/0pb4/PDKjRc6GkEZ3bZUXdyiNOEpKyGF6XRuPx/8ErikzSVkWAX2Bmq8g0wxx48OEiAa9TCDJds/nM9VMqnqpjcCz524SxYrQcTgcZoHM1Tj4kBULtFoffanvj5wgUw0x6RsTCGhG38yx8pLdG8Dr/nLQaPgY/0Tb3O6Dz234YkyVEQu0/n43E3NjEDOfTIkdaSpjKvMyPg2D3i19qNjiEDVUKDIPe/lzR4qX0kM300qT9RfoRUh7fqYaGOVgqiOZq51wEA1e8R1qVA2lPdkDpZjM1PfDY/mYXemJkciNQLgOxtyof4myRZelwI+aKvJrYedcu4jDRkdsPXA3WG7kyXTV8zaFYsTS2VEdq+pYG4Ms8gyod0NKeTL/wIv8U5iJ2DxwEwMqgYghO2i1AcujnTev9j87EDOXiSaV5FJBsw8sX/eGMdTsE0imp1sphRtQIOQTZjNHu8slm71cVqPo8dUwezwes5fVj/528FmWicReC7gM6UzgLrHbfAOVqkHMnbCymJHbhhKW7CmO7rUz+wkaOpZgzfmn0TN4V31Cfsvl/z4Yw9PZBSeFta2455f97fhlc3ZxTENH5nCUxzeb11Xkh9aK5AnCP4VGRNuczItpMtV3Zce7MJ0vtpwUwpmuajy5dNQTw7OtwTHZsWfkIZg0Bp/NZR+9gr9n2jZodhseqeJuQ+J3ecWmKROGsQsIxs/lwAhrVMtGfmr7meTaicRBasaQ2ESdueXuNzVB9yWy/4A52XPqVY961AcrdqCmnjVbFS/4zUGVmeEF0M+DlWZT83w9XnYrmMvlDdBluoG07TcaUOxu+fixfIBxLRjXqBlNptFkHuBWC1kej1UksyyGqLa5vppYEjLO1LP7XmlyDN90BdYppoWxzv4q0s0KJpHmpBpy2fUQ3ouxx1i51HavgSjqKwgB7bOnOi9nW6HnYzBu7Q7Y91cWLzXlAZlYN6z4+d/bPDuK89GLZVTQIECp4QVMsp8/HuKBnF9qijoIs0wufEeTDKRkplHoe+giCpU/7IJi9Gxfwu9t4a0X/jTr2tTeWuFTjvimYPMxmQVW6t0HzW8Ys3htRNxp9zPArCVh5c98j3uVNyowm4Mmh8K9dCmXWlS17V7Iy0yu8zfrEAbzPyqeKJinm/cMJBjNbaLhUuoO707aH4BNPtMfTvNEEsy5JWaulDAXqlAiU3DHhFXzX4sxE70hhfrCKLJGMDn2zGOQm+CS6Vx1MZvNuFwu0kVSRffsz2FI2c8K40JZkSBhbYC0XcRZcHksiYaS+cAAYUYT5iDLaN4rTU6m9Aa36llJMgM/kzcyALFn7Frg0m2/Wgl9Qaqy5AGZQaAOA9a0V/w5A2W1278iylmbundkwlyyN7xQbUdTlcUj8HsfT3NQaBhQ3hXOGTzJlIo8mOr1qhKBZDLX/MpzTzaSKSQTPyDphKkKkckwzVWffkZvpn4tBijb9Hznp1sHk/X3AGMHK+osnsHAif4GmSkWUK60oCIh9GAgmbKpwSr4XmOJOBooBVbf2HPFKqY5s0V2A2d5McTdPZmJbj7/M33vv0hmlkZIpn48nbajxBF8xEvUSXgIXD32BTzWmYlWHmMgzPLc14ECnemXflDSR6ZyUzdXURx18FZZEc03QFiP05s3HnsEmQVS/Bmt+YtkDumdMfdgnWwM2R7gatKD/qbO1NOsPzPUQy3SvSzRIZIgQkUqnMzA9nvWCj3NLBNi9J6Ea2TC+aXiTZIjgswkKS5/Qgv+Iplgzek5eiqPXGqWI0cQO5iMqzeneWLBXGrutgeZNR5yX9AX92Y5e7wl0+MUdalB2T1Ap51Vzik2wHUISYa+L4JMixSbP0fmA7X2Y0A3aBN5O3agMh/Nck718G0yp6wPYehVLryuYWaY4T68SDV17BzaiJTQTcjEEupXpnlRSFkNaIwNCXnSDF95BJktUlwwMjOVRTq9Ti8qQZeX0ZpN0ut1ujlrsc9JtlqdajHVarWQDr3VacIJy1lJhyNboKIbLTiuNl+m0/x7a5VFM92cdFrBrxi64Ae5p+H+7paUQRwe3yfjQFFpvqEzEyVCFnqQGperjfYIb2Pgd4as+Q1Qv3LNi1mP8hj7EQzmZN7YlggyZ6RaYI+DPMkXq/CP0xHmvdTMwVv1Xi5PihNcxzCHl7lcNZ9HJ6S27IkzegtQKHnwZyvFenvq5HEdqIXrkJ7x9GKe1JvBl14UXMukuJuX4yi09BO0ovqQS+aDvr6pMxP6M8mBl/h634iAfarWwZYY5iHNRfMPCU5gXUYomoxWVJ8aGH5rQgY3E+qeTCNdrQMz1oKQpw6IXAqXsacZmxmH5DupVqlUSs2qrDG+Mlmkc7nuYrGoJSoOHDcHKU11nkm3VOdkPrdyxOl3ZhDZ1QaEzOB0OKBI6sFdXW2pZuO6MHA5T9mh/wu3JnUfk5l4AfP09jTXJ8zTvMpN7Rz2WcdUcChg57mPIEriRQvVE02MpDCSWKEPsGIF89scO5IZWjltNIss3myS+kyIiV7JkQnOtz5xfOJbEJbq6OenSN7ADEm7mH9uiTOsOZk8V5HMnNPMz3R2YNshT95XtdOkKgVi1nBzYPIJjCru65bXuThbv0AmKk244L3c2q/6ZI4UXz+qnnVhjcRhOUadgBYSc0zmVsdAXYMQE8jI3Wr6ZLpOprWSAIghzO2nJMsSSLxPi+j+Gk050uyKhImw5nqXVCUVAl/FyKzXvXNgWkjGr/FMwqGBsbuczi6IKASQpvs65Gy9JZkguN8js9RDKdCVcI8Mrg1AMl259UA1D6iHo2JP8I7AqbBs6pO5YpF/4fbrQDJzvQC4zH+ZwbkeWkMAc94B0XqSo6d5vleSyMwUqxPpjPZTkZNZ9NqaUtVQ7FXrVe+j1tGl/HJwYbrb9Poj0/zwts5knmZb7g/2yKQuT4Gogcyy+sSdY8THqGKwRBwnE2lHy3LnggCZ9VDSaFHCY5IkF7JUKZyVjTSR+GqU2JEemVNSDKVJZ4ST6d+/xY0odrGxN+L6jf3wAN6eeUxc7e8YIHvztjVnqxthSg3tG2+H1283wdsQQWIcVva6sqgXnvMFbSr6DWDIeNyEblUtqsSLOrNlNAR8rlPkOdz1zoQaCFq32jc3RJDZzIeL8dOqIFNoWZD1cFxVIU7Y5ZVwpJgUyipeni0KYBGw3vCmZOJk7AvjEQZ3cqRZjokVoMsTXd/PF80bWG4bjtlZ3zDBMovqiolwjRB9sg63w9YJmKP2Gnf2mcw6U4kGQeaaLEMst/g0z+XFp7cH+eW0EGDaJ8XHe4a82Ao97sFpf0zU3nPa3yJTX5BcAzuE/VqElxyGSW2MJY7RH8c2omBVr5jjIpbHPMDrGOUZyxVtQrr3LvADMhckHRYbJ7+wMEHXH3gbhKTEaYLMAVmEPr3EDVCuLhiryVu2CMC9HQ2HUUHOCFPG4JZ7CfcIXHiG5E0D5PVVDf1km+8bYTncbynkCaHERuP92MF6C59tqmBvJhg8S33RE/ossvf6AZndezL7nKtkuzRLD55zIKNcG3qSmW+GJDMlJLMnyATHqN/OhGGhBtK+RUU5BwrWBbx290EZHYUXVeb3yCxVyQIYoKH8BRKGgeqet2Grwl7v71Rr4JqqrDcTpRcnfKke2Uf4gMwOGYR1ZtgUJzKpglPlKXtB5iQfVoFzYYA8MhvryO8faap2l4FLoHEAv2dlKg9Fc2+yTON3pjm2HOHv2kgLeDhB2I+OJTWpoW2r3dCoCqedsf+N39YTVgAm5DlK3z8gs0Z6oXcbaBV1S5ahWi/PzLEgE+y9fIbezYclM7G8MX+WgacZmsLK1reAGQ4OyCEqDc9xMvnQ29acWQqsUWrhpSioJPFrT6Lmg4lhy7XDR0ixEJaIWKVqDz4VRuWRDUYPyEz2qiHbOyf1UiL19CSZDGtSZS6kILPt5OVMaa1eDEtmopN3ZDUD1h2PB2ePFShuoOPbQnVGclSmis06Mb4nmWAqJvg1/qYlHldMC1pXjbUWj3f+kiFVuaXdi+fxe8pD9tPrkWmuB2RaXZKTcg6ZJ3QKW1U5TWItqnV89PKZHZEf4YPral1EQB6ZSUf2UlGS8e5ivYvelx93KqU4icHxM6Mm+lDx8nbf0Zl45Xnw2a7jW32omiyNelG+QYzg4qIgTZUIvEl2KMJzx+bDgrzEPCNJyAMywbPh4ThHM4/FjtozKnP/Vzr8lZfPNOok72WXUmmy6N2QKQJlgXaOrBkZQ5srrDBONsv8ssyOeS+bWE4TlaPvkSmSmiO/yzoQUL6M3Dq+unjDcM3ubeOh4mtNboPYL67BTy+h/Ux1JuiiBFtFYWwe2UbcqZNBqWFYltEopUV5GIRvmcT9qHSjkVwSPoNbxfwi2UhaCXiH1NOzQmH2BHqqVA+7RoBZvtqFT2T7XD0TJ+PzRt1daKYb4BeyAg/buEWxz6FhffRiUr+eATrzcQIZYVVxBxnWqxGQyUsXh5H4wD265Ad3HFrILx3Kj6f/z8rPkzsXz7PV7XX1QU823NH8YNLtLsGzrHKxxrRcPd3vzGcLuAdCziygujdwwJszps950chQ8fzMquyZd+DIdH/eWQDbA+9bR68mRHenoy+dq+wZm4/Ea2NjQqS+8Yet4dYFsaVnERtpin06lu9wlL8Vk4E7KrVdcnuOhU/dD9vAvK4O5l3OKGhhMM+sndGYpZ+r1bqTnsxSmXZ7lg+WWzT66fSD5dK1PtsxMt976vt6obJweizV2xv0vXBK7z85zyI31yrM5/MpPm8xMlvNpmx1Wl2+CWWv2Qk0svGisEzR+fB6Om0OZwXkTi5kHM9i+PSyeT24tompZPif7eqSwBUT5j2k3B03QbjqUaVepAiPtorOwHzQkX6gtfHbvDyXyPf07YN3P412rZRJis26UMDS3h2BuPzh/nztUqVQSNWS0gFGO5OqTCtwT6TW+mT7vhGhUsQUs37z6Va7NS3MK5lQGK8PD2xbMUxnUra9mJuVreXoqopxmx0Aw1k8mFmmcQSTYTLFgojdN9WftZjYQOc7wfdzncyZyGHWla3mu9mVh0vomO02dbkz4+An9X+pCBYBa7YMOeWdu6T+mzheX88u/GzXPb+U76OeXXkDw7atuOcT24ptdLYV7RWeXS6X4YVhGGA3lBMkKbb3kHUWPDGSqDLkI/7+eGX3xRB1CxoOPXmGDj3RK9UOF7FRoTVaMWY7EYnNX0Y3xJ7RjM6wPYY14nhwC7zhkZB0YNN+5NDfQHcImsGhFlBDx4xLkS7A4O74jY5B1HU3lGAKzDuauaxGVXtMz6+bDaijsYtdULUeIb+/cXDK9Lz/Kv/e2yEaJ+Vxfi6MCt8W66R57FAWidZ4/9/zVMd6MOUumthwRzI8HHTH11urKtZWNE1zWftyckDepdHNyQ8qbKNP3Up2crKb+j6wfliNWLyJWOz+grtlobrNgEzVm33WkDrCyga1xeLUG2eTA+7c6RvobiByrLkb3n5bwiLieyy3SMFNGjT7nU4/3SP55Wdat9XiuxXyVVMK3wqm8ZTrp4QZ3TOfaIyu7Sm6bZvFEPsyTO/NaZtdcWVjzNE3eZ/VfknwwHCTeHDCJpX3lsufw4wrxivb+VHDXKa1WHo+kVGmJk591nB3Mv3VqHJwHpULrLAdi3+/9RFo1FqtVKpVynwuKvmURo2eVTTNZD5sf43v68Yqu8HthFXbZPvnCZ0ZnurgAtx0kOlWZvr05TbK9QCiOcAU5Op6OiJpBYzf9MvmDOzikpixduQCILLtt4EQ6xPN1CAaNhqZWmq2dBiV9a/IJaZTiZRAnPMY0Nge0HvFhVpsQ1xLbkBUZUcT5bYB5DmOtL37oPMJl/r9CVgwK3siArY6qNmZ4dCN0X6/5/bE6mdC3Zyh3pmtjnGpjHTtM9nYP4sa2sZJqt2oFQZiioZTVeCNtHHNlDfNpW0ReLsR+ATd5pPjPKUXncIX2P7gLbRwz/aqMwBtVy/g8/yk0PaWkSUryxypi+WBUinTy7qPL8z3T7AWA+Oz2dcPQLIrJugk6T/HjGJntuSymmuL1Xwhdcklc8WM2EdfwieCXmo6PSddQWnUG7On0B8I6q4ZmRt/Hwo5ccQWsHTJ80dfwedCshbUaK1SqjB5cnL1nLPulBJNTma4yUv0GqHPri8+23Lozwad/9Eai+W5ct4OKXfADs3G+ktsx/FbYDVJUZApZ9tFc+yGrTr9XGvLPzH0CeskO2l+kUhiFSukpa+xifjvwYJUa96OzmEqVcXeMjfzi/wdi9+ALguKXqTtZrwyB8+zF5iBivFD6LL1bNcgOawG/5s77Fl9jsn8UfRZ3aWsyVPci4Fw58w1zzvF+BEAmRW+H4eU4BD1N9XArWLTXzez8bPoMGud1aR0pmfUcZm0Edl5HSMac1bawDKltG6AK01cXV570JQZIwopVrRdmTRc/WFpjq23r0KMHwOuoNBx/fstlXxzo0LsZv4M2NY9EWuGFGqOsP33M+5H+GnBam7egmrpz4Wo7G9YpEn1o3/g/xLYxrr61v8TDX4wKbYQX370D/xfQp91FKz8ZiOvcsEW73e+xEbNvw8VwrK/Z6nYy7sJy6yD/0v8Fb/fhhZfgbjT5GZtlbIFQJ0vsbf9b0Tb4R1J5XHwN1GppmC7d4bcbrsT4zvA5SIYfm81U7Rxjt0XbNhqpElsfn4S+Gc/sa1UX51xg2NTPV1YS34buHRijfmTANEUy+ZHq92KN68n9Gn+3bow/2a0sRlhnZIWiOjJKYiltGtOjB9GCVvc8t2UyLXVKv0169GKufw3aLNuYFJ1mpPmQGwg3PziTVr/HqzdUMaiFaeE/z2sQpPvJ1J3mp3K3/+X+94ZRjLTSqVK7WScc4sRI0aMGDFixIgRI0aMGDFixIgRI0aMGDFixIjxt+K/M5su8xVsPMMAAAAASUVORK5CYII=;" vertex="1" parent="hP9i1joXD9U75TtHQduj-1">
          <mxGeometry x="709.97" y="233.62" width="65.53" height="30" as="geometry" />
        </mxCell>
        <mxCell id="efUQGsohZJ-c-NTUhMi3-18" value="" style="shape=image;verticalLabelPosition=bottom;labelBackgroundColor=default;verticalAlign=top;aspect=fixed;imageAspect=0;image=data:image/png,iVBORw0KGgoAAAANSUhEUgAAAUwAAACYCAMAAAC4aCDgAAAAyVBMVEX///8xYZMAAAAyYZPk5OS8vLxOTk7a2tq3xdcYVo4tX5H8/Pzw8PAkWo8YGBj4+PgICAikpKQTExPR0dGhtcu1tbUoXJAPDw/X19cbGxvr6+tcXFzIyMjh4eEwMDCRkZF1dXUjIyN9fX09PT3G0d7g5u0ATIdoaGimpqaJiYmamppsbGxeXl7P2OM/Pz9HR0cqKipnh6uPpb/I0t/d4+tbfqU7apkAR4Wqus5+mLZMc5+5x9eBm7hkhqyQmaJMWGQAQIGYq8MAPICLHlnZAAAZSUlEQVR4nO1dCXuburY1whMCjEc843m243iiHpL7jt///1F3b0mAsHHanjZNbsP6zqkHgW0WW3uWkkjEiBEjRowYMWLEiBEjRowYMWLEiBEjRowYMWLEiBEBI5lpTTvd5tpx1unJrFBpJ42P/k2fBslSqlJJtTJ61KBRmc47c/hvmsrga6syazo5EkLRaXZSf/Y3f0bUUsu6zEp63ipZ/qjRmoVZc+Zp8gj5eeYDL+TjUVhU70mpNrvTJBvuPGaO5J/Xy8lksmw6wc3oLdoffEEfhswkYMYZrJ8GTjHgqres9L3nz+tmc7lsNtcD9nKw7FRKDemDjGSqsxDnpmsfdj0fiU6Py6HTLaRatXY72a61UpX5wunJAthrTlvJhsXQaMN4J9W2InSrlaykmZTXZ3/+Uj4aDS6W63npdkRvpOZNT0VWGpFGCWCN9qvdcLfaj3wVW+qykyaNB6f8rSjhjM2nMx4ROkpewJvVSPUHxfpc0GIZI0AjOGC0cVVbQ5gaVQ8vO86obrBb5Hwtw157xotu8RejXXm72by+bk4v1+Nq5HmMjRQTWmtfPh1chVLFPWyu2T1nbb81NUVRVFWBEVMbK5ssP6/FhLPy5y/pw5B8QlPBHJnRcaOYABsAD5ppn0/XoeHJ4Kh8wPcoAxyg2YftivG5P2k2UAn/IanUNN3riH32AtmcftCVfQBQty3R+9HLqmZSRUBlkmYDe+6mjIzpR1WzPcIEbM08Z/mgbfpswoOtqewki7mmX2amV+Bimzgr9+6Y+myoSiBntnYE2RydxyGiqcqf0bHCJvVoY0o8w/uau8LPn38hNnW01egODl1T0ACgXC75U20Lw/uz5osdkknFODy1tQ3OaWMz9ocZTDWL34CymfvQa/xjmMKl/gced2M7ECvk0n9hbkAuV5TJnSoGAl45beYV9epW8yj2hPaKUx3Z7H7sVf4hgFPuwCwdKXbAg6oEggnTFcRuRG3VGxEkqrL6pOMT0rbVVFkVwLko1Nb/gbv/FSJ11JgdeNxoYSL9OaxoR6DjoCkP4Mno+IBTvTxWpXfh33E5wT2kr2DRYQpWwZLvTBqwEExkVIivILdlM8yfevMCX5uMTe+meMdQcwjvOoQ8ffSVvj+ScJl9PWFtTCWQxhBh2g4muU0lBXl7BE5n/FdzIUSygM2w8+TCzegTUvzoS31/1IosQNnbVA0x5TNmnuGoF80TVvVWJmWBNQ+ofF07PIyiCcqk+vdn38GWV8E0lG9Vom+tNdB5e0r9d9VbAZXOUTW0QlkzfAjaoBaYub/fAoHKdICAsx2axYHHTtURCqZEjuzV31Cqco90q0nyrSrmiUesdwmpvw4QSjZhapoeibe2xdyAGtSozJoaJjMkmso3CHos05beU8xXK2GsvwKZIDF9CH406eJDEvoNFN5lfD+xVYWqEqU+wfbZCE10vB8HK9H4EmQ+E1KAq5dVpiya1DQS+ovIYDC5pWIgRKLkB5hX9EpNacwGMo00IX9/QSjH8phbM8SjHEmieaY3xsaPf9SQrDLQ8R5iT01wjJybrzqTzEdJ+r8HRZbkeLHVG67EM7TlwxDLnglSbzWs90x7Abf1YPuyykL7xhPJf/Slvj/y6LLop9s0pQClQ9ltCntGAY2qP9XxXxNE82J6I/D6JZFoD4jz0Zf6/qgyMjd2FEkwS11wjE5aMO2DqP0mIBKJEfxHA9VgcKXK8nQo3a06SX/0pb4/PDKjRc6GkEZ3bZUXdyiNOEpKyGF6XRuPx/8ErikzSVkWAX2Bmq8g0wxx48OEiAa9TCDJds/nM9VMqnqpjcCz524SxYrQcTgcZoHM1Tj4kBULtFoffanvj5wgUw0x6RsTCGhG38yx8pLdG8Dr/nLQaPgY/0Tb3O6Dz234YkyVEQu0/n43E3NjEDOfTIkdaSpjKvMyPg2D3i19qNjiEDVUKDIPe/lzR4qX0kM300qT9RfoRUh7fqYaGOVgqiOZq51wEA1e8R1qVA2lPdkDpZjM1PfDY/mYXemJkciNQLgOxtyof4myRZelwI+aKvJrYedcu4jDRkdsPXA3WG7kyXTV8zaFYsTS2VEdq+pYG4Ms8gyod0NKeTL/wIv8U5iJ2DxwEwMqgYghO2i1AcujnTev9j87EDOXiSaV5FJBsw8sX/eGMdTsE0imp1sphRtQIOQTZjNHu8slm71cVqPo8dUwezwes5fVj/528FmWicReC7gM6UzgLrHbfAOVqkHMnbCymJHbhhKW7CmO7rUz+wkaOpZgzfmn0TN4V31Cfsvl/z4Yw9PZBSeFta2455f97fhlc3ZxTENH5nCUxzeb11Xkh9aK5AnCP4VGRNuczItpMtV3Zce7MJ0vtpwUwpmuajy5dNQTw7OtwTHZsWfkIZg0Bp/NZR+9gr9n2jZodhseqeJuQ+J3ecWmKROGsQsIxs/lwAhrVMtGfmr7meTaicRBasaQ2ESdueXuNzVB9yWy/4A52XPqVY961AcrdqCmnjVbFS/4zUGVmeEF0M+DlWZT83w9XnYrmMvlDdBluoG07TcaUOxu+fixfIBxLRjXqBlNptFkHuBWC1kej1UksyyGqLa5vppYEjLO1LP7XmlyDN90BdYppoWxzv4q0s0KJpHmpBpy2fUQ3ouxx1i51HavgSjqKwgB7bOnOi9nW6HnYzBu7Q7Y91cWLzXlAZlYN6z4+d/bPDuK89GLZVTQIECp4QVMsp8/HuKBnF9qijoIs0wufEeTDKRkplHoe+giCpU/7IJi9Gxfwu9t4a0X/jTr2tTeWuFTjvimYPMxmQVW6t0HzW8Ys3htRNxp9zPArCVh5c98j3uVNyowm4Mmh8K9dCmXWlS17V7Iy0yu8zfrEAbzPyqeKJinm/cMJBjNbaLhUuoO707aH4BNPtMfTvNEEsy5JWaulDAXqlAiU3DHhFXzX4sxE70hhfrCKLJGMDn2zGOQm+CS6Vx1MZvNuFwu0kVSRffsz2FI2c8K40JZkSBhbYC0XcRZcHksiYaS+cAAYUYT5iDLaN4rTU6m9Aa36llJMgM/kzcyALFn7Frg0m2/Wgl9Qaqy5AGZQaAOA9a0V/w5A2W1278iylmbundkwlyyN7xQbUdTlcUj8HsfT3NQaBhQ3hXOGTzJlIo8mOr1qhKBZDLX/MpzTzaSKSQTPyDphKkKkckwzVWffkZvpn4tBijb9Hznp1sHk/X3AGMHK+osnsHAif4GmSkWUK60oCIh9GAgmbKpwSr4XmOJOBooBVbf2HPFKqY5s0V2A2d5McTdPZmJbj7/M33vv0hmlkZIpn48nbajxBF8xEvUSXgIXD32BTzWmYlWHmMgzPLc14ECnemXflDSR6ZyUzdXURx18FZZEc03QFiP05s3HnsEmQVS/Bmt+YtkDumdMfdgnWwM2R7gatKD/qbO1NOsPzPUQy3SvSzRIZIgQkUqnMzA9nvWCj3NLBNi9J6Ea2TC+aXiTZIjgswkKS5/Qgv+Iplgzek5eiqPXGqWI0cQO5iMqzeneWLBXGrutgeZNR5yX9AX92Y5e7wl0+MUdalB2T1Ap51Vzik2wHUISYa+L4JMixSbP0fmA7X2Y0A3aBN5O3agMh/Nck718G0yp6wPYehVLryuYWaY4T68SDV17BzaiJTQTcjEEupXpnlRSFkNaIwNCXnSDF95BJktUlwwMjOVRTq9Ti8qQZeX0ZpN0ut1ujlrsc9JtlqdajHVarWQDr3VacIJy1lJhyNboKIbLTiuNl+m0/x7a5VFM92cdFrBrxi64Ae5p+H+7paUQRwe3yfjQFFpvqEzEyVCFnqQGperjfYIb2Pgd4as+Q1Qv3LNi1mP8hj7EQzmZN7YlggyZ6RaYI+DPMkXq/CP0xHmvdTMwVv1Xi5PihNcxzCHl7lcNZ9HJ6S27IkzegtQKHnwZyvFenvq5HEdqIXrkJ7x9GKe1JvBl14UXMukuJuX4yi09BO0ovqQS+aDvr6pMxP6M8mBl/h634iAfarWwZYY5iHNRfMPCU5gXUYomoxWVJ8aGH5rQgY3E+qeTCNdrQMz1oKQpw6IXAqXsacZmxmH5DupVqlUSs2qrDG+Mlmkc7nuYrGoJSoOHDcHKU11nkm3VOdkPrdyxOl3ZhDZ1QaEzOB0OKBI6sFdXW2pZuO6MHA5T9mh/wu3JnUfk5l4AfP09jTXJ8zTvMpN7Rz2WcdUcChg57mPIEriRQvVE02MpDCSWKEPsGIF89scO5IZWjltNIss3myS+kyIiV7JkQnOtz5xfOJbEJbq6OenSN7ADEm7mH9uiTOsOZk8V5HMnNPMz3R2YNshT95XtdOkKgVi1nBzYPIJjCru65bXuThbv0AmKk244L3c2q/6ZI4UXz+qnnVhjcRhOUadgBYSc0zmVsdAXYMQE8jI3Wr6ZLpOprWSAIghzO2nJMsSSLxPi+j+Gk050uyKhImw5nqXVCUVAl/FyKzXvXNgWkjGr/FMwqGBsbuczi6IKASQpvs65Gy9JZkguN8js9RDKdCVcI8Mrg1AMl259UA1D6iHo2JP8I7AqbBs6pO5YpF/4fbrQDJzvQC4zH+ZwbkeWkMAc94B0XqSo6d5vleSyMwUqxPpjPZTkZNZ9NqaUtVQ7FXrVe+j1tGl/HJwYbrb9Poj0/zwts5knmZb7g/2yKQuT4Gogcyy+sSdY8THqGKwRBwnE2lHy3LnggCZ9VDSaFHCY5IkF7JUKZyVjTSR+GqU2JEemVNSDKVJZ4ST6d+/xY0odrGxN+L6jf3wAN6eeUxc7e8YIHvztjVnqxthSg3tG2+H1283wdsQQWIcVva6sqgXnvMFbSr6DWDIeNyEblUtqsSLOrNlNAR8rlPkOdz1zoQaCFq32jc3RJDZzIeL8dOqIFNoWZD1cFxVIU7Y5ZVwpJgUyipeni0KYBGw3vCmZOJk7AvjEQZ3cqRZjokVoMsTXd/PF80bWG4bjtlZ3zDBMovqiolwjRB9sg63w9YJmKP2Gnf2mcw6U4kGQeaaLEMst/g0z+XFp7cH+eW0EGDaJ8XHe4a82Ao97sFpf0zU3nPa3yJTX5BcAzuE/VqElxyGSW2MJY7RH8c2omBVr5jjIpbHPMDrGOUZyxVtQrr3LvADMhckHRYbJ7+wMEHXH3gbhKTEaYLMAVmEPr3EDVCuLhiryVu2CMC9HQ2HUUHOCFPG4JZ7CfcIXHiG5E0D5PVVDf1km+8bYTncbynkCaHERuP92MF6C59tqmBvJhg8S33RE/ossvf6AZndezL7nKtkuzRLD55zIKNcG3qSmW+GJDMlJLMnyATHqN/OhGGhBtK+RUU5BwrWBbx290EZHYUXVeb3yCxVyQIYoKH8BRKGgeqet2Grwl7v71Rr4JqqrDcTpRcnfKke2Uf4gMwOGYR1ZtgUJzKpglPlKXtB5iQfVoFzYYA8MhvryO8faap2l4FLoHEAv2dlKg9Fc2+yTON3pjm2HOHv2kgLeDhB2I+OJTWpoW2r3dCoCqedsf+N39YTVgAm5DlK3z8gs0Z6oXcbaBV1S5ahWi/PzLEgE+y9fIbezYclM7G8MX+WgacZmsLK1reAGQ4OyCEqDc9xMvnQ29acWQqsUWrhpSioJPFrT6Lmg4lhy7XDR0ixEJaIWKVqDz4VRuWRDUYPyEz2qiHbOyf1UiL19CSZDGtSZS6kILPt5OVMaa1eDEtmopN3ZDUD1h2PB2ePFShuoOPbQnVGclSmis06Mb4nmWAqJvg1/qYlHldMC1pXjbUWj3f+kiFVuaXdi+fxe8pD9tPrkWmuB2RaXZKTcg6ZJ3QKW1U5TWItqnV89PKZHZEf4YPral1EQB6ZSUf2UlGS8e5ivYvelx93KqU4icHxM6Mm+lDx8nbf0Zl45Xnw2a7jW32omiyNelG+QYzg4qIgTZUIvEl2KMJzx+bDgrzEPCNJyAMywbPh4ThHM4/FjtozKnP/Vzr8lZfPNOok72WXUmmy6N2QKQJlgXaOrBkZQ5srrDBONsv8ssyOeS+bWE4TlaPvkSmSmiO/yzoQUL6M3Dq+unjDcM3ubeOh4mtNboPYL67BTy+h/Ux1JuiiBFtFYWwe2UbcqZNBqWFYltEopUV5GIRvmcT9qHSjkVwSPoNbxfwi2UhaCXiH1NOzQmH2BHqqVA+7RoBZvtqFT2T7XD0TJ+PzRt1daKYb4BeyAg/buEWxz6FhffRiUr+eATrzcQIZYVVxBxnWqxGQyUsXh5H4wD265Ad3HFrILx3Kj6f/z8rPkzsXz7PV7XX1QU823NH8YNLtLsGzrHKxxrRcPd3vzGcLuAdCziygujdwwJszps950chQ8fzMquyZd+DIdH/eWQDbA+9bR68mRHenoy+dq+wZm4/Ea2NjQqS+8Yet4dYFsaVnERtpin06lu9wlL8Vk4E7KrVdcnuOhU/dD9vAvK4O5l3OKGhhMM+sndGYpZ+r1bqTnsxSmXZ7lg+WWzT66fSD5dK1PtsxMt976vt6obJweizV2xv0vXBK7z85zyI31yrM5/MpPm8xMlvNpmx1Wl2+CWWv2Qk0svGisEzR+fB6Om0OZwXkTi5kHM9i+PSyeT24tompZPif7eqSwBUT5j2k3B03QbjqUaVepAiPtorOwHzQkX6gtfHbvDyXyPf07YN3P412rZRJis26UMDS3h2BuPzh/nztUqVQSNWS0gFGO5OqTCtwT6TW+mT7vhGhUsQUs37z6Va7NS3MK5lQGK8PD2xbMUxnUra9mJuVreXoqopxmx0Aw1k8mFmmcQSTYTLFgojdN9WftZjYQOc7wfdzncyZyGHWla3mu9mVh0vomO02dbkz4+An9X+pCBYBa7YMOeWdu6T+mzheX88u/GzXPb+U76OeXXkDw7atuOcT24ptdLYV7RWeXS6X4YVhGGA3lBMkKbb3kHUWPDGSqDLkI/7+eGX3xRB1CxoOPXmGDj3RK9UOF7FRoTVaMWY7EYnNX0Y3xJ7RjM6wPYY14nhwC7zhkZB0YNN+5NDfQHcImsGhFlBDx4xLkS7A4O74jY5B1HU3lGAKzDuauaxGVXtMz6+bDaijsYtdULUeIb+/cXDK9Lz/Kv/e2yEaJ+Vxfi6MCt8W66R57FAWidZ4/9/zVMd6MOUumthwRzI8HHTH11urKtZWNE1zWftyckDepdHNyQ8qbKNP3Up2crKb+j6wfliNWLyJWOz+grtlobrNgEzVm33WkDrCyga1xeLUG2eTA+7c6RvobiByrLkb3n5bwiLieyy3SMFNGjT7nU4/3SP55Wdat9XiuxXyVVMK3wqm8ZTrp4QZ3TOfaIyu7Sm6bZvFEPsyTO/NaZtdcWVjzNE3eZ/VfknwwHCTeHDCJpX3lsufw4wrxivb+VHDXKa1WHo+kVGmJk591nB3Mv3VqHJwHpULrLAdi3+/9RFo1FqtVKpVynwuKvmURo2eVTTNZD5sf43v68Yqu8HthFXbZPvnCZ0ZnurgAtx0kOlWZvr05TbK9QCiOcAU5Op6OiJpBYzf9MvmDOzikpixduQCILLtt4EQ6xPN1CAaNhqZWmq2dBiV9a/IJaZTiZRAnPMY0Nge0HvFhVpsQ1xLbkBUZUcT5bYB5DmOtL37oPMJl/r9CVgwK3siArY6qNmZ4dCN0X6/5/bE6mdC3Zyh3pmtjnGpjHTtM9nYP4sa2sZJqt2oFQZiioZTVeCNtHHNlDfNpW0ReLsR+ATd5pPjPKUXncIX2P7gLbRwz/aqMwBtVy/g8/yk0PaWkSUryxypi+WBUinTy7qPL8z3T7AWA+Oz2dcPQLIrJugk6T/HjGJntuSymmuL1Xwhdcklc8WM2EdfwieCXmo6PSddQWnUG7On0B8I6q4ZmRt/Hwo5ccQWsHTJ80dfwedCshbUaK1SqjB5cnL1nLPulBJNTma4yUv0GqHPri8+23Lozwad/9Eai+W5ct4OKXfADs3G+ktsx/FbYDVJUZApZ9tFc+yGrTr9XGvLPzH0CeskO2l+kUhiFSukpa+xifjvwYJUa96OzmEqVcXeMjfzi/wdi9+ALguKXqTtZrwyB8+zF5iBivFD6LL1bNcgOawG/5s77Fl9jsn8UfRZ3aWsyVPci4Fw58w1zzvF+BEAmRW+H4eU4BD1N9XArWLTXzez8bPoMGud1aR0pmfUcZm0Edl5HSMac1bawDKltG6AK01cXV570JQZIwopVrRdmTRc/WFpjq23r0KMHwOuoNBx/fstlXxzo0LsZv4M2NY9EWuGFGqOsP33M+5H+GnBam7egmrpz4Wo7G9YpEn1o3/g/xLYxrr61v8TDX4wKbYQX370D/xfQp91FKz8ZiOvcsEW73e+xEbNvw8VwrK/Z6nYy7sJy6yD/0v8Fb/fhhZfgbjT5GZtlbIFQJ0vsbf9b0Tb4R1J5XHwN1GppmC7d4bcbrsT4zvA5SIYfm81U7Rxjt0XbNhqpElsfn4S+Gc/sa1UX51xg2NTPV1YS34buHRijfmTANEUy+ZHq92KN68n9Gn+3bow/2a0sRlhnZIWiOjJKYiltGtOjB9GCVvc8t2UyLXVKv0169GKufw3aLNuYFJ1mpPmQGwg3PziTVr/HqzdUMaiFaeE/z2sQpPvJ1J3mp3K3/+X+94ZRjLTSqVK7WScc4sRI0aMGDFixIgRI0aMGDFixIgRI0aMGDFixIjxt+K/M5su8xVsPMMAAAAASUVORK5CYII=;" vertex="1" parent="hP9i1joXD9U75TtHQduj-1">
          <mxGeometry x="263.23" y="410" width="65.53" height="30" as="geometry" />
        </mxCell>
        <mxCell id="efUQGsohZJ-c-NTUhMi3-19" value="" style="shape=image;verticalLabelPosition=bottom;labelBackgroundColor=default;verticalAlign=top;aspect=fixed;imageAspect=0;image=data:image/png,iVBORw0KGgoAAAANSUhEUgAAATYAAACjCAMAAAA3vsLfAAAAllBMVEX///8AaUoAXToAZ0kAZUYAYkEAYD4AXTsAaEgAZESMrKAAZkYAYUDO3tjZ4t5Hg2yyx7/i7urB1c68z8gAWDOmwbcjdVmauq/3/Prq8vD//v9NiXQAbE5vnIsRcFTz+Pd8pZZdk4AueWCPs6bl8O2fu7GDqpzA1M03fmZvno9UjHgATiEAUyxjmIfb6eRJhG5ypZQAShqh6IG5AAAOk0lEQVR4nO1cC5eiOBOFJDzSYIuKgOMDX+2jZ7R3//+f+6qCQBKCPTvf7lHPyd2zZ7cblOSmUnWrKrTjWFhYWFhYWFhYWFhYWFhYWFhYWFhYWFhYWFhYWFhYWFhYWFhYWFhYWFhYWFhYWFhYWFi8HAazR4/gFVHQ+aOH8IrYeCR/9BheD9PADYPBo0fxahgQ6rp0UT56HK+F0g1dgGfd2z/CF3cFgsOjR/JKWPsVay5NJ48ey+tgmtKaNkqujx7Nq+BKgC63Ia549HheBAvmSvA2jx7Pa+DsuQrI9NEjegUcU1dDYJPTb1EsqE4bt+rtW6w9nTXYplaFfAOIol2Ero2m9/HFDLS58e7R43puDIKOZxPizbdR4R5ORmNzqbd+9MieGYOO+Ki9mzW3O/jkPbS5vq309mJkCqO3bbp49OCeF7u4nzYyfvTonhaLsJc2l18ePbpnxaB/jwIi21cw403Nq1YqbcGx84HyrcZH33fuD7c7Du//6dj/AZI3BXky6BrE8U1DPukt154imSY2V3kzSLfZz9T3BNI+fXIg4rpPfiZ/Os1/G8tf1ZhuiH0SD3Nt/AftnjgOyOqwN31dqWYI0SVTXF2YdT/x8THkFNGbffmuuL7Y5U9TXB9PN9WoGEH4nFHmk8tIvmfwsQnEwGkQVDfB/3rE1JDSXBtfb9UIQYzOLRNchyvzEBPRy3m6hsQZ9Wl0Og7G4/F0vSVeGPLgTb1HlILoIjkCJtPzIgghx9x2OZiq8oO/DRXaaGrs0W+4i8SRrudDVMkaJf//TP9VvKOFhA0F1zWJKPVPCifCivx2vadoonzb+a61miJ4u7ni61zfWBzfgIlT9ITm4QlbpMGfzu8/AtIWfUm/2A996jImb1SkTdlEA9g5ND7r37VR03gv/1Ro6/FfG8bmHA1qZLh45iF7VtrYUPnVGXwZo5K9dWhzcuQt1ePCVq0ZxdONam18aRrBJ/OSDLjxDO6ySF3+F38N2pwz+Cgm7cEubUVMKWxC7btWKm1+slR3LTN2/uYsnuxi3KbdCjC4Aw+f/hK0OdsIfH67+F3a0I+7ke6NqEobGWvOrvMBgTnzkxK7+EFXmGWMn2fpq9A2QgGWNjHAQNsBDJLqOkyr65KBljWYvT7SBjsVLp/0SwMCymPfS1u5H+2/7VHMRvs7lb7ZaHQ35SvgEaYbjLQJWdJuKQNtOeyqjtRa6LTlGm2fppENkTaxE4kuUCBanEQxqktbkVxWfpqm3vZgkDWTBOb6A/67cUmaksXFVH3Z58MIrvqrSzK5IVEVxHrrpeKGib46Ztr2gSwxe6ytYx2ZtknfP1TauNG3nZA2BxMKTwsZM+KSxBGbVNdtbyzgNAxDCPoe2WrtxHFGfk3EfwPO4CaXcvKlm9xsGcR4EcD9AKQ8/Bv8lJZgkhEvgmfQkHES7lTizLQ5w0jqNhlo++S0m2POVQFCrlNf+YW5nyCsDZw/BXLU/QCBghYm2gYLuJsTnm1XfgCyj8ylD17nhFEP1NEuZTFxs8wjkNdwV437E58jm4sTXGZwPZpvmZ+2tJX4LYz4q23GiQdSdqEYdQ9tKPhZzZQhkvrg/jui/6xGALJXaaOxscxR0VYISa3esGIx5Ctd2pI0dFmwHKABlJMhgfkvGlJmP9Exg9/dkcjf4YYpjitYz0jxxFPxpWe8XCZZTEMKWc/seqxtcuR6cP00weUoBmekMJUjVg9tV1TntTDr0raDPCHubDmttkvKiWpt5vxpK2gTGRxTpnYkFOsiHdomEHajVZu0JGBNzK0nXB4OuERsR/i25rJAaRBIazKAr6CsWfYzjFPJemYRWKB04ue6gp/lA449tJURuPzgdp8xS+BZJ8JMApUlZ6zk9jQ15QE1bVcSakFhzkQM0WnDtj/LZFc1Rn0uzVo81pPX4D2FO6SfsQodSNWBT9ixRJKhQLOrFPFL5E3KY3pog8mAc7utj0ZbkcPyxoZUfq+wFPpaSYS63cc4DW3OF1iEHDRGpGo/lBptJ7gvVQsiOfDm76RP4uN8eZHQV7clvQ9Y9lhOSmZY1olvXv+Hs4P1D9RO2xVNuo2BfbShe/duWaeY/SKvcNhQfOjaxICaJtCqTtCgp5lQ0zYRYrG1ooNXFeg02ibgPjp5GCZnbTwRtKk5DGaDrfmgTagp8NoLW7ldBlgU0h5x8OQTQH20YVper31lNHEsypQeAwPnB6OEVGJCuNCO0ZgLIDDlijYHD3hJk41uEUKj7cQMreoEJtqam6BNLRdPIPT69aRnsECaVkcv3KTM6KN9PWWZgRNpza2PtoskeAVt1L8h9jhzYzI0nL06EsncwFZGSkjo6ctn9DZEHG3bTQUmiNg1Km2wdQ2yufTkLBpp00TlOJBsBd800RK9q2xgWwYcd9KPz0iqXtyjTba2cDVJbvhYrmC5GMm6FVdfpu3kzCTaqDm1QtriirYZauw6DIEu4euKEoU21DRxt8GPviuotx3SdvtwDYU2NK1I1QEzTEVW7cfZl6MDHCJtNkwfbVgqq61WZD6KUU8oKqFOMqQcCYy+nEJWJKSnhbKqrQ2XitbjfSdNlqLQhtWB7nPR89CmM4bz1jSiQhtG2ki1WJHB3cz1SIxVLGSh9va9tGEx2ntrP6D5guIEaQL19Wh6bXcpxa0Ut9ZHafchAgt2s7bq3M1Npay9qB6VQhuGqqBr5ujym1MmgjbVkSq04UYPt53r9d7PfaMyH8lbu482LALVJmmgzSmxkO11YuNnm1/hFmctbb2tqVVDm3AqVQZWgLHVs1Row54i6fbNcO/Wq/wtbRjxtbACfjWs9z7WbQzhCwNJWLu/Htr2qAbqzWCiTQw0JLqXR10p6Y1F+zJM3FegWdGGtimGOPH2B6SotXUWgrbaQ+Mu6Dy1anDJtNG7tKGYUE5AFQvQbXXsBdpoJ5D+Hm0iLaqjiZG2Ejdg99vnjQZBs8lq46P957QW7RjRF1Ihn7astU6FNvT9hq6DsDZpk96nDYUZ5RL5B5iM/9ftB4zocdfa0JIax9FDG5azG69ppE1oxm5No5VqKMObs5Vs1VtPpNLSQkgRaRI8sTUpItOGYcPQONzJFvItbSKNjdoELSfyCIXldl0KMtVkMWbaCi5rATNtsiCWsL5FT4quYljTdueEPW03qTNKq3bqhUvfrNCG/Biq59hsbV6V/p425wAPYnwqvvW6ITSM4saEB0TN8m5IZIM20zZVlGcPbZG58Li4eTcMRreOH7332pVsbc48opQvi1RO6hXaQKpSTZMhwMnT5hD/b9DmTNEwfP51vmQEREGctWGmCCmmODpQXDWjMtJWYJ88aB5spg39Fu/0SquijEgKppVoRtr4nYK9J9N2FEWUg1K+UGhz8PBF5+ADjrBtJ/4ObWNQGUBXxDkNmXY2Y2nUhqsQlr/+wUjb2qNyWc9I2wwzAmPh8S0QpxOQDNHxo246xsJ+D3wlsIjYy6ksAFTa3mAjBPqWX3K5avobtM28kGZrSkjgE2+7U0Mz6sdOTxdFcBumRFdeo22Cbl06rGKkDQVmc1OpPPdLnOrAuaGmpzS4+y6HH8q05dVRGTkl9EKZNozgurmhypbe6/pWt6HTRRdavB8nx/eunMEaFtGO02Wwc71m0xisbSwqu9JjjXIXvRa/ffCQT3fS1AssQotiGQokt1sGVuCFsfTZmR+6WoT2FGtzpkiKYgvlCjau3zqnHtr8lrZDQEnevwP2MAgt9i9htaRyb+cMiJODYg2VP3xiom2IdnSrFi5nycQ5SnMfeTAP9A45xD2ve8ZGga/QBu5Q6dE6urVBLMLa2br9udxyN5Qr/XvDJgVTaK0NJmRuPtZIwD9z+fzQGijwpeVH2uTzeuMTVpjTD0daC1E4CuWvHW3B+9G08mzX3DnNNo6caGEtFKc+jSnf3u8AwxwVkYQRRanqlKQ+V1OP6BN4C061K5tSBqxpy0w14ZVgva12xCWe0Nt95A2m2jHSH2A7octZvRSDE378U/k+9N6HAjEb7DJxTmulhhFxj7csiwqz8SVlIBfroU7Gzufm3VnLHwGdgHWcJObZPdZmgzHWuPlUGjbIaMnlvw/Eaa/oNJb+0NQSnh+R7Tr/2F0WkIZxuboynmDPNeT5uOnKJFMhhOi0ah8nmDl6vgRC/JMqBhOcYrC4ALvrTPT+Wr9QFANa/ZWTaLFYhITEcG/sK61UvMdt7gG4BIQOZS23152znawdNa2/cvA/xTY43bW15O/UiyLGgr/bfAkUvNR02P6KWQTwUvns7nEVAHE8jmPY0jz9lHL78lfqcQRpmp7Xv0n1q7R6zHvKxKzD6pRoGLrwDwsyJWcbfaY4zdiPeQQXV1LXbZ3Wp22xwU1xICTLVY21TEl7T4XI89Ot5DvO132xn2qiYJ+R5Yl889cFxsN5hWFrSgVPpQ12ntcYKgcSJvOY+HEMhsIvyt4oL8sbNnUsnDW/ulSPma4yFzvGWYUV9UHFucxTC1KDMwvgEXFMgiEuWeO11gGXsTotp51S1lK9B7CA29RkenfYrTvZU+Fz3jkM8zsY/N7bWeVgmu/y5M+O3S9BgEiLMxO6h3VSg/cEHjE1nJ//DwE+61lffBnGbqBEPWz9UqUD/TBsQ9MByWfAwe92Ng6mE3uPwFdkKL88A7Dg2Mk5r1IT5qG48J7O6KOBTflAj/DizMQz0HbwnvRdSCzOdbw/HtrUk/OH4MMzdOaeAdgo9tRf/RBZ61O80J+kve+fPRaiFKwrrQ2HTPwZlvl986R/SgsPHuuGNcZK+DME0ueFqLCqhwTwxB6jz7k5nga5qMOuG/FfrrFD4T3ZW4TPhzUeZ/DIZz4Zj5PdPPUoJUNra98i4X7o0ghLRkHMKCerp3k3+qlR5ts0iMUr20HqLp9TYD4lZuP87XA43Hn338LCwsLCwsLCwsLCwsLCwsLCwsLCwsLCwsLCwsLCwsLCwsLCwsLCwsLCwsLCwsLCwsLCQuB/0YfhJc96jcQAAAAASUVORK5CYII=;" vertex="1" parent="hP9i1joXD9U75TtHQduj-1">
          <mxGeometry x="926.96" y="345.5" width="76.08" height="40" as="geometry" />
        </mxCell>
        <mxCell id="efUQGsohZJ-c-NTUhMi3-20" value="" style="shape=image;verticalLabelPosition=bottom;labelBackgroundColor=default;verticalAlign=top;aspect=fixed;imageAspect=0;image=data:image/png,iVBORw0KGgoAAAANSUhEUgAAAVsAAACRCAMAAABaFeu5AAAAaVBMVEUNnOz///+XzfYAmuwAl+sAluvg8Pybz/YAkOoAlOvp8/1Eq++u1vez2fhXsfCiz/Uto+17wfTz+f5ptvHU6vs4p+6FxvWn0/fu9v273fnG4vrb7PvM5fri8f2PyfVSr/ByvfMcoO1ruvJgSw9pAAAKCElEQVR4nO2ca4OiOgyGkRRZQJG7chHE//8jD21aKBdHYNwzZ/fk+bDDUCn4kqZJ2lnDIAiCIAiCIAiCIAiCIAiCIAiCIAiCIAiCIAiCIAiCIAiCIAiCIAiCIAiC+IsBxU8/yN8H+PdScMxI3Q8D8UFyYT/9LH8bg7YmafthSNvfB2n7+yBtfx+DtjZp+2HAj26CqKYY7DsAkwxHAL8kZLbfAbILUhvxFY+uQaqOYrLbb2CV0rXe4KK8bPpl7kByr8VKpIwumHNt53ECpL71E8/5J7JVW1ZSYLaWjdqyujtbkFtYxVa7FacrEncN27QVZsstd51b2PsK/pJXty1OcO6yIVshLkDL9qjEr9tx2Uf5zrJAv7IATYz4RiqP4rZVR6kxWoEAQ4l+WHHztLyd9zximtzOnxEXWs/bNwiCJt2rbutLGvDUkRGok0NzYKgjTzyr32v7PlhgFbfv7U/IuJcKP+IWILPtcM+FqWnbzc5HCCIpUfnra39rqA/mTDxrr+3debeixri32WOA7oIz2kdqm6YdbNcIHt2Fe9ezdmrLepd8OATeM+ys2Xkpwn9AW2+vtqH5o9qqyy7GCxlI220+4THTtuNFIZK03aStESxpe3gsPgVpu01b57Yg7Z3sVkfTVuUOLthzbS99QIvasl7/t2b7f9UW2utJcK6t+oyHNsTy6Nx66ig21AdFwAkM5tIWo5ojMKuD52MTbWFomT2ObJFNM22Zpf221I/8wKQfTVseLM4ixnkAqc4M2m7avAX89pajFm1+WcNRf9IZjqzhyHHa+DL3CTe9d6vNzkmZFGZjwVhbZjxPVZJU1ximNQoWX6ukrE4PAwWbaMuCvOwzle7i8FyVZXGNreEL52U3n4p+yiQ5Z30qJrUF75HVdRbGeg4O6eM5ydm8RzzWFoxGXPlo1mR30NyPO1lytZ0raYe7sjbvzx/jX5q2wC7KCx1utTN6HVnfcWQLAxlra4X8ylAl3dfhpYZywDB+19jJ+jtEPmjatk1tdz87bDMbnjboUq9spE1qd1kcDNp25mDild2/z/fiapnVR7hqDsEaR2j5oC3zIr3lPrhACEq9JfI6dXVtWYtzrXT38aifBJUCXkAqjno3mrZmhsJKlOzgc91H0ogzmrZBrV1p12/9tioSfoSj3WrSLiQWUlv2nJ5WuTqk0bxl0BaYMgVhNiycfDgSBRW4H6YYmrYoja1sV4r7Xtu6v1Be6b0R91PaZnHsGdZowpEyREleDe6Da9tXeMqiuOuidFYrpXWL/BipC5S2wDwZIN4e+iuKyrxw5XXtWNvuDryfKxtpa5th7PtxhjKnK7VFa336nh9LAw7+FW3v1nTyBA9VyAw+VfvFoC3IGPmSOl1TekYRxMUMHULu8ZZAxIBmry30AXcu6rnSxqO6dbp4oME78BWQXttrwOfp4BHrc1knUBgwMdmnwhSzDdr6hggwjAav/NpwP6TtvAToCH+XyKo2WFmvrSXUvHmWbPGFRLy4DjjG1YxvNUlUGGouY430xG6MVzKh5jGQd3DwDp2zkNpG8g7GOAYz7X4aAqMWY3uttnVfw4Wg1vzJC2DqsnbhzkISHPf34bxVS21lPd3r/QfzVReOGNnxEAIzESQJbS0VEJzU1J6KVzRM9Pj6jp09orYLxWycy7TzAZdP5DprtNUcLARC7K+k1avb32CeiYk46KBvw0FD7rQVEtSaa0ZD9gHdyHm23YFrm8tp3236APmCL2JYMXFylBS1XSrWixhMNzbIlEIrtB0NToh5a/qluMvVlm2Ucwtx+EAvdZmwZnZmFh/KUat/uOUtNmPCwc5nX3e4kz2Mb+Dzmut5TY8n5raMCW3Hd5B4Uz2EQia3/ffaou/oW4XJf72Hy5kGPTuYux0c+CPTAZDa8m+ejIxTnCosYevu3Nw0bUPtuuXcpYt8hbbVUgEC87KZfuu0Ncd9sXpqyjOsYvkRN3Ba2LQkhsP4ziwS2oqXeR19czErJcziC2rVvDNN28OzT3aNF0ZRoLb5a21hemadtvW4xxX1m+8HCu7S6BMTzWNR28OytiUIbZNX2laV+KH87Uttpd1e12nbrNd2ouOa2ti3He5SIPLSJ5hMOgD902JPRGVZwifMe+PaRpllYAzWT//LPoFnyZ/X9snd8kTb7L22zjxD3ES99CXQjY9sEDf2P+DVXHZiOPMvz2UXp5s9hAG7Uhsxl93iKYGMb/dpq7fp2vpqytOaTRW+veab1Zp8eYcounF9Sd8RZpdKJ6Tvw8HQ9QnQ8J/LMZjIebHCU+JZdhJXWTDGMPZpi216KCCMFbWdB2+Lp2bAQnl7PcmLXUhopVpwZoX4cWmlkVb6EmEtt2SMWYbcQda4+1oNZhlyZx9epmUtYMl8bp/dimRgZId80EttRQI3yhSES3hXUVhel1nJQsQkwZW0QsWjDtYbeTwo3OrhrnJVC8sCXDw06aiRGrE2P5qWXgeT1RlZYBSTmwuqn6aq/KHGuNluUcpBLMAEWb4uYcNP7a0LL7Fit8/uENd93adM+LrknzFmySK5nMLEcTc78RZZgMGeLPT9JyaaxOsImV6/lWWJC+8HUuzngf3wxCMK9muLPrVu1Va3FAtf8rfWxEqEXu19l5Zx2OIugxUsxEtar3I4RMUpV1UW+WBqabM4nyt5iJ5ZytUN+/O5wDd+HWlrOFhWEO5alW+7O6h+/P3+1mixQOuLaTZ42Lq2yoozj8dAkIbitzV/WcP25Q/5mxLbafL5m/pWs5p272OZPx1D/njdQXoUfBfMnnwYQ+2d2hrSUu06y9SqT69t546wPllnYVbLUuUKabtX5h62sxx86eKO05JkiGEmazFDAcZg3igkjLjoI20B3SyuDeHaWU+ZfsffyoE+ptdWxrhay2ONsnxFcrPLvfvvdwywpuo/7452P7PgPOh31SuUYAxrx1HOJzwhpj6Bcw8jg3aWDkPuZsp+xDBcNKpgpm2qadsNfG1FzA7jccIwbjXfhF+6ChvFPa3aIgzMM6vSPSbneLoDj6VZUd7vZR4GkzydtY+ctxRhii1B5erbEyAo3OswBNK666dMzk+jDweD6n5Zfrxwtv+2O/McujbizEYyv3PA9rgg2fat9XPDDhLWvCgrLZI0741WPg/jARVjC7slgLeAtfCM2DJEzmzyYmD0O2OzO8CrvZRGOpva01ENHYyg8WPfC7jttOk4fgXe2uV+TdBu2qMPbfleU+T+3PZnC68/vKmbXXfY1dtXwu37L5GsdRWx0l8yNeJr9G0wL4iuqUPK7sIKrl/Mae41Zj/+x0h/MAzi032mb3QrT2G6uOeQ2EA3swdxaOcV/ndrxcnM4tQgXT8FABNbV8X2VR7dkLAEQRAEQRAEQRAEQRAEQRAEQRAEQRAEQRAEQRAEQRAEQRAEQRAEQRAEQRAEsYZ/ACZyny8m4c43AAAAAElFTkSuQmCC;" vertex="1" parent="hP9i1joXD9U75TtHQduj-1">
          <mxGeometry x="370" y="-150" width="167.52" height="70" as="geometry" />
        </mxCell>
        <mxCell id="efUQGsohZJ-c-NTUhMi3-22" value="pliot" style="aspect=fixed;perimeter=ellipsePerimeter;html=1;align=center;shadow=0;fontColor=#4277BB;labelBackgroundColor=#ffffff;fontSize=12;spacingTop=3;image;image=img/lib/ibm/applications/application_logic.svg;strokeWidth=3;" vertex="1" parent="hP9i1joXD9U75TtHQduj-1">
          <mxGeometry x="328.76" y="-75" width="30" height="30" as="geometry" />
        </mxCell>
        <mxCell id="efUQGsohZJ-c-NTUhMi3-23" value="data sender" style="aspect=fixed;perimeter=ellipsePerimeter;html=1;align=center;shadow=0;fontColor=#4277BB;labelBackgroundColor=#ffffff;fontSize=12;spacingTop=3;image;image=img/lib/ibm/applications/application_logic.svg;strokeWidth=3;imageBorder=#3333FF;" vertex="1" parent="hP9i1joXD9U75TtHQduj-1">
          <mxGeometry x="436.01000000000016" y="-72.75" width="35.5" height="35.5" as="geometry" />
        </mxCell>
        <mxCell id="efUQGsohZJ-c-NTUhMi3-24" value="mongo relication service" style="aspect=fixed;perimeter=ellipsePerimeter;html=1;align=center;shadow=0;fontColor=#4277BB;labelBackgroundColor=#ffffff;fontSize=12;spacingTop=3;image;image=img/lib/ibm/applications/application_logic.svg;strokeWidth=3;imageBorder=#3333FF;" vertex="1" parent="hP9i1joXD9U75TtHQduj-1">
          <mxGeometry x="550.0000000000001" y="-72.75" width="35.5" height="35.5" as="geometry" />
        </mxCell>
        <mxCell id="efUQGsohZJ-c-NTUhMi3-29" style="edgeStyle=orthogonalEdgeStyle;rounded=0;orthogonalLoop=1;jettySize=auto;html=1;entryX=1;entryY=0.75;entryDx=0;entryDy=0;" edge="1" parent="hP9i1joXD9U75TtHQduj-1" source="efUQGsohZJ-c-NTUhMi3-26" target="efUQGsohZJ-c-NTUhMi3-21">
          <mxGeometry relative="1" as="geometry" />
        </mxCell>
        <mxCell id="efUQGsohZJ-c-NTUhMi3-26" value="" style="shape=image;verticalLabelPosition=bottom;labelBackgroundColor=default;verticalAlign=top;aspect=fixed;imageAspect=0;image=data:image/jpeg,/9j/4AAQSkZJRgABAQAAAQABAAD/2wCEAAkGBxMQEBIQEBAWFRUVFRgVFRgXFRUWFxcXFxUXGBUWGhgYHSggGBooGxcYIjIhJykrLi4uFx8zODMtNygtLisBCgoKDg0OGhAQGy0lHyUtLS0rLS0tLS0tLS0tLS0tLS0tLS0tLS0tLS0tLS0tLS0tLS0tLS0tLS0tLS0tLS0tLf/AABEIAKgBLAMBEQACEQEDEQH/xAAcAAEAAgMBAQEAAAAAAAAAAAAABgcBBAUDAgj/xABEEAABAwICBgYIAwUGBwAAAAABAAIDBBEFIQYSMUFRYQcTIjJxgUJSYpGhscHRFHKCIzNTkqJUY4Oy0vAVFkNEc5PD/8QAGwEBAAIDAQEAAAAAAAAAAAAAAAEDAgQFBgf/xAAvEQACAgEDBAAFAwUAAwAAAAAAAQIDEQQhMQUSQVETIjJxsRRCYVKBkaHRFTPB/9oADAMBAAIRAxEAPwCrl0jSCAIAgCAIAgCAIAgCAIAgCAIAgCAIAgCAIAgCAIAgCAIAgCAIAgCAIAgCAIAgCAIAgCAIAgCAIAgCAIAgCAIAgCAIAgCAIAgCAIAgCAIAgCAIAgCAIAgCAIAgCAIAgCAIAgCAIAgCAIDBcOKAwHjiEBm6AygCAIAgCAIAgCAIAgCAIAgCAIAgMFyAxrjiPegMhyAygCAIAgCAIAgCAIAgCAIAgNrDMNmqpOqpoXyv4Mbe3MnY0czYKG0uSUmyxMB6GqiSzq2dsI9SO0knm49lp8NZUyvXgsUPZOsM6LMMhA1oHTHjK9zr/pFm/BVO2TMlFHfptGqKIWjoqdo5Qx/ZYdzfkyPqXR2jeLOo4D4wx/ZMshpM5dX0eYZKCDQxNv8Aw7xn+ghZKyXsjtRGcX6GKV4JpZ5YXbg60rPcbO/qWaufkhwRXmkPRziFFdxh66MenDd9hxcy2uPcQOKujbFmDi0RK6sMDKAIAgCAIAgCAIAgCA28Lwueqk6qmhfK/gwXtzcdjRzJCiUlHklJssbAehmd9nVtQ2EepFaR/m89lp8A5a8tSv2l0afZN8P6K8MiteB0p4yyPdf9IIb8FS75ssVcTuU2iVBH3KCnb/gs+oWDsk/Jl2RNn/gVL/ZIP/TH/pWPc/ZPajVqdEKCTv0FOf8ABYD7wMlkrJLyR2I4OJ9FGGzXLInwuO+KRwA/S/Wb8Fmr5oxdcSEY/wBDVRGC+jnbOB6DwI5PJ19Rx8dVXR1KfJXKl+CuK6jkgkdFPG6ORu1rwWuHOx2jmMithNPgpaweCkgIAgCAIAgCAIDBKAsPQPoxlrQ2oq9aGnObW7JZRxF+4w8Tmd3FU2W42RnGOS7cIwmCkiENNE2Ng3NG08SdrjzK1m2+S1LBvKCQgCAwgIXieltRFI+LqWNLTbPWd4HdkRmurToa5xUu5nmtV1m+qx19qTRzn6XVR9Jo8GD63WwtBSjRfW9U/K/weX/NNV/F/pb9lP6Gn0Yf+Y1X9X+iOaR4eyuOvK1rZf4jGNa4/msLP81l+jrSxEzr6zqFLMsNEAxbBpaY9sXZueO6eR9U8itOyqUHud/S62rUL5Xv6OcqzbMoAgCAIAgCAzGwuIa0Ek5AAXJ8lOMkSkorL4JVg+iV7PqTz6sH4OcPkPetuvS53kcPVdZUflpWf5J7RYvLTxiKn1IWDY2ONjR47MzzKz/Q0+Vk58usat8Sx9kew0kqv7Q73N+yfoqP6TBdV1f9bNiLS2qbte135mD6WWD6dS/BfHrmrj5T/sTHRqvlqIutma1oJs3VBFwNpzOy/wAlyNXVCqfbB5PT9N1Nuoq+JYkvR1lqnRCAIAgOVpDo5TV8fV1UQeB3XbHsPFrhmPksozceCHFMofTvQCfDD1jSZaYmwkAzYTsbIBs5O2HkbBbtdqn9zWnX2kPV5UFACAIAgCAwSgLf6LujgEMrq9l72dDC4ZAbRJIDtO8N3bTns17LfCLIw9lvrXLQgCAIAgCAi2m+E68f4hg7TBZ/NnHy+V10NBf2y7Hwzhda0ffD40VuufsQVdo8kEJCAxIwOBa4AgixBFwR4KGk1hmUZuLzF4ZDce0XLLyU4JbtLNpH5eI5bVo26dx3iek0PVVPELefZF7rUO0ZQBAEBhAbuFYXJUv1YxkO8491vjxPJWV1ubwjX1Oqr08e6b/t7J9hGDR0w7Au49557x5DgOS6FVMYfc8pq9dZqHvsvR0FcaQQBAbuDYcamZkQ2HNx4NG0/TxIVGouVVbl/g29DpXqblWuPP2LUhjDGhrRYNAAHADYvMSk5PLPoUIKEVGPCPpQZBAEAQBAfE0TXtcx7Q5rgWuaQCCDkQQdoQH576TtCThswlhBNNK7sb+qft6snha5aeAI3Z79NvcsPk1bIdu5CVcVBAEAQBAT/oj0PFdUGqnbeCBwsCMpJdobza3Injdo4qq2eFhGcI5L+WoXBAEBhzgASTYDMk7AgIJpD0rUNKSyIuqXjI9XbUB5yHI+V1bGmT5K3Z6IVW9M9W79zTQRj29eU/AtVqoiY97PGn6ZK8Htw0zxyZIz465+SOiJPxDtUXTUxw1amhcAcj1cgflv7Lw35rH4DT2Yck1ho5sGNU073CCTK51Wv7L7bhY7fK67dNylFZe54vWaCyqbaXy+DcV5zzKgkIDKAjekWjQlvLCAJNpbsD/s7nvWrdp87xO10/qbrxXbx79EIe0glpBBBsQciDwK0T0iaayjCgkwgOxgGAuqTrG7Ygc3b3cm/fcrqqXP7GhrdfDTrC3l6J/SUrImCONoa0bAPmeJ5roxiorCPKXXTtl3zeWeqyKhZAEIPOaVrAXPcGgbybBHJLkzhXKbxFZPTB+keioWPtHLNK42u0Na0NGwazjfbfYDuXH1ubpJJ7I9d0jTfpq25r5n+DXrOmuc36miiYNxfI959zQ1aq0y8s6zufg5zemPEb3LKUjh1Ug+PWrL9PAj4zO5hfTZmBVUWXrQvv8A0PA/zLB6b0yVd7LE0c0spMQF6aYOcBdzHdmRviw525i4WvOuUeS2M1I7awMwgCA0MewiOtppaWYXZI23Np2tePaBsR4LKMnF5REllYPy3i2HSUs8tNKO3E8sdwNtjhyIII5FdKMu5ZNJrDwaqkgIAgPSmp3SyMijF3vc1jRxc42HxKN4B+pdGsGZQ0kNLHsjbYn1nHN7jzLiStGUu55NhLCOosSQgPCtq2QxvlleGMY0uc4mwAG0qeQfn3T/AKQJcRe6KIujpQbBmx0vtScuDNg33Ozbrr7d3yUzlkhdlYYBAEAQBSDvYPpPJDZst5Gc++PA7/Aq+vUSjs90cvV9Lru+aGz/ANE2oa1kzA+NwcPiDwI3Fb8JqSyjzV+nspl2zRsLIpCEhAcPSLAG1I12WbKBkdzuTvoVr3Uqe65OpoOoOh9k94/ggM0bmOLHgtc02IO0LntYeGeojJSXdF7He0Z0afUkSPY7qt1gbv8AC3o8/crKoKTzJ7GjrdXKpdtabl+CxKfCZrBrKaQACwAjcABw2ZLd+PVFYyjzj0upsfc4ttn3VYXPEzrJInNbcC5ttOzfdTDUVzfbF7mNuivqj3zjhGorjVCE4I5jOlTIrshs9+wn0G/6j4LWs1KW0TsaPpMrMSt2XryQ6trZJna0ry47r7B4DYFpSm5cnoaaK6liCwa6wLQgCAID0pp3xPbJG9zHtN2uaSHNPEEI1nYlF+dGWnoxFn4eoIbVMF+AlaPTA3OG8eYy2aN1XbuuDZrs7tmT1UFoQBAUz08YJqyQVzB3x1Mv5m3dGfdrDyC3NNL9pr3R3yVQtkoCAICd9DGFdfiYlcLtp43SfrPYZ83H9KqueImcFufoJahcEAQFH9NWlLpZ/wDh8Tv2UNnTW9OUi4aeTQQfE+ytqmGF3FU5eCslcVhAEBi6kBQDKAIDZw+vkgfrxusd43OHAjes4TcHlFN9ELo9s0WDgmMsqm3b2XjvM3jmOLea6FVqmv5PKazQz08va8M6VlaaRlAYTglLOyO7hvR5FUvjqK6Pu5tj2aw3CTi32ffvC4+s1MZPEP8AJ6zpOluqhmx7PhFhRsDQA0AACwAFgANgAG5c87OEfSEkU6QpbQRM9aS/k1p+pC3+nxzY3/BxOuTxTGPtkFnmbG0ve4NaBck7Auw5JLLPLQrlZJRissguPaSOnvHFdsfuc/x4DktC29z2XB6fRdNjSu6e8vwcGyoOoFAMEqQFAF0AQGUB7UNXJBKyaFxbJG4OY4biPmNxG8EhGk1hkp4P1Dopjba+jhqmi3WN7TfVeDqvb5OB+C5s4dssG5CXcsnWWBkEBGOkzDPxOFVTLXcxnWs460Xby8gR5qymWJowsWYn5oC6JpmUAQFy9AFKOprJt7pWR+TGa3/0Wte90WwRbCoLAgPl7rAk7ALnyQH5MxGsM80s7jnLI+Q/rcXfVdBLCwa75NdCAgJZoFgUM/4msrLmmo4+se0XBkcb6kdxuy+IVdkmsJcsshFPdmy3pAYXaj8JojT7DE2Kzw3lJ61t9lHwv53Cs/g6mjmD0Jx+COmdHUUssb5Ax1pAw9U8mNwN82kAi+eY4LGUpfD35JUV37FeVjQJZABYCR4A4AONgr1wVvk8UICA9Kad0bw9ji1wzBH+8xyWSk08owsrjZFxksplgaP482pGq6zZQM27j7TftuXQquU9nyeW12glQ+6O8fwduKNz3BjGlzibADaVZKSistmjXXKySjFZZPNHdGmwWkls6Xdvazw4nmuNqdW7Pljsvyes6f0uNHzz3l+CRLSOuEAQFf8ASfiLInQmR1mtY53MlxAAA3nsldPQNRjKTOB1eud1sKoeilccxp9U7PssB7LPqeJWVlrm/wCDZ0eihp47c+WcxVm6FAOvohgZxCthpA7VDyS9w2tY0FzyOdhYcyFjOXasmUVl4JLiWmUNJK+nw/DqTqI3FmtNEZZJdXIuc4kGxIPH6KtVuSzJmbnh4SNLHm0FQ2jq6QRwyyStZU0gcCGnW/eNbuYbbNnaHNTHuWU/8kPDw0d/TvHoaDEJqSPCqB8bAy2tAA460bXHtA8Sdywri5RzlmU5YeMHE0kwqmqKBuLUEXUAS9TUwa2s2N5tqvYT6Ju3L2xssVnGUlLtkYySayiFq0rMlSC6+gOuLqaqgJyjla9vISNsR72X81p6lbpmxQ/BaS1S8ID4niD2uYdjmlp8CLH5qVyQ+D8jOj1CWn0SW+42+i6homEAKAuXoGxBjYKindk505e3n+yjBHj2bqq6uTXeuCI6mCsVL5ayi2FqG0EByNKq8QUkxPecxzGDeXOaQPv5K2mqVksI1tTqYUQ7pedkfldgyC3AfSgBSCf9HzDU4bi9DHnM+Nksbd7wzvNHHYB+oKizaUZFsN4tEBijc94jY0ueTqhgHaLtmrbbe+5XeMleGWboXo8cO0gpKd0zZH9S979Vur1bnQv7BzNzaxvzCosn3VtlkY4mVxXfvZf/ACP/AM5V64K3yeCEBAEB0tHMIqKyobFRtJkFnawNmxi/fc70R89guoc+zcOvvWGtj9JaNYCKSNoc4STFoEklrXO/VHotvuWvdqJ28mOm0NOny4LdnZVBthAEBpYrikdNHryn8oHeceACsqqlZLESjUamFEO6bKT6Q6ebEJPxQ2tbqiLcGgk9ni7M34rp/pOyHys4lHVoztasWM8P/pXapOyFACAmPRHWtixaHXNhI2SIHg57ez7y23mq7lmJZXyRrHqB9JUzQTDVex7gb5XFzquHEEZg81nFprKMWmmdiTRl9NT0NZNJquqJ2hkJaQ/UDv3hN9hyyt6QWPem2kT24wzc6YpAMZqbkDKLf/csWNH0E2L5jdMBo9HJWTgskrqpj4WOBDurj6sl5B2D9mf5m8VGe6zbwZcQ3ICrikyUBZvQfiLYJqkPybL1TdbcHDXIvyOt8lhbRKyDkvBU9bCi2MJ/uLwXNOoEBrYlXNp43Sv2DYN5O4DmrKqpWSUYlGp1EKK3OR+T6p+tJI7Zd7j73Ero4xsayeVn2eaEgoCZdH85a2UNJDmva8EbRcEX/pW7pkpJxZ5/rWYTrnHku7RrH21LdR5AlaMx6w9YfUblzdVpXU8rg6vTeox1Me2W0l/v+Ud1ah1Cs9KMV/ETnVN42dlnA8XeZ+AC7+jo+HXvyzxPVNY77tvpXH/SmcWpepnkj3Bxt+U5t+BWnZHtk0el0tvxaYz/AINRYGwEBsYfXS08rZoJHRyMN2uacxx5EcjkVDSawyU8cEqf0nV5uQKdshFjM2naJfHWJIv5LD4MTP4jOBhOP1FNVCtjfrT3cS+Tt3LwWuJuczYrJxTXb4MVJp5OdI8ucXHa4knxJuVkYnygMICUaE6EVGKPu39nADZ8xGWW1rB6bvgN/BVzsUTKMcn6B0c0ep8PhEFNHqja5xze93rPdvPwG6y1XJyeWXJYOqsSQgCA5OPY6ykbn2pD3WDaeZ4N5q+iiVr249mlrNbDTR33fhFd11XJUSGWZ13HZwaODRuC7dVMa44ieQ1OpnfPumzyVxrEe0j0bE95YrNl37g/x4O5rWuo7t48nW0HUnV8lm8fwQSWNzHFrgWuBsQdoK0WsbM9LGSksrg+VBIBtmDYjMEZEHcQdxQEvg6Sq5rWtk6icsFmvmgD5B+oEX8SLqt0xLFYzg4rjlRVTipqJTJICCCbWbY3DWtGTW33BZqKSwjBybeSRy9KOIOOsTBret+HYXcszdV/BiZ/EZF8WxWerkM1TM6V5FruIyHBoFg0cgArFFJYRg23yaakgFAWBolR9VTNJFjIdc+Byb8AD5rpaaGIfc8l1a/4l+FxHYuDRHFfxEGq43kjs13Ej0XfTxC4uu0/wrMrhnpej639RT2y+qOz/wCnYqahsbC+Rwa1ouSVqQhKbxFbnTttjVFzm8JFZ6U48ahzn5iOMOLW+AuXHmbeS9BptMqINvnyeJ1utlrb0l9Odl/9KTvfNaZ6tLCwFACA7+hdTqVBYdkjSPNvaHwutnTSxPHs5XWKu+ju9MnsUrmODmkhwNwRkQVvyipLDPLQnKElKLw0SafS5z6V0ZFpT2dYbC07XcjbLzXOjoO21P8Aad2fWnPTOD+vjJFl0zgEd0uwcysE0Yu9gs4b3M2+8Z+8rU1NWV3I7PSdaq5fCm9nx9yDhaB6cygCAIAgCAMaXENaC5xNgACSTuAAzJTgktTQfomfIWz4kCxm1sAPbdw6xw7o9kZ8SNi153eIlkYey5KanZExscbAxjRZrWgBoA2AAbFrlh6oAgCAhWnHSFBhzhA0687toGYiB9J/Pg3arqq+5/NwU3SkoP4fPginXmY9cX65fnrXve/0XerjGMcR4PD6iVjm/icn0sykIQYUg5WOYFHVC57MgHZeB8HDeFTbSp/c39Hr56d45j6K/wARw+SnfqSttwO1ruYO9c+cHF4Z6ejUV3x7oM1ViXGUAQBAEAQHY0bwY1Mms4fsmnte0fUH1V9FTm8+DndR1q08ML6nx/0sFdM8g3l5OjgOJmmmbJmW914G9p+t7HyWvqqPjV9vnwbvT9Y9Lcp+PJ947jclU7tdlg7rNw5niVjptLGlfz7M9f1GzVS32j4RE9LKrq6V43vswefe+AKz1EsQwZdJp+JqE/C3K+XNPXBQAgPSmnMb2yN2tcHDyKyi8PJhZBWQcX5LRppxIxsjdjgCPNdaMu5ZPDXVuqbg/B6LIrCEGUJRG8d0XEpMkBDHnMtOTXHj7J+C1LdNneJ29F1Z1pQt3XsiFZRyQm0sbmeIyPgdhWlKLjyj0FV1dqzB5NdYlwQg+oI3SODI2ue47GsaXOPgG5o3jklLJOdHOiquqiHTAUsfGTOQjlGDl+ohUyuS4M1D2W9onoPSYaLwx60trGaSzpDxtuYOTQFRKblyWJJElWBIQBAEBWnSb0jikDqOicHVBykeLFsN93Ayct208FdXXndmEpbFHPeXEucS5ziSSSSSTtJJ2lbRSdjR7H3Ux1XXdETmN7fab9t6uqtcPsaGt0MdQsraRYVPO2Roexwc0i4IW+pJrKPL2Vyrl2yW56LIrCAwhB41VMyVpZI0Oadx/wB5HmolFSWGWVWzql3QeGRHFNDnC7qZ1x6jjYjwdsPnbxWnPTNfSd7TdYjLa5YftEaqqWSI2ljcw+0Le47Ctdxa5OvXbCxZg8njdYmYQH3DG551WNLjwaCT8FKWeCJSjFZk8EjwnRJ7yHVHYb6gPaPidjR8fBbNemb+o4+q6vCC7at378EyghbG0MY0NaMgBsC34xUVhHm7LJWS7pPLPsqSswgCEkD0vxDrZ+raezHceLvSPlkPIrm6mzulheD1nStN8KnufMvwcJa51AgCAICVaGYrY/hnnaSYzz2ub9R5rc01uPlZwur6PuXxo/3Jet484EIMoSZUAOaCLEXHA5hGk+TOMnHdM0JcEp3G5gZfwt8lU6YPwbUdfqIrabMR4FTNIIp4zbi3WHmDkVi6K/RmupanOe8lmC6R/hRqNpIQ3+6aIj8BYrUs6fF/Szo09cnHacUySUemNM/J5dGfabce9t/itOeitjxudSrq+nns3j7nbpquOUXjka8ey4H5LWlGUeUdCFsJrMWme6xLAgMICpOkfpQDdejw593ZtknGYbuLYjvdxdsG652X11Z3ZXKXop3mcyczxJO0k71slRlAEB08Cxt9K7LtMJ7TPqOBVtdrgzT1ejhqI78+yxKCuZOwSROuD7weBG4rfhNSWUeXvonTLtmjYWZQEBhCApIPl7QRYgEcCLhRhPkyUnHdM0JcEpnG5p2fy2+SwdMH4NmOv1EeJs+G4DTA3/Ds91/moVFfol9R1L/ezehhawWY0NHBoA+StUUuEas7ZzeZPJ9lSVmFJAQGEIOPpLi4p47NP7R4s3kN7vtzVF9vYsLk6fTdF8ezul9K/wBlfLmHrggCAIAgANiCDYjMHgdxU5wQ0msMnujmOioaI5DaUD+ccRz4hdCi7uWHyeW6j090vvh9P4O6tk5IQGVBJlAEJMhQAhIIUEr0id6H4F1DTNI20jxYDe1u23id/kuJrL1ZLtjwj13StE6Yd8/qf+iSrTOuamKYlDSxOmqJWxxt2ucbeAHEncBmVKTeyIzgozT7pNlrtanpNaGnOTjsklHO3cZ7O07+C2a6sbsrlLJX4CuKzKAIAgCA2sMxGSnfrxOtxG5w4ELOE3F5RTfRC6PbNFgYJjsdULDsyWzYTn4t9YLertU/ueZ1egsoeeV7OqrjQCEGCpBhCAgMIQFJBhAYUkBAc3GsXZTMu7N57rd55ngOaqttUF/Ju6LQz1MvUfLK9rKp8zzJIbuP+wBwC5kpOTyz19VUaoKEFsjxWJYEAQBAEAQGWuIIIJBGYIyIPG6nOCGk1hkuwXSsGzKnI7pAMj+YDZ4hblWp8SOBrOkfvp/x/wAJTG8OAc0gg7CDcHzW4mnwcGcJQeJLB9hCDKAISZUEn1GwuIa0EuJsAMySsZSUVlmUISnLtissnGjmjIhtLOA6Ta1u0M+7ue5cfU6x2fLHj8nq+n9KVOJ2by/BJHuABJIAGZJyAHElaJ2SvNLOlilpbx0lqmUZXBtC083+l4N94VsKW+TCU8FM6QaQVNfL1tVKXkd1uxjOTGbB47TvJWzGCjwVttnNWRiEAQBAEAQBAZa4gggkEZgjIg8QVJDSawyVYPpeW2ZUjWHrgdr9Q3+IWzXqGtpHG1XSVL5qtn6JbS1bJW68bw4cQfnwW3GSlwcK2mdTxNYPYrMqMIQEBgoQFJAQHy5wAJJAA2k5AJlImMXJ4SIzjGlbGXZT2e71vRHh63yWrZqUtona0nSJS+a7ZeiHTzOkcXvcXOO0natFtvdnooQjCPbFYR8KDIIAgCAIAgCAIAgNmhxGWA3ikLeI2tPi05FZxnKPDKbtPVcsTWSQ0embhlNEDzYbH+U/dbMdU/KORb0SL3rlj7nXg0qpnbXub+Zp+YuFatTBmjPpGojwk/7my3HqY/8AcM8zb5rP40PZQ+n6lfsZ7U+M0rnBrquJg3uJJA8ABmeSws1EYrK3Lqel32SxJdq9s79Jp9hFCD1T5Zn2zc2J1zyBfqgDkFybZW3P5uPR6bSaOnTL5d37OVivTYSCKSitwdM+9v0R7f5lgqPbNtzXgr7SDS2sr7ipqHOZ/Db2Ih+hve/Vcq6NcYmDk2cUBZGJlAEAQBAEAQBAEAQBSD0p53xu1o3lp4tJClSa4MZ1xmsSWUd6i0xmZlI1sg4913vGXwV8dTJcnMu6RTPeOx2afTGB3fa9nkHD3j7K5amL5OfZ0a5fS0zebpFSn/rtHiHD6KxXw9mq+m6lftB0gpv47fj9k+PD2R/43U/0mtPpXTN2Oc78rT8zZYvUwRbDpGolzhHKrNM3HKGIDm83/pH3VUtU/CN+rokV/wCyWfsR+uxOWc/tZC4cNjR+kZLWlZKXLOrTpaqfojg1FgXhAEAQBAEAQBAEAQBAEAQBAEAsgMWQGUAQBAEAQBAEAQBAEAQBAEAQBAEAQBAEAQBAEAQBAEAQBAEAQBAEAQBAEAQBAEAQBAEAQBAEAQBAEAQBAEAQBAEAQBAEAQBAEAQBAEAQBAEAQBAEAQBAEAQBAEAQBAEAQBAEAQBAEAQBAEAQBAEAQBAEAQBAEAQBAEAQBAEAQBAEB//Z;" vertex="1" parent="hP9i1joXD9U75TtHQduj-1">
          <mxGeometry x="709.78" y="-72.75" width="85.72" height="48" as="geometry" />
        </mxCell>
      </root>
    </mxGraphModel>
  </diagram>
  <diagram id="I6ouVnmazJi53jFtKCY_" name="Pagina-5">
    <mxGraphModel dx="1847" dy="584" grid="1" gridSize="10" guides="1" tooltips="1" connect="1" arrows="1" fold="1" page="1" pageScale="1" pageWidth="827" pageHeight="1169" math="0" shadow="0">
      <root>
        <mxCell id="flqx2w9fU7Eq6ip_HU2f-0" />
        <mxCell id="flqx2w9fU7Eq6ip_HU2f-1" parent="flqx2w9fU7Eq6ip_HU2f-0" />
        <mxCell id="flqx2w9fU7Eq6ip_HU2f-2" value="Tenants" style="html=1;dashed=0;whitespace=wrap;" vertex="1" parent="flqx2w9fU7Eq6ip_HU2f-1">
          <mxGeometry x="150" y="60" width="100" height="50" as="geometry" />
        </mxCell>
        <mxCell id="flqx2w9fU7Eq6ip_HU2f-3" value="Customers" style="html=1;dashed=0;whitespace=wrap;" vertex="1" parent="flqx2w9fU7Eq6ip_HU2f-1">
          <mxGeometry x="530" y="60" width="100" height="50" as="geometry" />
        </mxCell>
        <mxCell id="flqx2w9fU7Eq6ip_HU2f-4" value="Users" style="html=1;dashed=0;whitespace=wrap;" vertex="1" parent="flqx2w9fU7Eq6ip_HU2f-1">
          <mxGeometry x="530" y="170" width="100" height="50" as="geometry" />
        </mxCell>
        <mxCell id="flqx2w9fU7Eq6ip_HU2f-5" value="Devices" style="html=1;dashed=0;whitespace=wrap;" vertex="1" parent="flqx2w9fU7Eq6ip_HU2f-1">
          <mxGeometry x="330" y="190" width="100" height="50" as="geometry" />
        </mxCell>
        <mxCell id="flqx2w9fU7Eq6ip_HU2f-6" value="Assets" style="html=1;dashed=0;whitespace=wrap;" vertex="1" parent="flqx2w9fU7Eq6ip_HU2f-1">
          <mxGeometry x="110" y="190" width="100" height="50" as="geometry" />
        </mxCell>
        <mxCell id="flqx2w9fU7Eq6ip_HU2f-7" value="EntityView" style="html=1;dashed=0;whitespace=wrap;" vertex="1" parent="flqx2w9fU7Eq6ip_HU2f-1">
          <mxGeometry x="110" y="320" width="100" height="50" as="geometry" />
        </mxCell>
        <mxCell id="flqx2w9fU7Eq6ip_HU2f-8" value="Alarms" style="html=1;dashed=0;whitespace=wrap;" vertex="1" parent="flqx2w9fU7Eq6ip_HU2f-1">
          <mxGeometry x="150" y="450" width="100" height="50" as="geometry" />
        </mxCell>
        <mxCell id="flqx2w9fU7Eq6ip_HU2f-9" value="Dashboard" style="html=1;dashed=0;whitespace=wrap;" vertex="1" parent="flqx2w9fU7Eq6ip_HU2f-1">
          <mxGeometry x="420" y="430" width="100" height="50" as="geometry" />
        </mxCell>
        <mxCell id="flqx2w9fU7Eq6ip_HU2f-10" value="Owns or Produces devices and assets" style="text;html=1;strokeColor=#d6b656;fillColor=#fff2cc;align=center;verticalAlign=middle;whiteSpace=wrap;rounded=0;" vertex="1" parent="flqx2w9fU7Eq6ip_HU2f-1">
          <mxGeometry x="220" y="10" width="160" height="40" as="geometry" />
        </mxCell>
        <mxCell id="flqx2w9fU7Eq6ip_HU2f-11" value="" style="endArrow=none;html=1;entryX=0.33;entryY=1.09;entryDx=0;entryDy=0;entryPerimeter=0;exitX=1;exitY=0.25;exitDx=0;exitDy=0;" edge="1" parent="flqx2w9fU7Eq6ip_HU2f-1" source="flqx2w9fU7Eq6ip_HU2f-2" target="flqx2w9fU7Eq6ip_HU2f-10">
          <mxGeometry width="50" height="50" relative="1" as="geometry">
            <mxPoint x="390" y="300" as="sourcePoint" />
            <mxPoint x="440" y="250" as="targetPoint" />
          </mxGeometry>
        </mxCell>
        <mxCell id="flqx2w9fU7Eq6ip_HU2f-12" value="&lt;div style=&quot;text-align: left&quot;&gt;&lt;span&gt;purcheses or uses evices and assets&lt;/span&gt;&lt;/div&gt;" style="text;html=1;align=center;verticalAlign=middle;whiteSpace=wrap;rounded=0;fillColor=#fff2cc;strokeColor=#d6b656;" vertex="1" parent="flqx2w9fU7Eq6ip_HU2f-1">
          <mxGeometry x="690" y="10" width="160" height="40" as="geometry" />
        </mxCell>
        <mxCell id="flqx2w9fU7Eq6ip_HU2f-14" value="" style="endArrow=none;html=1;entryX=0;entryY=1;entryDx=0;entryDy=0;" edge="1" parent="flqx2w9fU7Eq6ip_HU2f-1" source="flqx2w9fU7Eq6ip_HU2f-3" target="flqx2w9fU7Eq6ip_HU2f-12">
          <mxGeometry width="50" height="50" relative="1" as="geometry">
            <mxPoint x="420" y="340" as="sourcePoint" />
            <mxPoint x="470" y="290" as="targetPoint" />
          </mxGeometry>
        </mxCell>
        <mxCell id="flqx2w9fU7Eq6ip_HU2f-16" value="&lt;div style=&quot;text-align: left&quot;&gt;&lt;span&gt;browse dashboards and manages entityes&lt;/span&gt;&lt;/div&gt;" style="text;html=1;align=center;verticalAlign=middle;whiteSpace=wrap;rounded=0;fillColor=#fff2cc;strokeColor=#d6b656;" vertex="1" parent="flqx2w9fU7Eq6ip_HU2f-1">
          <mxGeometry x="700" y="130" width="160" height="40" as="geometry" />
        </mxCell>
        <mxCell id="flqx2w9fU7Eq6ip_HU2f-17" value="" style="endArrow=none;html=1;entryX=0;entryY=0.75;entryDx=0;entryDy=0;exitX=1;exitY=0.25;exitDx=0;exitDy=0;" edge="1" parent="flqx2w9fU7Eq6ip_HU2f-1" source="flqx2w9fU7Eq6ip_HU2f-4" target="flqx2w9fU7Eq6ip_HU2f-16">
          <mxGeometry width="50" height="50" relative="1" as="geometry">
            <mxPoint x="420" y="340" as="sourcePoint" />
            <mxPoint x="470" y="290" as="targetPoint" />
          </mxGeometry>
        </mxCell>
        <mxCell id="flqx2w9fU7Eq6ip_HU2f-18" value="&lt;div style=&quot;text-align: left&quot;&gt;&lt;span&gt;Iot Entities that produces telemetry and handle rpc commands&lt;/span&gt;&lt;/div&gt;" style="text;html=1;align=center;verticalAlign=middle;whiteSpace=wrap;rounded=0;fillColor=#fff2cc;strokeColor=#d6b656;" vertex="1" parent="flqx2w9fU7Eq6ip_HU2f-1">
          <mxGeometry x="330" y="290" width="160" height="40" as="geometry" />
        </mxCell>
        <mxCell id="flqx2w9fU7Eq6ip_HU2f-19" value="" style="endArrow=none;html=1;entryX=0.424;entryY=-0.005;entryDx=0;entryDy=0;exitX=0.25;exitY=1;exitDx=0;exitDy=0;entryPerimeter=0;" edge="1" parent="flqx2w9fU7Eq6ip_HU2f-1" source="flqx2w9fU7Eq6ip_HU2f-5" target="flqx2w9fU7Eq6ip_HU2f-18">
          <mxGeometry width="50" height="50" relative="1" as="geometry">
            <mxPoint x="420" y="340" as="sourcePoint" />
            <mxPoint x="470" y="290" as="targetPoint" />
          </mxGeometry>
        </mxCell>
        <mxCell id="flqx2w9fU7Eq6ip_HU2f-22" value="" style="endArrow=none;html=1;rounded=0;exitX=1;exitY=0.5;exitDx=0;exitDy=0;entryX=0;entryY=0.5;entryDx=0;entryDy=0;" edge="1" parent="flqx2w9fU7Eq6ip_HU2f-1" source="flqx2w9fU7Eq6ip_HU2f-6" target="flqx2w9fU7Eq6ip_HU2f-5">
          <mxGeometry relative="1" as="geometry">
            <mxPoint x="360" y="310" as="sourcePoint" />
            <mxPoint x="520" y="310" as="targetPoint" />
          </mxGeometry>
        </mxCell>
        <mxCell id="flqx2w9fU7Eq6ip_HU2f-23" value="N" style="resizable=0;html=1;align=right;verticalAlign=bottom;" connectable="0" vertex="1" parent="flqx2w9fU7Eq6ip_HU2f-22">
          <mxGeometry x="1" relative="1" as="geometry" />
        </mxCell>
        <mxCell id="flqx2w9fU7Eq6ip_HU2f-25" value="&lt;div style=&quot;text-align: left&quot;&gt;abstract IoT entities that may be related to other devices and assets. For example factory, field, vehicle;&lt;br&gt;&lt;/div&gt;" style="text;html=1;align=center;verticalAlign=middle;whiteSpace=wrap;rounded=0;fillColor=#fff2cc;strokeColor=#d6b656;" vertex="1" parent="flqx2w9fU7Eq6ip_HU2f-1">
          <mxGeometry x="-80" y="80" width="190" height="80" as="geometry" />
        </mxCell>
        <mxCell id="flqx2w9fU7Eq6ip_HU2f-26" value="" style="endArrow=none;html=1;exitX=0.5;exitY=1;exitDx=0;exitDy=0;entryX=0;entryY=0.5;entryDx=0;entryDy=0;" edge="1" parent="flqx2w9fU7Eq6ip_HU2f-1" source="flqx2w9fU7Eq6ip_HU2f-25" target="flqx2w9fU7Eq6ip_HU2f-6">
          <mxGeometry width="50" height="50" relative="1" as="geometry">
            <mxPoint x="420" y="330" as="sourcePoint" />
            <mxPoint x="470" y="280" as="targetPoint" />
          </mxGeometry>
        </mxCell>
        <mxCell id="flqx2w9fU7Eq6ip_HU2f-27" value="" style="endArrow=none;html=1;rounded=0;exitX=0.25;exitY=1;exitDx=0;exitDy=0;entryX=0.75;entryY=1;entryDx=0;entryDy=0;" edge="1" parent="flqx2w9fU7Eq6ip_HU2f-1" source="flqx2w9fU7Eq6ip_HU2f-6" target="flqx2w9fU7Eq6ip_HU2f-6">
          <mxGeometry relative="1" as="geometry">
            <mxPoint x="80" y="330" as="sourcePoint" />
            <mxPoint x="240" y="330" as="targetPoint" />
            <Array as="points">
              <mxPoint x="135" y="280" />
              <mxPoint x="150" y="280" />
              <mxPoint x="185" y="280" />
            </Array>
          </mxGeometry>
        </mxCell>
        <mxCell id="flqx2w9fU7Eq6ip_HU2f-28" value="N" style="resizable=0;html=1;align=right;verticalAlign=bottom;" connectable="0" vertex="1" parent="flqx2w9fU7Eq6ip_HU2f-27">
          <mxGeometry x="1" relative="1" as="geometry" />
        </mxCell>
        <mxCell id="flqx2w9fU7Eq6ip_HU2f-29" value="&lt;div style=&quot;text-align: left&quot;&gt;useful if you like to share only part of device or asset data to the customers;&lt;br&gt;&lt;/div&gt;" style="text;html=1;align=center;verticalAlign=middle;whiteSpace=wrap;rounded=0;fillColor=#fff2cc;strokeColor=#d6b656;" vertex="1" parent="flqx2w9fU7Eq6ip_HU2f-1">
          <mxGeometry x="-130" y="270" width="190" height="80" as="geometry" />
        </mxCell>
        <mxCell id="flqx2w9fU7Eq6ip_HU2f-30" value="" style="endArrow=none;html=1;exitX=1;exitY=0.5;exitDx=0;exitDy=0;entryX=0;entryY=0.5;entryDx=0;entryDy=0;" edge="1" parent="flqx2w9fU7Eq6ip_HU2f-1" source="flqx2w9fU7Eq6ip_HU2f-29" target="flqx2w9fU7Eq6ip_HU2f-7">
          <mxGeometry width="50" height="50" relative="1" as="geometry">
            <mxPoint x="130" y="360" as="sourcePoint" />
            <mxPoint x="180" y="310" as="targetPoint" />
          </mxGeometry>
        </mxCell>
        <mxCell id="flqx2w9fU7Eq6ip_HU2f-31" value="&lt;div style=&quot;text-align: left&quot;&gt;events that identify issues with your assets, devices, or other entities;&lt;br&gt;&lt;/div&gt;" style="text;html=1;align=center;verticalAlign=middle;whiteSpace=wrap;rounded=0;fillColor=#fff2cc;strokeColor=#d6b656;" vertex="1" parent="flqx2w9fU7Eq6ip_HU2f-1">
          <mxGeometry x="-130" y="415" width="190" height="80" as="geometry" />
        </mxCell>
        <mxCell id="flqx2w9fU7Eq6ip_HU2f-32" value="" style="endArrow=none;html=1;exitX=1;exitY=0.5;exitDx=0;exitDy=0;entryX=0;entryY=0.5;entryDx=0;entryDy=0;" edge="1" parent="flqx2w9fU7Eq6ip_HU2f-1" source="flqx2w9fU7Eq6ip_HU2f-31" target="flqx2w9fU7Eq6ip_HU2f-8">
          <mxGeometry width="50" height="50" relative="1" as="geometry">
            <mxPoint x="130" y="370" as="sourcePoint" />
            <mxPoint x="180" y="320" as="targetPoint" />
          </mxGeometry>
        </mxCell>
        <mxCell id="flqx2w9fU7Eq6ip_HU2f-34" value="" style="endArrow=none;html=1;rounded=0;exitX=1;exitY=0.5;exitDx=0;exitDy=0;entryX=0;entryY=0.5;entryDx=0;entryDy=0;" edge="1" parent="flqx2w9fU7Eq6ip_HU2f-1" source="flqx2w9fU7Eq6ip_HU2f-2" target="flqx2w9fU7Eq6ip_HU2f-3">
          <mxGeometry relative="1" as="geometry">
            <mxPoint x="80" y="340" as="sourcePoint" />
            <mxPoint x="240" y="340" as="targetPoint" />
          </mxGeometry>
        </mxCell>
        <mxCell id="flqx2w9fU7Eq6ip_HU2f-35" value="N" style="resizable=0;html=1;align=right;verticalAlign=bottom;" connectable="0" vertex="1" parent="flqx2w9fU7Eq6ip_HU2f-34">
          <mxGeometry x="1" relative="1" as="geometry" />
        </mxCell>
      </root>
    </mxGraphModel>
  </diagram>
</mxfile>
